<svg width="30" height="30" viewBox="0 0 30 30" fill="none" xmlns="http://www.w3.org/2000/svg">
<g clip-path="url(#clip0_283_133)">
<path d="M28.8583 19.5216C28.6823 18.8511 28.2951 18.3464 27.696 18.0078L22.5006 15.0001L27.696 11.9922C28.2951 11.6537 28.6825 11.1493 28.8583 10.4786C29.0339 9.80795 28.9527 9.17317 28.614 8.5743L27.3641 6.42594C27.0256 5.82687 26.5213 5.43953 25.8503 5.26371C25.1798 5.08824 24.5456 5.16958 23.9463 5.50835L18.7509 8.49631V2.50013C18.7509 1.82294 18.5032 1.237 18.0083 0.742186C17.5136 0.247372 16.9276 0 16.2506 0H13.7508C13.0736 0 12.4877 0.247578 11.9929 0.742186C11.4981 1.23693 11.2506 1.82294 11.2506 2.50013V8.49631L6.0552 5.50814C5.45613 5.16937 4.82135 5.08776 4.15086 5.26351C3.48023 5.43953 2.97563 5.82666 2.63707 6.42573L1.38714 8.57417C1.04837 9.17303 0.967099 9.80781 1.14285 10.4784C1.31893 11.1489 1.706 11.6536 2.30507 11.9921L7.50051 15.0002L2.30507 18.008C1.706 18.3465 1.31866 18.851 1.14285 19.5218C0.967167 20.1923 1.04864 20.8267 1.38714 21.4256L2.63714 23.5742C2.97556 24.1735 3.47995 24.5607 4.15079 24.7368C4.82155 24.9121 5.45606 24.8309 6.05513 24.4919L11.2506 21.5037V27.5002C11.2506 28.1769 11.498 28.7635 11.9928 29.258C12.4876 29.7528 13.0737 30.0001 13.7508 30.0001H16.2505C16.9275 30.0001 17.5138 29.7529 18.0082 29.258C18.5033 28.7634 18.7508 28.1768 18.7508 27.5002V21.5042L23.9461 24.4924C24.5455 24.8309 25.1796 24.9127 25.8502 24.7368C26.5209 24.5607 27.0254 24.1738 27.3639 23.5745L28.6138 21.426C28.9527 20.8268 29.034 20.1921 28.8583 19.5216Z" fill="white"/>
</g>
<defs>
<clipPath id="clip0_283_133">
<rect width="30" height="30" fill="white"/>
</clipPath>
</defs>
</svg>
