<svg width="40" height="40" viewBox="0 0 40 40" fill="none" xmlns="http://www.w3.org/2000/svg">
<path d="M12.8583 37.1423C19.1701 37.1423 24.2868 32.0256 24.2868 25.7137C24.2868 19.4019 19.1701 14.2852 12.8583 14.2852C6.54643 14.2852 1.42969 19.4019 1.42969 25.7137C1.42969 32.0256 6.54643 37.1423 12.8583 37.1423Z" stroke="#2C2C2C" stroke-width="2" stroke-linecap="round" stroke-linejoin="round"/>
<path d="M27.1434 37.1423C33.4552 37.1423 38.572 32.0256 38.572 25.7137C38.572 19.4019 33.4552 14.2852 27.1434 14.2852C20.8316 14.2852 15.7148 19.4019 15.7148 25.7137C15.7148 32.0256 20.8316 37.1423 27.1434 37.1423Z" stroke="#2C2C2C" stroke-width="2" stroke-linecap="round" stroke-linejoin="round"/>
<path d="M20.0028 25.7126C26.3146 25.7126 31.4314 20.5959 31.4314 14.284C31.4314 7.97221 26.3146 2.85547 20.0028 2.85547C13.691 2.85547 8.57422 7.97221 8.57422 14.284C8.57422 20.5959 13.691 25.7126 20.0028 25.7126Z" stroke="#2C2C2C" stroke-width="2" stroke-linecap="round" stroke-linejoin="round"/>
</svg>
