<svg width="40" height="41" viewBox="0 0 40 41" fill="none" xmlns="http://www.w3.org/2000/svg">
<g clip-path="url(#clip0_242_576)">
<path d="M24.2868 14.6479C25.8648 14.6479 27.144 13.3687 27.144 11.7907C27.144 10.2128 25.8648 8.93359 24.2868 8.93359C22.7089 8.93359 21.4297 10.2128 21.4297 11.7907C21.4297 13.3687 22.7089 14.6479 24.2868 14.6479Z" stroke="#2C2C2C" stroke-width="2" stroke-linecap="round" stroke-linejoin="round"/>
<path d="M12.8583 28.9314C13.6472 28.9314 14.2868 28.2918 14.2868 27.5028C14.2868 26.7138 13.6472 26.0742 12.8583 26.0742C12.0693 26.0742 11.4297 26.7138 11.4297 27.5028C11.4297 28.2918 12.0693 28.9314 12.8583 28.9314Z" stroke="#2C2C2C" stroke-width="2" stroke-linecap="round" stroke-linejoin="round"/>
<path d="M12.8571 18.933C14.4351 18.933 15.7143 17.6538 15.7143 16.0759C15.7143 14.4979 14.4351 13.2188 12.8571 13.2188C11.2792 13.2188 10 14.4979 10 16.0759C10 17.6538 11.2792 18.933 12.8571 18.933Z" stroke="#2C2C2C" stroke-width="2" stroke-linecap="round" stroke-linejoin="round"/>
<path d="M27.2003 35.4462C27.1684 34.892 26.9758 34.3591 26.646 33.9126C26.3162 33.4661 25.8635 33.1253 25.3431 32.9319C24.0508 32.5072 22.9525 31.6354 22.2455 30.4733C21.5385 29.3112 21.2692 27.9349 21.4862 26.5921C21.7031 25.2492 22.392 24.0278 23.4289 23.1473C24.4658 22.2669 25.7828 21.7853 27.1431 21.7891H32.486C33.4023 21.7916 34.3059 21.5737 35.1204 21.1538C35.9349 20.7339 36.6365 20.1243 37.1659 19.3763C37.6953 18.6284 38.0371 17.764 38.1625 16.8563C38.2878 15.9485 38.193 15.0239 37.886 14.1605C36.7496 10.9518 34.7532 8.11722 32.1149 5.96634C29.4766 3.81547 26.2979 2.43108 22.926 1.96442C19.5542 1.49776 16.119 1.96679 12.9957 3.32026C9.87239 4.67374 7.18116 6.85959 5.21601 9.639C3.25087 12.4184 2.08742 15.6845 1.85278 19.0803C1.61813 22.4762 2.32132 25.8712 3.88551 28.8945C5.44971 31.9178 7.81473 34.453 10.7222 36.2232C13.6297 37.9934 16.9677 38.9304 20.3717 38.9319C22.0527 38.9366 23.7261 38.7058 25.3431 38.2462C25.937 38.0798 26.4513 37.7055 26.7922 37.1915C27.1331 36.6775 27.278 36.0581 27.2003 35.4462V35.4462Z" stroke="#2C2C2C" stroke-width="2" stroke-linecap="round" stroke-linejoin="round"/>
</g>
<defs>
<clipPath id="clip0_242_576">
<rect width="40" height="40" fill="white" transform="translate(0 0.359375)"/>
</clipPath>
</defs>
</svg>
