<svg width="20" height="20" viewBox="0 0 20 20" fill="none" xmlns="http://www.w3.org/2000/svg">
<g clip-path="url(#clip0_367_919)">
<path d="M12.5127 18.5727C13.3924 19.1402 14.4408 19.3876 15.4814 19.2731C16.5221 19.1586 17.4916 18.6893 18.227 17.9441L18.8698 17.3155C19.1517 17.0273 19.3095 16.6401 19.3095 16.237C19.3095 15.8338 19.1517 15.4467 18.8698 15.1584L16.1413 12.4584C15.8554 12.1775 15.4706 12.02 15.0698 12.02C14.669 12.02 14.2843 12.1775 13.9984 12.4584V12.4584C13.7101 12.7402 13.323 12.898 12.9198 12.898C12.5167 12.898 12.1295 12.7402 11.8413 12.4584L7.55554 8.17267C7.41258 8.03178 7.29904 7.86387 7.22155 7.67871C7.14406 7.49355 7.10415 7.29483 7.10415 7.0941C7.10415 6.89338 7.14406 6.69466 7.22155 6.50949C7.29904 6.32433 7.41258 6.15642 7.55554 6.01553V6.01553C7.83648 5.72967 7.9939 5.3449 7.9939 4.9441C7.9939 4.5433 7.83648 4.15854 7.55554 3.87267L4.84126 1.15839C4.55298 0.876553 4.16584 0.71875 3.76269 0.71875C3.35953 0.71875 2.97239 0.876553 2.68412 1.15839L2.05554 1.80125C1.31032 2.53659 0.841022 3.50611 0.726549 4.54677C0.612076 5.58743 0.859414 6.63578 1.42697 7.51553C4.38418 11.8737 8.14688 15.6267 12.5127 18.5727V18.5727Z" stroke="#2C2C2C" stroke-width="1.5" stroke-linecap="round" stroke-linejoin="round"/>
</g>
<defs>
<clipPath id="clip0_367_919">
<rect width="20" height="20" fill="white"/>
</clipPath>
</defs>
</svg>
