<svg width="30" height="30" viewBox="0 0 30 30" fill="none" xmlns="http://www.w3.org/2000/svg">
<mask id="path-1-inside-1_612_3412" fill="white">
<path d="M26.2969 15.1319L26.153 15.2561C25.4072 15.9006 24.3024 15.8786 23.5833 15.205L23.5186 15.1445C23.2852 14.9261 23.0199 14.7644 22.7424 14.6392V9.88187C22.7424 8.41891 21.5517 7.22828 20.0883 7.22828H19.9444L19.4653 3.68875C19.3327 2.71047 18.4885 1.97266 17.5017 1.97266H12.5077C11.521 1.97266 10.6767 2.71047 10.5441 3.68875L10.065 7.22828H9.92112C8.45768 7.22828 7.26706 8.41891 7.26706 9.88187V14.6641C7.00831 14.7873 6.75987 14.9397 6.54049 15.1445L6.45424 15.2252C5.74456 15.8894 4.64862 15.9184 3.90424 15.2936L3.70737 15.1281C3.50956 14.9617 3.21284 14.9875 3.04737 15.1858C2.88096 15.3841 2.90628 15.6798 3.10503 15.8458L3.30143 16.0112C3.8344 16.4584 4.48784 16.6811 5.14081 16.6806C5.84487 16.6806 6.54753 16.4223 7.09549 15.91L7.18174 15.8294C7.20846 15.8041 7.2394 15.7867 7.26753 15.7633V20.1161C7.26753 21.5791 8.45815 22.7697 9.92159 22.7697H10.0655L10.5446 26.3092C10.6772 27.2875 11.5214 28.0253 12.5081 28.0253H17.5022C18.4889 28.0253 19.3332 27.2875 19.4658 26.3092L19.9449 22.7697H20.0888C21.5522 22.7697 22.7428 21.5791 22.7428 20.1161V15.7248C22.7878 15.76 22.8361 15.7895 22.8783 15.8294L22.9435 15.8898C24.0127 16.8911 25.6566 16.9239 26.7661 15.9658L26.91 15.8416C27.106 15.6728 27.128 15.3766 26.9588 15.1806C26.7896 14.9838 26.4928 14.9627 26.2978 15.1319H26.2969ZM11.4727 3.81391C11.5421 3.29828 11.9874 2.90969 12.5072 2.90969H17.5013C18.0211 2.90969 18.4664 3.29828 18.5358 3.81391L18.998 7.22781H11.01L11.4727 3.81391ZM8.20362 9.88141C8.20362 8.935 8.97378 8.16531 9.92018 8.16531H20.0878C21.0347 8.16531 21.8044 8.93547 21.8044 9.88141V14.3973C21.4022 14.3636 20.9972 14.4091 20.6128 14.5441C20.3799 11.6509 17.956 9.36719 15.0038 9.36719C12.0516 9.36719 9.63518 11.6439 9.39565 14.5305C9.0094 14.4025 8.6044 14.3617 8.20315 14.4025V9.88187L8.20362 9.88141ZM19.6107 15.1445C18.8728 15.8341 17.7188 15.8336 16.9838 15.1445C15.8888 14.1198 14.1717 14.1189 13.0749 15.1445C12.3394 15.8336 11.1849 15.8345 10.448 15.1445C10.4053 15.1047 10.3561 15.0766 10.3116 15.04C10.3116 15.0264 10.3097 15.0128 10.3097 14.9992C10.3097 12.4108 12.4153 10.3047 15.0042 10.3047C17.5931 10.3047 19.6988 12.4103 19.6988 14.9992C19.6988 15.0264 19.695 15.0531 19.6946 15.0803C19.6678 15.1037 19.6369 15.1202 19.6107 15.1445ZM19.5066 16.3188C18.9347 18.2664 17.1347 19.6933 15.0042 19.6933C12.8738 19.6933 11.0574 18.2523 10.4949 16.2906C11.5374 16.8058 12.8278 16.66 13.7156 15.8294C14.4521 15.1394 15.6071 15.1398 16.3425 15.8294C17.2139 16.6436 18.4744 16.7997 19.5066 16.3188ZM18.5358 26.1841C18.4664 26.6997 18.0211 27.0883 17.5013 27.0883H12.5072C11.9874 27.0883 11.5421 26.6997 11.4727 26.1841L11.0105 22.7702H18.9985L18.5358 26.1841ZM21.8049 20.1166C21.8049 21.063 21.0347 21.8327 20.0883 21.8327H9.92065C8.97378 21.8327 8.20409 21.0625 8.20409 20.1166V15.3391C8.61049 15.2777 9.03003 15.3484 9.40034 15.5467C9.6769 18.3958 12.0839 20.6308 15.0042 20.6308C17.9246 20.6308 20.3189 18.4094 20.6072 15.572C20.9747 15.3606 21.3952 15.2828 21.8049 15.3339V20.1166Z"/>
</mask>
<path d="M26.2969 15.1319V13.1319H25.5531L24.99 13.6179L26.2969 15.1319ZM26.153 15.2561L24.8461 13.7421L24.8452 13.7429L26.153 15.2561ZM23.5833 15.205L24.9506 13.7454L24.9491 13.744L23.5833 15.205ZM23.5186 15.1445L22.1521 16.6049L22.1528 16.6056L23.5186 15.1445ZM22.7424 14.6392H20.7424V15.9312L21.9201 16.4624L22.7424 14.6392ZM19.9444 7.22828L17.9625 7.49653L18.1969 9.22828H19.9444V7.22828ZM19.4653 3.68875L21.4473 3.4205L21.4472 3.42001L19.4653 3.68875ZM10.5441 3.68875L8.56223 3.42001L8.56216 3.4205L10.5441 3.68875ZM10.065 7.22828V9.22828H11.8126L12.047 7.49653L10.065 7.22828ZM7.26706 14.6641L8.12731 16.4696L9.26706 15.9266V14.6641H7.26706ZM6.54049 15.1445L5.17552 13.6827L5.17472 13.6835L6.54049 15.1445ZM6.45424 15.2252L5.08847 13.7641L5.08758 13.7649L6.45424 15.2252ZM3.90424 15.2936L2.61743 16.8246L2.61838 16.8254L3.90424 15.2936ZM3.70737 15.1281L2.41988 16.6586L2.42056 16.6592L3.70737 15.1281ZM3.04737 15.1858L4.57936 16.4715L4.58292 16.4672L3.04737 15.1858ZM3.10503 15.8458L4.39365 14.3162L4.38682 14.3105L3.10503 15.8458ZM3.30143 16.0112L2.01282 17.5408L2.0159 17.5434L3.30143 16.0112ZM5.14081 16.6806L5.14081 14.6806L5.13937 14.6806L5.14081 16.6806ZM7.09549 15.91L5.72972 14.4489L5.72957 14.4491L7.09549 15.91ZM7.18174 15.8294L8.54755 17.2905L8.55723 17.2813L7.18174 15.8294ZM7.26753 15.7633H9.26753V11.4932L5.98716 14.2268L7.26753 15.7633ZM10.0655 22.7697L12.0474 22.5014L11.813 20.7697H10.0655V22.7697ZM10.5446 26.3092L8.56263 26.5775L8.56269 26.578L10.5446 26.3092ZM19.4658 26.3092L21.4477 26.578L21.4477 26.5775L19.4658 26.3092ZM19.9449 22.7697V20.7697H18.1973L17.9629 22.5014L19.9449 22.7697ZM22.7428 15.7248L23.9741 14.1488L20.7428 11.6244V15.7248H22.7428ZM22.8783 15.8294L21.5051 17.2834L21.5114 17.2894L21.5178 17.2953L22.8783 15.8294ZM22.9435 15.8898L24.3105 14.43L24.304 14.4239L22.9435 15.8898ZM26.7661 15.9658L25.4593 14.4518L25.459 14.4521L26.7661 15.9658ZM26.91 15.8416L25.6049 14.3261L25.6032 14.3276L26.91 15.8416ZM26.9588 15.1806L25.442 16.4843L25.4451 16.4879L26.9588 15.1806ZM26.2978 15.1319V17.1319H27.0446L27.6087 16.6424L26.2978 15.1319ZM11.4727 3.81391L13.4546 4.08249L13.4548 4.08059L11.4727 3.81391ZM18.5358 3.81391L16.5537 4.08059L16.5539 4.08223L18.5358 3.81391ZM18.998 7.22781V9.22781H21.287L20.9799 6.95949L18.998 7.22781ZM11.01 7.22781L9.02814 6.95923L8.7207 9.22781H11.01V7.22781ZM8.20362 9.88141L9.61648 11.297L10.2036 10.711V9.88141H8.20362ZM21.8044 14.3973L21.6372 16.3903L23.8044 16.5722V14.3973H21.8044ZM20.6128 14.5441L18.6193 14.7046L18.8275 17.2909L21.2756 16.4311L20.6128 14.5441ZM9.39565 14.5305L8.76665 16.429L11.1787 17.2281L11.3888 14.6959L9.39565 14.5305ZM8.20315 14.4025H6.20315V16.6161L8.40538 16.3922L8.20315 14.4025ZM8.20315 9.88187L6.79029 8.46631L6.20315 9.05233V9.88187H8.20315ZM19.6107 15.1445L18.2497 13.6789L18.2451 13.6833L19.6107 15.1445ZM16.9838 15.1445L18.3517 13.6855L18.3503 13.6842L16.9838 15.1445ZM13.0749 15.1445L11.7089 13.6837L11.7075 13.685L13.0749 15.1445ZM10.448 15.1445L11.815 13.6846L11.8132 13.683L10.448 15.1445ZM10.3116 15.04H8.31159V15.9857L9.04246 16.5857L10.3116 15.04ZM19.6946 15.0803L21.0134 16.5838L21.679 16L21.6943 15.1148L19.6946 15.0803ZM19.5066 16.3188L21.4256 16.8822L22.6719 12.6374L18.6619 14.5059L19.5066 16.3188ZM10.4949 16.2906L11.3809 14.4976L7.32552 12.4936L8.57234 16.8419L10.4949 16.2906ZM13.7156 15.8294L15.082 17.2898L15.0831 17.2888L13.7156 15.8294ZM16.3425 15.8294L14.9746 17.2884L14.9771 17.2907L16.3425 15.8294ZM18.5358 26.1841L16.5539 25.9155L16.5537 25.9174L18.5358 26.1841ZM11.4727 26.1841L13.4548 25.9174L13.4546 25.9157L11.4727 26.1841ZM11.0105 22.7702V20.7702H8.72148L9.02857 23.0385L11.0105 22.7702ZM18.9985 22.7702L20.9803 23.0387L21.2878 20.7702H18.9985V22.7702ZM8.20409 15.3391L7.90529 13.3615L6.20409 13.6186V15.3391H8.20409ZM9.40034 15.5467L11.391 15.3535L11.2876 14.2886L10.3444 13.7836L9.40034 15.5467ZM20.6072 15.572L19.6099 13.8384L18.7211 14.3497L18.6175 15.3699L20.6072 15.572ZM21.8049 15.3339H23.8049V13.5678L22.0524 13.3493L21.8049 15.3339ZM26.2969 15.1319L24.99 13.6179L24.8461 13.7421L26.153 15.2561L27.4598 16.7701L27.6038 16.6459L26.2969 15.1319ZM26.153 15.2561L24.8452 13.7429C24.8491 13.7395 24.8573 13.7341 24.8684 13.7301C24.8787 13.7265 24.8887 13.7251 24.8979 13.7252C24.9072 13.7254 24.9172 13.7273 24.9274 13.7314C24.9385 13.7358 24.9467 13.7417 24.9506 13.7454L23.5833 15.205L22.216 16.6646C23.6821 18.038 25.9412 18.0825 27.4608 16.7693L26.153 15.2561ZM23.5833 15.205L24.9491 13.744L24.8844 13.6835L23.5186 15.1445L22.1528 16.6056L22.2175 16.666L23.5833 15.205ZM23.5186 15.1445L24.8851 13.6842C24.4572 13.2837 23.9945 13.01 23.5646 12.8161L22.7424 14.6392L21.9201 16.4624C22.0452 16.5188 22.1132 16.5684 22.1521 16.6049L23.5186 15.1445ZM22.7424 14.6392H24.7424V9.88187H22.7424H20.7424V14.6392H22.7424ZM22.7424 9.88187H24.7424C24.7424 7.31411 22.6561 5.22828 20.0883 5.22828V7.22828V9.22828C20.4474 9.22828 20.7424 9.5237 20.7424 9.88187H22.7424ZM20.0883 7.22828V5.22828H19.9444V7.22828V9.22828H20.0883V7.22828ZM19.9444 7.22828L21.9263 6.96003L21.4473 3.4205L19.4653 3.68875L17.4834 3.957L17.9625 7.49653L19.9444 7.22828ZM19.4653 3.68875L21.4472 3.42001C21.1802 1.4509 19.49 -0.0273438 17.5017 -0.0273438V1.97266V3.97266C17.5002 3.97266 17.498 3.9725 17.4954 3.97201C17.4928 3.97153 17.4908 3.9709 17.4893 3.97034C17.4867 3.96935 17.4866 3.96885 17.4877 3.96978C17.4888 3.97071 17.4884 3.97077 17.4871 3.96854C17.4864 3.96728 17.4856 3.96547 17.4849 3.9632C17.4841 3.96084 17.4837 3.95879 17.4835 3.95749L19.4653 3.68875ZM17.5017 1.97266V-0.0273438H12.5077V1.97266V3.97266H17.5017V1.97266ZM12.5077 1.97266V-0.0273438C10.5194 -0.0273438 8.82924 1.4509 8.56223 3.42001L10.5441 3.68875L12.5259 3.95749C12.5258 3.95879 12.5254 3.96084 12.5246 3.9632C12.5238 3.96547 12.523 3.96728 12.5223 3.96854C12.5211 3.97077 12.5207 3.97071 12.5217 3.96978C12.5228 3.96885 12.5227 3.96935 12.5201 3.97034C12.5186 3.9709 12.5166 3.97153 12.5141 3.97201C12.5115 3.9725 12.5092 3.97266 12.5077 3.97266V1.97266ZM10.5441 3.68875L8.56216 3.4205L8.0831 6.96003L10.065 7.22828L12.047 7.49653L12.526 3.957L10.5441 3.68875ZM10.065 7.22828V5.22828H9.92112V7.22828V9.22828H10.065V7.22828ZM9.92112 7.22828V5.22828C7.35334 5.22828 5.26706 7.31411 5.26706 9.88187H7.26706H9.26706C9.26706 9.52371 9.56202 9.22828 9.92112 9.22828V7.22828ZM7.26706 9.88187H5.26706V14.6641H7.26706H9.26706V9.88187H7.26706ZM7.26706 14.6641L6.40681 12.8585C6.02116 13.0423 5.58518 13.3002 5.17552 13.6827L6.54049 15.1445L7.90546 16.6063C7.93456 16.5792 7.99546 16.5324 8.12731 16.4696L7.26706 14.6641ZM6.54049 15.1445L5.17472 13.6835L5.08847 13.7641L6.45424 15.2252L7.82002 16.6862L7.90627 16.6056L6.54049 15.1445ZM6.45424 15.2252L5.08758 13.7649C5.10267 13.7508 5.12348 13.7439 5.13879 13.7435C5.15402 13.7431 5.1747 13.7488 5.19011 13.7617L3.90424 15.2936L2.61838 16.8254C4.13703 18.1002 6.37178 18.0417 7.82091 16.6854L6.45424 15.2252ZM3.90424 15.2936L5.19106 13.7625L4.99418 13.5971L3.70737 15.1281L2.42056 16.6592L2.61743 16.8246L3.90424 15.2936ZM3.70737 15.1281L4.99486 13.5976C3.95232 12.7206 2.3894 12.8527 1.51182 13.9043L3.04737 15.1858L4.58292 16.4672C4.03627 17.1223 3.06679 17.2028 2.41988 16.6586L3.70737 15.1281ZM3.04737 15.1858L1.51539 13.9001C0.642165 14.9406 0.769647 16.5014 1.82323 17.381L3.10503 15.8458L4.38682 14.3105C5.0429 14.8583 5.11976 15.8276 4.57935 16.4715L3.04737 15.1858ZM3.10503 15.8458L1.81642 17.3753L2.01282 17.5408L3.30143 16.0112L4.59004 14.4817L4.39364 14.3162L3.10503 15.8458ZM3.30143 16.0112L2.0159 17.5434C2.92034 18.3022 4.03302 18.6814 5.14224 18.6806L5.14081 16.6806L5.13937 14.6806C4.94265 14.6808 4.74846 14.6146 4.58696 14.4791L3.30143 16.0112ZM5.14081 16.6806V18.6806C6.33331 18.6806 7.5295 18.2422 8.46142 17.3709L7.09549 15.91L5.72957 14.4491C5.56556 14.6024 5.35643 14.6806 5.14081 14.6806V16.6806ZM7.09549 15.91L8.46127 17.3711L8.54752 17.2904L7.18174 15.8294L5.81597 14.3683L5.72972 14.4489L7.09549 15.91ZM7.18174 15.8294L8.55723 17.2813C8.50715 17.3287 8.46373 17.3643 8.43473 17.387C8.42016 17.3983 8.40825 17.4073 8.40044 17.413C8.39284 17.4186 8.38757 17.4224 8.38719 17.4227C8.38697 17.4228 8.38717 17.4227 8.38878 17.4215C8.38984 17.4208 8.39299 17.4185 8.39588 17.4165C8.40195 17.4121 8.41317 17.4041 8.42641 17.3945C8.43993 17.3846 8.45757 17.3715 8.47776 17.3559C8.49805 17.3403 8.5218 17.3215 8.54789 17.2997L7.26753 15.7633L5.98716 14.2268C6.0244 14.1958 6.0539 14.174 6.06562 14.1654C6.07159 14.1611 6.0755 14.1583 6.07426 14.1592C6.0735 14.1597 6.07299 14.1601 6.07039 14.1619C6.06835 14.1634 6.0649 14.1658 6.06102 14.1686C6.04704 14.1786 6.01185 14.2038 5.9702 14.2364C5.92701 14.2702 5.8697 14.3174 5.80626 14.3775L7.18174 15.8294ZM7.26753 15.7633H5.26753V20.1161H7.26753H9.26753V15.7633H7.26753ZM7.26753 20.1161H5.26753C5.26753 22.6839 7.35381 24.7697 9.92159 24.7697V22.7697V20.7697C9.56249 20.7697 9.26753 20.4743 9.26753 20.1161H7.26753ZM9.92159 22.7697V24.7697H10.0655V22.7697V20.7697H9.92159V22.7697ZM10.0655 22.7697L8.08357 23.0379L8.56263 26.5775L10.5446 26.3092L12.5265 26.041L12.0474 22.5014L10.0655 22.7697ZM10.5446 26.3092L8.56269 26.578C8.82971 28.5471 10.5199 30.0253 12.5081 30.0253V28.0253V26.0253C12.5097 26.0253 12.5119 26.0255 12.5145 26.026C12.5171 26.0264 12.5191 26.0271 12.5206 26.0276C12.5232 26.0286 12.5233 26.0291 12.5222 26.0282C12.5211 26.0273 12.5215 26.0272 12.5228 26.0294C12.5234 26.0307 12.5243 26.0325 12.525 26.0348C12.5258 26.0371 12.5262 26.0392 12.5264 26.0405L10.5446 26.3092ZM12.5081 28.0253V30.0253H17.5022V28.0253V26.0253H12.5081V28.0253ZM17.5022 28.0253V30.0253C19.4905 30.0253 21.1807 28.5471 21.4477 26.578L19.4658 26.3092L17.4839 26.0405C17.4841 26.0392 17.4845 26.0371 17.4853 26.0348C17.4861 26.0325 17.4869 26.0307 17.4876 26.0294C17.4888 26.0272 17.4892 26.0273 17.4882 26.0282C17.4871 26.0291 17.4872 26.0286 17.4898 26.0276C17.4913 26.0271 17.4933 26.0264 17.4958 26.026C17.4984 26.0255 17.5007 26.0253 17.5022 26.0253V28.0253ZM19.4658 26.3092L21.4477 26.5775L21.9268 23.0379L19.9449 22.7697L17.9629 22.5014L17.4839 26.041L19.4658 26.3092ZM19.9449 22.7697V24.7697H20.0888V22.7697V20.7697H19.9449V22.7697ZM20.0888 22.7697V24.7697C22.6566 24.7697 24.7428 22.6839 24.7428 20.1161H22.7428H20.7428C20.7428 20.4743 20.4479 20.7697 20.0888 20.7697V22.7697ZM22.7428 20.1161H24.7428V15.7248H22.7428H20.7428V20.1161H22.7428ZM22.7428 15.7248L21.5115 17.3009C21.5319 17.3168 21.5502 17.3307 21.5656 17.3421C21.5809 17.3535 21.5943 17.3632 21.6043 17.3705C21.6093 17.3741 21.6139 17.3774 21.6176 17.3801C21.6207 17.3823 21.625 17.3854 21.6268 17.3867C21.632 17.3905 21.633 17.3912 21.6328 17.391C21.6323 17.3907 21.6285 17.3879 21.6227 17.3835C21.6168 17.379 21.6079 17.3722 21.597 17.3635C21.5754 17.3462 21.543 17.3193 21.5051 17.2834L22.8783 15.8294L24.2516 14.3753C24.1373 14.2675 24.0335 14.1911 23.9904 14.1597C23.9787 14.1511 23.9682 14.1436 23.9619 14.1391C23.9541 14.1334 23.9522 14.1321 23.9498 14.1303C23.9458 14.1274 23.9571 14.1355 23.9741 14.1488L22.7428 15.7248ZM22.8783 15.8294L21.5178 17.2953L21.583 17.3558L22.9435 15.8898L24.304 14.4239L24.2388 14.3634L22.8783 15.8294ZM22.9435 15.8898L21.5764 17.3497C23.3928 19.0506 26.1904 19.1055 28.0733 17.4795L26.7661 15.9658L25.459 14.4521C25.1228 14.7423 24.6326 14.7316 24.3105 14.43L22.9435 15.8898ZM26.7661 15.9658L28.073 17.4798L28.2169 17.3555L26.91 15.8416L25.6032 14.3276L25.4593 14.4518L26.7661 15.9658ZM26.91 15.8416L28.2152 17.357C29.2486 16.4669 29.3645 14.9063 28.4724 13.8734L26.9588 15.1806L25.4451 16.4879C24.8915 15.8468 24.9633 14.8787 25.6049 14.3261L26.91 15.8416ZM26.9588 15.1806L28.4755 13.877C27.5833 12.839 26.0184 12.7263 24.987 13.6213L26.2978 15.1319L27.6087 16.6424C26.9673 17.199 25.9958 17.1285 25.442 16.4843L26.9588 15.1806ZM26.2978 15.1319V13.1319H26.2969V15.1319V17.1319H26.2978V15.1319ZM11.4727 3.81391L13.4548 4.08059C13.3904 4.55922 12.9872 4.90969 12.5072 4.90969V2.90969V0.909688C10.9876 0.909688 9.69369 2.03734 9.49054 3.54722L11.4727 3.81391ZM12.5072 2.90969V4.90969H17.5013V2.90969V0.909688H12.5072V2.90969ZM17.5013 2.90969V4.90969C17.0213 4.90969 16.6181 4.55922 16.5537 4.08059L18.5358 3.81391L20.5179 3.54722C20.3148 2.03734 19.0209 0.909688 17.5013 0.909688V2.90969ZM18.5358 3.81391L16.5539 4.08223L17.0161 7.49613L18.998 7.22781L20.9799 6.95949L20.5177 3.54559L18.5358 3.81391ZM18.998 7.22781V5.22781H11.01V7.22781V9.22781H18.998V7.22781ZM11.01 7.22781L12.9919 7.4964L13.4546 4.08249L11.4727 3.81391L9.4908 3.54532L9.02814 6.95923L11.01 7.22781ZM8.20362 9.88141H10.2036C10.2036 10.0403 10.0776 10.1653 9.92018 10.1653V8.16531V6.16531C7.86992 6.16531 6.20362 7.82972 6.20362 9.88141H8.20362ZM9.92018 8.16531V10.1653H20.0878V8.16531V6.16531H9.92018V8.16531ZM20.0878 8.16531V10.1653C19.9301 10.1653 19.8044 10.04 19.8044 9.88141H21.8044H23.8044C23.8044 7.8309 22.1393 6.16531 20.0878 6.16531V8.16531ZM21.8044 9.88141H19.8044V14.3973H21.8044H23.8044V9.88141H21.8044ZM21.8044 14.3973L21.9716 12.4043C21.3084 12.3487 20.6188 12.4222 19.9501 12.6571L20.6128 14.5441L21.2756 16.4311C21.3756 16.3959 21.4961 16.3785 21.6372 16.3903L21.8044 14.3973ZM20.6128 14.5441L22.6064 14.3835C22.2907 10.4632 19.0101 7.36719 15.0038 7.36719V9.36719V11.3672C16.9019 11.3672 18.469 12.8386 18.6193 14.7046L20.6128 14.5441ZM15.0038 9.36719V7.36719C10.9981 7.36719 7.72699 10.4547 7.4025 14.3651L9.39565 14.5305L11.3888 14.6959C11.5434 12.8331 13.1051 11.3672 15.0038 11.3672V9.36719ZM9.39565 14.5305L10.0246 12.632C9.36039 12.4119 8.67141 12.3446 8.00092 12.4128L8.20315 14.4025L8.40538 16.3922C8.53739 16.3788 8.65841 16.3931 8.76665 16.429L9.39565 14.5305ZM8.20315 14.4025H10.2032V9.88187H8.20315H6.20315V14.4025H8.20315ZM8.20315 9.88187L9.61602 11.2974L9.61648 11.297L8.20362 9.88141L6.79075 8.46585L6.79029 8.46631L8.20315 9.88187ZM19.6107 15.1445L18.2451 13.6833C18.2626 13.6669 18.2842 13.6615 18.2964 13.6615C18.3086 13.6615 18.3319 13.6669 18.3517 13.6855L16.9838 15.1445L15.6159 16.6036C17.1211 18.0147 19.4706 18.0128 20.9762 16.6057L19.6107 15.1445ZM16.9838 15.1445L18.3503 13.6842C16.4865 11.9401 13.5747 11.9391 11.7089 13.6837L13.0749 15.1445L14.4408 16.6054C14.7688 16.2987 15.291 16.2996 15.6172 16.6049L16.9838 15.1445ZM13.0749 15.1445L11.7075 13.685C11.7267 13.667 11.7494 13.6617 11.7615 13.6617C11.7737 13.6617 11.7963 13.6671 11.815 13.6846L10.448 15.1445L9.08098 16.6044C10.5874 18.015 12.9381 18.0133 14.4423 16.604L13.0749 15.1445ZM10.448 15.1445L11.8132 13.683C11.6898 13.5677 11.5758 13.487 11.5434 13.4638C11.5358 13.4585 11.5235 13.4497 11.5228 13.4492C11.5188 13.4464 11.5198 13.447 11.5226 13.4491C11.5279 13.453 11.5506 13.4695 11.5807 13.4943L10.3116 15.04L9.04246 16.5857C9.09489 16.6288 9.14034 16.6625 9.1688 16.6832C9.18316 16.6937 9.19573 16.7026 9.20339 16.7081C9.2069 16.7106 9.21126 16.7137 9.21307 16.715C9.21558 16.7168 9.21683 16.7177 9.21763 16.7182C9.21932 16.7194 9.21652 16.7174 9.21149 16.7137C9.20629 16.7099 9.19726 16.7032 9.18572 16.6942C9.16283 16.6764 9.12616 16.6466 9.08279 16.6061L10.448 15.1445ZM10.3116 15.04H12.3116C12.3116 14.9916 12.3099 14.9518 12.3086 14.9265C12.308 14.9136 12.3073 14.9028 12.3068 14.8957C12.3064 14.889 12.306 14.883 12.3059 14.882C12.3057 14.8796 12.3059 14.8822 12.3061 14.8855C12.3064 14.8893 12.3068 14.8966 12.3073 14.9061C12.3083 14.9246 12.3097 14.9576 12.3097 14.9992H10.3097H8.30971C8.30971 15.0476 8.31137 15.0874 8.31268 15.1127C8.31334 15.1256 8.31401 15.1364 8.31447 15.1435C8.31491 15.1502 8.31532 15.1562 8.31539 15.1572C8.31556 15.1596 8.31537 15.157 8.31516 15.1537C8.31492 15.15 8.31446 15.1426 8.31396 15.1331C8.31301 15.1146 8.31159 15.0816 8.31159 15.04H10.3116ZM10.3097 14.9992H12.3097C12.3097 13.5152 13.52 12.3047 15.0042 12.3047V10.3047V8.30469C11.3106 8.30469 8.30971 11.3063 8.30971 14.9992H10.3097ZM15.0042 10.3047V12.3047C16.4886 12.3047 17.6988 13.5149 17.6988 14.9992H19.6988H21.6988C21.6988 11.3057 18.6977 8.30469 15.0042 8.30469V10.3047ZM19.6988 14.9992H17.6988C17.6988 14.9608 17.7001 14.9305 17.701 14.9134C17.7015 14.9047 17.7019 14.8981 17.7021 14.8947C17.7023 14.8917 17.7025 14.89 17.7023 14.8924C17.7022 14.8929 17.7017 14.9004 17.7013 14.9063C17.7007 14.9134 17.7 14.9241 17.6992 14.9366C17.6977 14.9613 17.6957 14.9996 17.6949 15.0458L19.6946 15.0803L21.6943 15.1148C21.6937 15.1474 21.6923 15.1722 21.6916 15.1834C21.6911 15.1918 21.6904 15.2005 21.6914 15.1872C21.692 15.1797 21.6938 15.1549 21.6954 15.1257C21.697 15.095 21.6988 15.0513 21.6988 14.9992H19.6988ZM19.6946 15.0803L18.3757 13.5768C18.4249 13.5336 18.4655 13.5029 18.4864 13.4875C18.4971 13.4796 18.505 13.474 18.5074 13.4723C18.5082 13.4717 18.5109 13.4698 18.5033 13.4752C18.4954 13.4807 18.4605 13.5051 18.4202 13.5357C18.3775 13.5682 18.3172 13.6163 18.2497 13.6789L19.6107 15.1445L20.9716 16.6101C20.9172 16.6606 20.8706 16.6975 20.842 16.7193C20.8275 16.7303 20.816 16.7386 20.8095 16.7433C20.8034 16.7477 20.7993 16.7506 20.8016 16.749C20.8021 16.7486 20.8026 16.7483 20.8036 16.7476C20.8044 16.747 20.8057 16.7461 20.8071 16.7451C20.8099 16.7431 20.8141 16.7402 20.819 16.7367C20.8286 16.7299 20.8436 16.7192 20.8613 16.7062C20.8963 16.6803 20.9509 16.6387 21.0134 16.5838L19.6946 15.0803ZM19.5066 16.3188L17.5876 15.7553C17.2578 16.8785 16.2192 17.6933 15.0042 17.6933V19.6933V21.6933C18.0502 21.6933 20.6116 19.6543 21.4256 16.8822L19.5066 16.3188ZM15.0042 19.6933V17.6933C13.7916 17.6933 12.7411 16.8682 12.4174 15.7394L10.4949 16.2906L8.57234 16.8419C9.37366 19.6365 11.956 21.6933 15.0042 21.6933V19.6933ZM10.4949 16.2906L9.60884 18.0837C11.3605 18.9492 13.5558 18.7177 15.082 17.2898L13.7156 15.8294L12.3493 14.3689C12.0998 14.6023 11.7142 14.6623 11.3809 14.4976L10.4949 16.2906ZM13.7156 15.8294L15.0831 17.2888C15.0641 17.3066 15.0414 17.3121 15.0292 17.3121C15.0171 17.312 14.9941 17.3067 14.9746 17.2884L16.3425 15.8294L17.7104 14.3703C16.2057 12.9596 13.8539 12.9591 12.3482 14.3699L13.7156 15.8294ZM16.3425 15.8294L14.9771 17.2907C16.4745 18.6899 18.6175 18.9395 20.3513 18.1316L19.5066 16.3188L18.6619 14.5059C18.3313 14.6599 17.9534 14.5973 17.708 14.368L16.3425 15.8294ZM18.5358 26.1841L16.5537 25.9174C16.6181 25.4387 17.0213 25.0883 17.5013 25.0883V27.0883V29.0883C19.0209 29.0883 20.3148 27.9606 20.5179 26.4508L18.5358 26.1841ZM17.5013 27.0883V25.0883H12.5072V27.0883V29.0883H17.5013V27.0883ZM12.5072 27.0883V25.0883C12.9872 25.0883 13.3904 25.4388 13.4548 25.9174L11.4727 26.1841L9.49054 26.4508C9.69369 27.9606 10.9876 29.0883 12.5072 29.0883V27.0883ZM11.4727 26.1841L13.4546 25.9157L12.9924 22.5018L11.0105 22.7702L9.02857 23.0385L9.49076 26.4524L11.4727 26.1841ZM11.0105 22.7702V24.7702H18.9985V22.7702V20.7702H11.0105V22.7702ZM18.9985 22.7702L17.0166 22.5016L16.5539 25.9155L18.5358 26.1841L20.5177 26.4526L20.9803 23.0387L18.9985 22.7702ZM21.8049 20.1166H19.8049C19.8049 19.9577 19.9309 19.8327 20.0883 19.8327V21.8327V23.8327C22.1386 23.8327 23.8049 22.1682 23.8049 20.1166H21.8049ZM20.0883 21.8327V19.8327H9.92065V21.8327V23.8327H20.0883V21.8327ZM9.92065 21.8327V19.8327C10.0783 19.8327 10.2041 19.9579 10.2041 20.1166H8.20409H6.20409C6.20409 22.1671 7.86921 23.8327 9.92065 23.8327V21.8327ZM8.20409 20.1166H10.2041V15.3391H8.20409H6.20409V20.1166H8.20409ZM8.20409 15.3391L8.50289 17.3166C8.4832 17.3196 8.46671 17.3155 8.45627 17.3099L9.40034 15.5467L10.3444 13.7836C9.59335 13.3814 8.73779 13.2357 7.90529 13.3615L8.20409 15.3391ZM9.40034 15.5467L7.40969 15.74C7.7846 19.6021 11.0424 22.6308 15.0042 22.6308V20.6308V18.6308C13.1255 18.6308 11.5692 17.1894 11.391 15.3535L9.40034 15.5467ZM15.0042 20.6308V22.6308C18.9642 22.6308 22.2063 19.6192 22.597 15.7742L20.6072 15.572L18.6175 15.3699C18.4316 17.1995 16.8849 18.6308 15.0042 18.6308V20.6308ZM20.6072 15.572L21.6045 17.3057C21.5936 17.3119 21.5826 17.3157 21.5735 17.3175C21.5649 17.3191 21.5594 17.3188 21.5574 17.3185L21.8049 15.3339L22.0524 13.3493C21.2288 13.2466 20.3689 13.4018 19.6099 13.8384L20.6072 15.572ZM21.8049 15.3339H19.8049V20.1166H21.8049H23.8049V15.3339H21.8049Z" fill="black" mask="url(#path-1-inside-1_612_3412)"/>
<mask id="path-3-inside-2_612_3412" fill="white">
<path d="M4.76984 13.7389C5.79312 13.7389 6.62563 12.9064 6.62563 11.8831C6.62563 10.8598 5.79312 10.0273 4.76984 10.0273C3.74656 10.0273 2.91406 10.8598 2.91406 11.8831C2.91406 12.9064 3.74656 13.7389 4.76984 13.7389ZM4.76984 10.9648C5.27609 10.9648 5.68813 11.3769 5.68813 11.8831C5.68813 12.3894 5.27609 12.8014 4.76984 12.8014C4.26359 12.8014 3.85156 12.3894 3.85156 11.8831C3.85156 11.3769 4.26359 10.9648 4.76984 10.9648Z"/>
</mask>
<path d="M4.76984 13.7389V15.7389C6.89769 15.7389 8.62563 14.011 8.62563 11.8831H6.62563H4.62563C4.62563 11.8018 4.68856 11.7389 4.76984 11.7389V13.7389ZM6.62563 11.8831H8.62563C8.62563 9.75528 6.89769 8.02734 4.76984 8.02734V10.0273V12.0273C4.68855 12.0273 4.62563 11.9644 4.62563 11.8831H6.62563ZM4.76984 10.0273V8.02734C2.64199 8.02734 0.914062 9.75528 0.914062 11.8831H2.91406H4.91406C4.91406 11.9644 4.85113 12.0273 4.76984 12.0273V10.0273ZM2.91406 11.8831H0.914062C0.914062 14.011 2.64199 15.7389 4.76984 15.7389V13.7389V11.7389C4.85113 11.7389 4.91406 11.8018 4.91406 11.8831H2.91406ZM4.76984 10.9648V12.9648C4.17152 12.9648 3.68813 12.4814 3.68813 11.8831H5.68813H7.68813C7.68813 10.2723 6.38066 8.96484 4.76984 8.96484V10.9648ZM5.68813 11.8831H3.68813C3.68813 11.2848 4.17153 10.8014 4.76984 10.8014V12.8014V14.8014C6.38066 14.8014 7.68813 13.4939 7.68813 11.8831H5.68813ZM4.76984 12.8014V10.8014C5.36816 10.8014 5.85156 11.2848 5.85156 11.8831H3.85156H1.85156C1.85156 13.4939 3.15902 14.8014 4.76984 14.8014V12.8014ZM3.85156 11.8831H5.85156C5.85156 12.4814 5.36817 12.9648 4.76984 12.9648V10.9648V8.96484C3.15902 8.96484 1.85156 10.2723 1.85156 11.8831H3.85156Z" fill="black" mask="url(#path-3-inside-2_612_3412)"/>
<mask id="path-5-inside-3_612_3412" fill="white">
<path d="M5.50453 7.47859C5.50453 6.21953 4.47984 5.19531 3.22078 5.19531C1.96172 5.19531 0.9375 6.22 0.9375 7.47859C0.9375 8.73719 1.96219 9.76188 3.22078 9.76188C4.47937 9.76188 5.50453 8.73719 5.50453 7.47859ZM1.875 7.47859C1.875 6.73656 2.47875 6.13281 3.22078 6.13281C3.96281 6.13281 4.56703 6.73656 4.56703 7.47859C4.56703 8.22063 3.96328 8.82438 3.22078 8.82438C2.47828 8.82438 1.875 8.22063 1.875 7.47859Z"/>
</mask>
<path d="M5.50453 7.47859H7.50453C7.50453 5.11443 5.58388 3.19531 3.22078 3.19531V5.19531V7.19531C3.37581 7.19531 3.50453 7.32464 3.50453 7.47859H5.50453ZM3.22078 5.19531V3.19531C0.856882 3.19531 -1.0625 5.1157 -1.0625 7.47859H0.9375H2.9375C2.9375 7.3243 3.06656 7.19531 3.22078 7.19531V5.19531ZM0.9375 7.47859H-1.0625C-1.0625 9.84176 0.857618 11.7619 3.22078 11.7619V9.76188V7.76188C3.06676 7.76188 2.9375 7.63262 2.9375 7.47859H0.9375ZM3.22078 9.76188V11.7619C5.58341 11.7619 7.50453 9.84229 7.50453 7.47859H5.50453H3.50453C3.50453 7.63208 3.37534 7.76188 3.22078 7.76188V9.76188ZM1.875 7.47859H3.875C3.875 7.84113 3.58332 8.13281 3.22078 8.13281V6.13281V4.13281C1.37418 4.13281 -0.125 5.63199 -0.125 7.47859H1.875ZM3.22078 6.13281V8.13281C2.85915 8.13281 2.56703 7.84204 2.56703 7.47859H4.56703H6.56703C6.56703 5.63109 5.06648 4.13281 3.22078 4.13281V6.13281ZM4.56703 7.47859H2.56703C2.56703 7.1156 2.85916 6.82438 3.22078 6.82438V8.82438V10.8244C5.0674 10.8244 6.56703 9.32565 6.56703 7.47859H4.56703ZM3.22078 8.82438V6.82438C3.5833 6.82438 3.875 7.11651 3.875 7.47859H1.875H-0.125C-0.125 9.32474 1.37326 10.8244 3.22078 10.8244V8.82438Z" fill="black" mask="url(#path-5-inside-3_612_3412)"/>
<mask id="path-7-inside-4_612_3412" fill="white">
<path d="M25.2308 10.0273C24.2075 10.0273 23.375 10.8598 23.375 11.8831C23.375 12.9064 24.2075 13.7389 25.2308 13.7389C26.2541 13.7389 27.0866 12.9064 27.0866 11.8831C27.0866 10.8598 26.2541 10.0273 25.2308 10.0273ZM25.2308 12.8014C24.7245 12.8014 24.3125 12.3894 24.3125 11.8831C24.3125 11.3769 24.7245 10.9648 25.2308 10.9648C25.737 10.9648 26.1491 11.3769 26.1491 11.8831C26.1491 12.3894 25.737 12.8014 25.2308 12.8014Z"/>
</mask>
<path d="M25.2308 10.0273V8.02734C23.1029 8.02734 21.375 9.75527 21.375 11.8831H23.375H25.375C25.375 11.9644 25.3121 12.0273 25.2308 12.0273V10.0273ZM23.375 11.8831H21.375C21.375 14.011 23.1029 15.7389 25.2308 15.7389V13.7389V11.7389C25.3121 11.7389 25.375 11.8018 25.375 11.8831H23.375ZM25.2308 13.7389V15.7389C27.3586 15.7389 29.0866 14.011 29.0866 11.8831H27.0866H25.0866C25.0866 11.8018 25.1495 11.7389 25.2308 11.7389V13.7389ZM27.0866 11.8831H29.0866C29.0866 9.75527 27.3586 8.02734 25.2308 8.02734V10.0273V12.0273C25.1495 12.0273 25.0866 11.9644 25.0866 11.8831H27.0866ZM25.2308 12.8014V10.8014C25.8291 10.8014 26.3125 11.2848 26.3125 11.8831H24.3125H22.3125C22.3125 13.4939 23.62 14.8014 25.2308 14.8014V12.8014ZM24.3125 11.8831H26.3125C26.3125 12.4814 25.8291 12.9648 25.2308 12.9648V10.9648V8.96484C23.62 8.96484 22.3125 10.2723 22.3125 11.8831H24.3125ZM25.2308 10.9648V12.9648C24.6325 12.9648 24.1491 12.4814 24.1491 11.8831H26.1491H28.1491C28.1491 10.2723 26.8416 8.96484 25.2308 8.96484V10.9648ZM26.1491 11.8831H24.1491C24.1491 11.2848 24.6325 10.8014 25.2308 10.8014V12.8014V14.8014C26.8416 14.8014 28.1491 13.4939 28.1491 11.8831H26.1491Z" fill="black" mask="url(#path-7-inside-4_612_3412)"/>
<mask id="path-9-inside-5_612_3412" fill="white">
<path d="M26.7838 5.19531C25.5242 5.19531 24.5 6.22 24.5 7.47859C24.5 8.73719 25.5247 9.76188 26.7838 9.76188C28.0428 9.76188 29.067 8.73719 29.067 7.47859C29.067 6.22 28.0423 5.19531 26.7838 5.19531ZM26.7838 8.82438C26.0413 8.82438 25.4375 8.22063 25.4375 7.47859C25.4375 6.73656 26.0413 6.13281 26.7838 6.13281C27.5263 6.13281 28.1295 6.73656 28.1295 7.47859C28.1295 8.22063 27.5258 8.82438 26.7838 8.82438Z"/>
</mask>
<path d="M26.7838 5.19531V3.19531C24.4197 3.19531 22.5 5.11543 22.5 7.47859H24.5H26.5C26.5 7.32457 26.6288 7.19531 26.7838 7.19531V5.19531ZM24.5 7.47859H22.5C22.5 9.84202 24.4204 11.7619 26.7838 11.7619V9.76188V7.76188C26.629 7.76188 26.5 7.63235 26.5 7.47859H24.5ZM26.7838 9.76188V11.7619C29.1477 11.7619 31.067 9.84149 31.067 7.47859H29.067H27.067C27.067 7.63289 26.938 7.76188 26.7838 7.76188V9.76188ZM29.067 7.47859H31.067C31.067 5.11543 29.1469 3.19531 26.7838 3.19531V5.19531V7.19531C26.9378 7.19531 27.067 7.32457 27.067 7.47859H29.067ZM26.7838 8.82438V6.82438C27.1454 6.82438 27.4375 7.1156 27.4375 7.47859H25.4375H23.4375C23.4375 9.32565 24.9371 10.8244 26.7838 10.8244V8.82438ZM25.4375 7.47859H27.4375C27.4375 7.84159 27.1454 8.13281 26.7838 8.13281V6.13281V4.13281C24.9371 4.13281 23.4375 5.63154 23.4375 7.47859H25.4375ZM26.7838 6.13281V8.13281C26.4212 8.13281 26.1295 7.84068 26.1295 7.47859H28.1295H30.1295C30.1295 5.63245 28.6313 4.13281 26.7838 4.13281V6.13281ZM28.1295 7.47859H26.1295C26.1295 7.11606 26.4212 6.82438 26.7838 6.82438V8.82438V10.8244C28.6304 10.8244 30.1295 9.32519 30.1295 7.47859H28.1295Z" fill="black" mask="url(#path-9-inside-5_612_3412)"/>
</svg>
