<svg width="40" height="40" viewBox="0 0 40 40" fill="none" xmlns="http://www.w3.org/2000/svg">
<g clip-path="url(#clip0_367_2108)">
<path d="M4.28683 17.1445H7.14397C7.52285 17.1445 7.88622 17.295 8.15413 17.563C8.42203 17.8309 8.57254 18.1942 8.57254 18.5731V25.716C8.57254 26.0948 8.42203 26.4582 8.15413 26.7261C7.88622 26.994 7.52285 27.1445 7.14397 27.1445H4.28683C3.52907 27.1445 2.80234 26.8435 2.26653 26.3077C1.73071 25.7719 1.42969 25.0452 1.42969 24.2874V20.0017C1.42969 19.2439 1.73071 18.5172 2.26653 17.9814C2.80234 17.4456 3.52907 17.1445 4.28683 17.1445V17.1445Z" stroke="#2C2C2C" stroke-width="2" stroke-linecap="round" stroke-linejoin="round"/>
<path d="M35.7171 27.1445H32.8599C32.4811 27.1445 32.1177 26.994 31.8498 26.7261C31.5819 26.4582 31.4314 26.0948 31.4314 25.716V18.5731C31.4314 18.1942 31.5819 17.8309 31.8498 17.5629C32.1177 17.295 32.4811 17.1445 32.8599 17.1445H35.7171C36.4748 17.1445 37.2016 17.4456 37.7374 17.9814C38.2732 18.5172 38.5742 19.2439 38.5742 20.0017V24.2874C38.5742 25.0451 38.2732 25.7719 37.7374 26.3077C37.2016 26.8435 36.4748 27.1445 35.7171 27.1445V27.1445Z" stroke="#2C2C2C" stroke-width="2" stroke-linecap="round" stroke-linejoin="round"/>
<path d="M27.1445 35.0017C28.6601 35.0017 30.1135 34.3996 31.1851 33.328C32.2568 32.2564 32.8588 30.8029 32.8588 29.2874V27.1445" stroke="#2C2C2C" stroke-width="2" stroke-linecap="round" stroke-linejoin="round"/>
<path d="M23.572 31.4297C24.5192 31.4297 25.4276 31.806 26.0974 32.4757C26.7671 33.1455 27.1434 34.0539 27.1434 35.0011C27.1434 35.9483 26.7671 36.8567 26.0974 37.5265C25.4276 38.1963 24.5192 38.5725 23.572 38.5725H19.2863C18.3391 38.5725 17.4307 38.1963 16.7609 37.5265C16.0911 36.8567 15.7148 35.9483 15.7148 35.0011C15.7148 34.0539 16.0911 33.1455 16.7609 32.4757C17.4307 31.806 18.3391 31.4297 19.2863 31.4297H23.572Z" stroke="#2C2C2C" stroke-width="2" stroke-linecap="round" stroke-linejoin="round"/>
<path d="M7.14453 17.144V14.2868C7.14453 10.8769 8.49912 7.60664 10.9103 5.19546C13.3215 2.78428 16.5917 1.42969 20.0017 1.42969C23.4116 1.42969 26.6819 2.78428 29.093 5.19546C31.5042 7.60664 32.8588 10.8769 32.8588 14.2868V17.144" stroke="#2C2C2C" stroke-width="2" stroke-linecap="round" stroke-linejoin="round"/>
<path d="M15.7148 11.4297V15.7154" stroke="#2C2C2C" stroke-width="2" stroke-linecap="round" stroke-linejoin="round"/>
<path d="M24.2852 11.4297V15.7154" stroke="#2C2C2C" stroke-width="2" stroke-linecap="round" stroke-linejoin="round"/>
<path d="M15.7148 21.4297C15.7148 25.2297 24.2863 25.2297 24.2863 21.4297" stroke="#2C2C2C" stroke-width="2" stroke-linecap="round" stroke-linejoin="round"/>
</g>
<defs>
<clipPath id="clip0_367_2108">
<rect width="40" height="40" fill="white"/>
</clipPath>
</defs>
</svg>
