<svg width="24" height="24" viewBox="0 0 24 24" fill="none" xmlns="http://www.w3.org/2000/svg">
<path d="M12.0006 21.4621C17.6812 21.4621 22.2863 16.857 22.2863 11.1763C22.2863 5.4957 17.6812 0.890625 12.0006 0.890625C6.31991 0.890625 1.71484 5.4957 1.71484 11.1763C1.71484 16.857 6.31991 21.4621 12.0006 21.4621Z" stroke="white" stroke-linecap="round" stroke-linejoin="round"/>
<path d="M17.2656 20.0234C18.8825 20.7441 20.3307 21.7952 21.5171 23.1092" stroke="white" stroke-linecap="round" stroke-linejoin="round"/>
<path d="M2.48438 23.1092C3.67069 21.7952 5.11888 20.7441 6.7358 20.0234" stroke="white" stroke-linecap="round" stroke-linejoin="round"/>
<path d="M12.0022 16.3209C14.8426 16.3209 17.1451 14.0183 17.1451 11.178C17.1451 8.33769 14.8426 6.03516 12.0022 6.03516C9.16191 6.03516 6.85938 8.33769 6.85938 11.178C6.85938 14.0183 9.16191 16.3209 12.0022 16.3209Z" stroke="white" stroke-linecap="round" stroke-linejoin="round"/>
<path d="M12.0017 12.0346C12.4751 12.0346 12.8588 11.6508 12.8588 11.1775C12.8588 10.7041 12.4751 10.3203 12.0017 10.3203C11.5283 10.3203 11.1445 10.7041 11.1445 11.1775C11.1445 11.6508 11.5283 12.0346 12.0017 12.0346Z" stroke="white" stroke-linecap="round" stroke-linejoin="round"/>
</svg>
