<svg width="33" height="33" viewBox="0 0 33 33" fill="none" xmlns="http://www.w3.org/2000/svg">
<path d="M6.78876 31.4994C9.97502 31.4994 12.558 28.9164 12.558 25.7302C12.558 22.5439 9.97502 19.9609 6.78876 19.9609C3.6025 19.9609 1.01953 22.5439 1.01953 25.7302C1.01953 28.9164 3.6025 31.4994 6.78876 31.4994Z" stroke="#2C2C2C" stroke-width="2" stroke-linecap="round" stroke-linejoin="round"/>
<path d="M12.5598 7.26961V3.80807C12.5598 3.19604 12.3167 2.60907 11.8839 2.17629C11.4511 1.74351 10.8641 1.50038 10.2521 1.50038H7.52903C6.98589 1.4905 6.45667 1.67255 6.03455 2.01447C5.61243 2.35639 5.32446 2.83626 5.22133 3.36961L1.13672 24.5773" stroke="#2C2C2C" stroke-width="2" stroke-linecap="round" stroke-linejoin="round"/>
<path d="M10.25 13.0391H21.7885" stroke="#2C2C2C" stroke-width="2" stroke-linecap="round" stroke-linejoin="round"/>
<path d="M12.5586 18.8086V25.7317" stroke="#2C2C2C" stroke-width="2" stroke-linecap="round" stroke-linejoin="round"/>
<path d="M25.2497 31.4994C28.436 31.4994 31.0189 28.9164 31.0189 25.7302C31.0189 22.5439 28.436 19.9609 25.2497 19.9609C22.0634 19.9609 19.4805 22.5439 19.4805 25.7302C19.4805 28.9164 22.0634 31.4994 25.2497 31.4994Z" stroke="#2C2C2C" stroke-width="2" stroke-linecap="round" stroke-linejoin="round"/>
<path d="M19.4805 7.26961V3.80807C19.4805 3.19604 19.7236 2.60907 20.1564 2.17629C20.5892 1.74351 21.1761 1.50038 21.7882 1.50038H24.5112C25.0544 1.4905 25.5836 1.67255 26.0057 2.01447C26.4278 2.35639 26.7158 2.83626 26.8189 3.36961L30.9497 24.5773" stroke="#2C2C2C" stroke-width="2" stroke-linecap="round" stroke-linejoin="round"/>
<path d="M19.4805 18.8086V25.7317" stroke="#2C2C2C" stroke-width="2" stroke-linecap="round" stroke-linejoin="round"/>
</svg>
