<svg width="40" height="41" viewBox="0 0 40 41" fill="none" xmlns="http://www.w3.org/2000/svg">
<path d="M12.8583 37.5017C19.1701 37.5017 24.2868 32.3849 24.2868 26.0731C24.2868 19.7613 19.1701 14.6445 12.8583 14.6445C6.54643 14.6445 1.42969 19.7613 1.42969 26.0731C1.42969 32.3849 6.54643 37.5017 12.8583 37.5017Z" stroke="#2C2C2C" stroke-width="2" stroke-linecap="round" stroke-linejoin="round"/>
<path d="M27.1434 37.5017C33.4552 37.5017 38.572 32.3849 38.572 26.0731C38.572 19.7613 33.4552 14.6445 27.1434 14.6445C20.8316 14.6445 15.7148 19.7613 15.7148 26.0731C15.7148 32.3849 20.8316 37.5017 27.1434 37.5017Z" stroke="#2C2C2C" stroke-width="2" stroke-linecap="round" stroke-linejoin="round"/>
<path d="M20.0028 26.072C26.3146 26.072 31.4314 20.9552 31.4314 14.6434C31.4314 8.33159 26.3146 3.21484 20.0028 3.21484C13.691 3.21484 8.57422 8.33159 8.57422 14.6434C8.57422 20.9552 13.691 26.072 20.0028 26.072Z" stroke="#2C2C2C" stroke-width="2" stroke-linecap="round" stroke-linejoin="round"/>
</svg>
