<svg width="30" height="30" viewBox="0 0 30 30" fill="none" xmlns="http://www.w3.org/2000/svg">
<mask id="path-1-inside-1_242_832" fill="white">
<path d="M22.6348 22.5H4.55273C2.56055 22.5 0.9375 20.877 0.9375 18.8848V11.1152C0.9375 9.12305 2.56055 7.5 4.55273 7.5H22.6348C24.627 7.5 26.25 9.12305 26.25 11.1152V18.8848C26.25 20.877 24.627 22.5 22.6348 22.5ZM4.55273 9.375C3.5918 9.375 2.8125 10.1543 2.8125 11.1152V18.8848C2.8125 19.8457 3.5918 20.625 4.55273 20.625H22.6348C23.5957 20.625 24.375 19.8457 24.375 18.8848V11.1152C24.375 10.1543 23.5957 9.375 22.6348 9.375H4.55273Z"/>
</mask>
<path d="M22.6348 22.5V20.5H4.55273V22.5V24.5H22.6348V22.5ZM4.55273 22.5V20.5C3.66512 20.5 2.9375 19.7724 2.9375 18.8848H0.9375H-1.0625C-1.0625 21.9815 1.45598 24.5 4.55273 24.5V22.5ZM0.9375 18.8848H2.9375V11.1152H0.9375H-1.0625V18.8848H0.9375ZM0.9375 11.1152H2.9375C2.9375 10.2276 3.66512 9.5 4.55273 9.5V7.5V5.5C1.45598 5.5 -1.0625 8.01848 -1.0625 11.1152H0.9375ZM4.55273 7.5V9.5H22.6348V7.5V5.5H4.55273V7.5ZM22.6348 7.5V9.5C23.5224 9.5 24.25 10.2276 24.25 11.1152H26.25H28.25C28.25 8.01848 25.7315 5.5 22.6348 5.5V7.5ZM26.25 11.1152H24.25V18.8848H26.25H28.25V11.1152H26.25ZM26.25 18.8848H24.25C24.25 19.7724 23.5224 20.5 22.6348 20.5V22.5V24.5C25.7315 24.5 28.25 21.9815 28.25 18.8848H26.25ZM4.55273 9.375V7.375C2.48723 7.375 0.8125 9.04973 0.8125 11.1152H2.8125H4.8125C4.8125 11.2589 4.69637 11.375 4.55273 11.375V9.375ZM2.8125 11.1152H0.8125V18.8848H2.8125H4.8125V11.1152H2.8125ZM2.8125 18.8848H0.8125C0.8125 20.9503 2.48723 22.625 4.55273 22.625V20.625V18.625C4.69637 18.625 4.8125 18.7411 4.8125 18.8848H2.8125ZM4.55273 20.625V22.625H22.6348V20.625V18.625H4.55273V20.625ZM22.6348 20.625V22.625C24.7003 22.625 26.375 20.9503 26.375 18.8848H24.375H22.375C22.375 18.7411 22.4911 18.625 22.6348 18.625V20.625ZM24.375 18.8848H26.375V11.1152H24.375H22.375V18.8848H24.375ZM24.375 11.1152H26.375C26.375 9.04973 24.7003 7.375 22.6348 7.375V9.375V11.375C22.4911 11.375 22.375 11.2589 22.375 11.1152H24.375ZM22.6348 9.375V7.375H4.55273V9.375V11.375H22.6348V9.375Z" fill="white" mask="url(#path-1-inside-1_242_832)"/>
<path d="M5.25781 11.6562H21.9336C22.0625 11.6562 22.168 11.7617 22.168 11.8906V18.1074C22.168 18.2363 22.0625 18.3418 21.9336 18.3418H5.25781C5.12891 18.3418 5.02344 18.2363 5.02344 18.1074V11.8906C5.02344 11.7617 5.12891 11.6562 5.25781 11.6562Z" fill="white"/>
<path d="M21.9336 19.2852H5.25781C4.61328 19.2852 4.08594 18.7578 4.08594 18.1133V11.8906C4.08594 11.2461 4.61328 10.7188 5.25781 10.7188H21.9336C22.5781 10.7188 23.1055 11.2461 23.1055 11.8906V18.1074C23.1055 18.7578 22.5781 19.2852 21.9336 19.2852ZM5.96094 17.4102H21.2305V12.5996H5.96094V17.4102Z" fill="white"/>
<path d="M28.125 18.123C27.6094 18.123 27.1875 17.7012 27.1875 17.1855V12.8086C27.1875 12.293 27.6094 11.8711 28.125 11.8711C28.6406 11.8711 29.0625 12.293 29.0625 12.8086V17.1855C29.0625 17.707 28.6406 18.123 28.125 18.123Z" fill="white"/>
</svg>
