<svg width="40" height="40" viewBox="0 0 40 40" fill="none" xmlns="http://www.w3.org/2000/svg">
<g clip-path="url(#clip0_498_2)">
<path d="M21.3431 19.7126C20.9193 19.8966 20.4622 19.9915 20.0002 19.9915C19.5382 19.9915 19.0811 19.8966 18.6574 19.7126L2.37164 12.1697C2.10719 12.0363 1.88495 11.8322 1.72968 11.5799C1.5744 11.3277 1.49219 11.0373 1.49219 10.7411C1.49219 10.445 1.5744 10.1546 1.72968 9.90235C1.88495 9.65013 2.10719 9.44595 2.37164 9.31257L18.6574 1.71257C19.0811 1.52855 19.5382 1.43359 20.0002 1.43359C20.4622 1.43359 20.9193 1.52855 21.3431 1.71257L37.6288 9.25543C37.8932 9.38881 38.1155 9.59298 38.2708 9.84521C38.426 10.0974 38.5082 10.3878 38.5082 10.684C38.5082 10.9802 38.426 11.2706 38.2708 11.5228C38.1155 11.775 37.8932 11.9792 37.6288 12.1126L21.3431 19.7126Z" stroke="#2C2C2C" stroke-width="2" stroke-linecap="round" stroke-linejoin="round"/>
<path d="M38.5725 21L21.144 29.0286C20.7717 29.1984 20.3674 29.2862 19.9583 29.2862C19.5491 29.2862 19.1448 29.1984 18.7725 29.0286L1.42969 21" stroke="#2C2C2C" stroke-width="2" stroke-linecap="round" stroke-linejoin="round"/>
<path d="M38.5725 30.2852L21.144 38.3137C20.7717 38.4835 20.3674 38.5714 19.9583 38.5714C19.5491 38.5714 19.1448 38.4835 18.7725 38.3137L1.42969 30.2852" stroke="#2C2C2C" stroke-width="2" stroke-linecap="round" stroke-linejoin="round"/>
</g>
<defs>
<clipPath id="clip0_498_2">
<rect width="40" height="40" fill="white"/>
</clipPath>
</defs>
</svg>
