<?xml version="1.0" encoding="UTF-8" standalone="no"?>
<!-- Created with Inkscape (http://www.inkscape.org/) -->

<svg
   width="68.889885mm"
   height="10.13788mm"
   viewBox="0 0 68.889884 10.13788"
   version="1.1"
   id="svg1"
   xml:space="preserve"
   inkscape:version="1.4.2 (ebf0e940d0, 2025-05-08)"
   sodipodi:docname="logo.svg"
   xmlns:inkscape="http://www.inkscape.org/namespaces/inkscape"
   xmlns:sodipodi="http://sodipodi.sourceforge.net/DTD/sodipodi-0.dtd"
   xmlns="http://www.w3.org/2000/svg"
   xmlns:svg="http://www.w3.org/2000/svg"><sodipodi:namedview
     id="namedview1"
     pagecolor="#505050"
     bordercolor="#ffffff"
     borderopacity="1"
     inkscape:showpageshadow="0"
     inkscape:pageopacity="0"
     inkscape:pagecheckerboard="1"
     inkscape:deskcolor="#505050"
     inkscape:document-units="px"
     inkscape:zoom="0.73228114"
     inkscape:cx="152.26392"
     inkscape:cy="19.11834"
     inkscape:window-width="1600"
     inkscape:window-height="863"
     inkscape:window-x="0"
     inkscape:window-y="103"
     inkscape:window-maximized="1"
     inkscape:current-layer="layer1" /><defs
     id="defs1"><rect
       x="-10.924766"
       y="447.91541"
       width="931.3363"
       height="184.35542"
       id="rect1" /><rect
       x="-10.924766"
       y="447.91541"
       width="931.3363"
       height="184.35542"
       id="rect2" /><rect
       x="-10.924766"
       y="447.91541"
       width="931.3363"
       height="184.35542"
       id="rect3" /><clipPath
       clipPathUnits="userSpaceOnUse"
       id="clipPath18"><rect
         style="fill:#ffffff;stroke-width:0.399841"
         id="rect18"
         width="273.05182"
         height="12.286905"
         x="692.4762"
         y="460.93973" /></clipPath><clipPath
       clipPathUnits="userSpaceOnUse"
       id="clipPath20"><rect
         style="fill:#0039a6;fill-opacity:1;stroke-width:0.399841"
         id="rect21"
         width="273.05182"
         height="12.286905"
         x="692.4762"
         y="473.22665" /></clipPath><clipPath
       clipPathUnits="userSpaceOnUse"
       id="clipPath21"><rect
         style="fill:#d52b1e;fill-opacity:1;stroke-width:0.399841"
         id="rect22"
         width="273.05182"
         height="12.286905"
         x="692.4762"
         y="485.51352" /></clipPath></defs><g
     inkscape:label="Layer 1"
     inkscape:groupmode="layer"
     id="layer1"
     transform="translate(-34.710387,-142.10859)"><text
       xml:space="preserve"
       style="font-style:normal;font-variant:normal;font-weight:normal;font-stretch:normal;font-size:13.6955px;line-height:1.1;font-family:Eremitage;-inkscape-font-specification:'Eremitage, Normal';font-variant-ligatures:normal;font-variant-caps:normal;font-variant-numeric:normal;font-variant-east-asian:normal;text-align:end;letter-spacing:0px;word-spacing:1.1413px;writing-mode:lr-tb;direction:ltr;text-anchor:end;opacity:1;fill:#ffffff;fill-opacity:1;stroke-width:0.228259"
       x="104.62214"
       y="192.3233"
       id="text24"><tspan
         sodipodi:role="line"
         id="tspan24"
         style="font-style:normal;font-variant:normal;font-weight:normal;font-stretch:normal;font-size:13.6955px;font-family:Eremitage;-inkscape-font-specification:'Eremitage, Normal';font-variant-ligatures:normal;font-variant-caps:normal;font-variant-numeric:normal;font-variant-east-asian:normal;fill:#ffffff;stroke-width:0.228259"
         x="104.62214"
         y="192.3233">Ruso Язык</tspan></text><path
       d="m 34.710387,152.0726 v -9.96401 h 3.985605 q 1.123459,0 1.939304,0.40124 0.822533,0.39454 1.263891,1.13014 0.448047,0.72891 0.448047,1.73869 0,0.98302 -0.468108,1.70525 -0.468108,0.72222 -1.31739,1.11677 -0.842594,0.38786 -1.986115,0.38786 H 35.94753 v -1.65175 h 2.628091 q 0.541668,0 0.936216,-0.19393 0.394548,-0.19393 0.60854,-0.54167 0.213993,-0.35442 0.213993,-0.82253 0,-0.48148 -0.213993,-0.82253 -0.213992,-0.34774 -0.60854,-0.54167 -0.394548,-0.19393 -0.942903,-0.19393 h -1.798872 v 8.25207 z m 5.650732,0 -2.280355,-4.50052 h 2.159984 l 2.327165,4.50052 z m 5.690854,0.14712 q -0.748972,0 -1.310702,-0.32099 -0.555042,-0.32767 -0.862656,-0.94959 -0.307614,-0.6286 -0.307614,-1.518 v -4.42028 h 1.972741 v 4.05916 q 0,0.70885 0.34105,1.08334 0.34105,0.3678 0.956278,0.3678 0.407922,0 0.715536,-0.16718 0.314301,-0.16718 0.48817,-0.52161 0.180556,-0.35442 0.180556,-0.89609 v -3.92542 h 1.966053 v 7.06174 h -1.932617 v -1.83899 h 0.334363 q -0.334363,0.93621 -0.956278,1.4645 -0.615228,0.52161 -1.58488,0.52161 z m 8.472754,0.0267 q -0.916154,0 -1.63169,-0.28086 -0.715536,-0.28756 -1.143521,-0.82254 -0.427984,-0.53498 -0.494857,-1.29064 h 1.939304 q 0.0535,0.46142 0.387861,0.72223 0.334363,0.2608 0.909467,0.2608 0.548355,0 0.855969,-0.20731 0.314301,-0.2073 0.314301,-0.53498 0,-0.28086 -0.240741,-0.45473 -0.234054,-0.17387 -0.668726,-0.25412 l -1.237142,-0.24074 q -1.029838,-0.20061 -1.564818,-0.72222 -0.534981,-0.52161 -0.534981,-1.33745 0,-0.66873 0.361112,-1.17027 0.367799,-0.50155 1.036525,-0.77572 0.675413,-0.27418 1.598254,-0.27418 0.916154,0 1.598254,0.29424 0.6821,0.28755 1.063274,0.82253 0.387861,0.53498 0.407923,1.27058 h -1.825621 q -0.0067,-0.42798 -0.334363,-0.70885 -0.327676,-0.28086 -0.855969,-0.28086 -0.508231,0 -0.795783,0.22068 -0.287552,0.21399 -0.287552,0.52829 0,0.27418 0.227366,0.44804 0.227367,0.17387 0.628602,0.26081 l 1.337452,0.2608 q 1.069961,0.20731 1.571505,0.6821 0.508231,0.46811 0.508231,1.25052 0,0.70216 -0.401235,1.23045 -0.394548,0.52161 -1.103397,0.81585 -0.702162,0.28755 -1.625004,0.28755 z m 7.462978,-0.0134 q -1.063274,0 -1.872432,-0.46143 -0.809158,-0.46142 -1.263891,-1.29064 -0.448047,-0.82922 -0.448047,-1.93261 0,-1.11009 0.448047,-1.93931 0.454733,-0.82922 1.263891,-1.29064 0.809158,-0.46811 1.872432,-0.46811 1.076648,0 1.879119,0.46811 0.809158,0.46142 1.257204,1.29064 0.454733,0.82922 0.454733,1.93931 0,1.10339 -0.454733,1.93261 -0.448046,0.82922 -1.257204,1.29064 -0.802471,0.46143 -1.879119,0.46143 z m 0,-1.59826 q 0.481482,0 0.842594,-0.24743 0.361112,-0.25411 0.561729,-0.72222 0.200618,-0.46811 0.200618,-1.11677 0,-0.66204 -0.200618,-1.13015 -0.200617,-0.46811 -0.561729,-0.71554 -0.361112,-0.25411 -0.842594,-0.25411 -0.474795,0 -0.835907,0.25411 -0.361112,0.24743 -0.56173,0.71554 -0.200617,0.46811 -0.200617,1.13015 0,0.65535 0.200617,1.12346 0.200618,0.46142 0.56173,0.71553 0.361112,0.24743 0.835907,0.24743 z m 16.214373,1.43776 H 76.14909 v -8.25207 h -1.798872 q -0.541668,0 -0.942903,0.19393 -0.394548,0.19393 -0.60854,0.54167 -0.213993,0.34105 -0.213993,0.82253 0,0.46811 0.213993,0.82253 0.213992,0.34774 0.60854,0.54167 0.394548,0.19393 0.936216,0.19393 h 2.628091 v 1.65175 h -2.628091 q -1.143521,0 -1.992802,-0.38786 -0.849282,-0.39455 -1.31739,-1.11677 -0.461421,-0.72223 -0.461421,-1.70525 0,-1.00978 0.441359,-1.73869 0.448046,-0.7356 1.263892,-1.13014 0.822532,-0.40124 1.939304,-0.40124 h 3.985605 z m -5.644045,0 h -2.206794 l 2.320478,-4.50052 h 2.166671 z m 9.776769,0.107 q -0.956278,0 -1.631691,-0.32099 -0.675413,-0.32768 -1.029837,-0.86934 -0.354425,-0.54836 -0.361112,-1.20371 h 1.905868 q 0.0067,0.39455 0.307614,0.6286 0.307613,0.23406 0.795783,0.23406 0.481483,0 0.782409,-0.214 0.307614,-0.22068 0.307614,-0.56841 0,-0.35443 -0.327676,-0.58179 -0.327675,-0.22737 -0.882717,-0.22737 H 81.625953 V 147.873 h 0.575104 q 0.488169,0 0.789096,-0.21399 0.307614,-0.21399 0.307614,-0.56841 0,-0.33437 -0.267491,-0.54167 -0.260803,-0.20731 -0.688787,-0.20731 -0.441359,0 -0.735598,0.20731 -0.29424,0.2073 -0.300927,0.56841 h -1.85237 q 0.0067,-0.64866 0.367799,-1.15689 0.361112,-0.51492 1.016463,-0.80247 0.655351,-0.29424 1.51132,-0.29424 0.82922,0 1.457822,0.26749 0.628602,0.2608 0.983027,0.71554 0.354424,0.45473 0.354424,1.04321 0,0.60854 -0.41461,1.00309 -0.41461,0.39454 -1.069961,0.48148 v 0.0134 q 0.855969,0.0869 1.297328,0.54836 0.448046,0.46142 0.448046,1.11008 0,0.61523 -0.387861,1.1034 -0.387861,0.48148 -1.083335,0.75566 -0.695475,0.27418 -1.598254,0.27418 z m 5.376556,-4.90176 h 2.133235 q 0.889405,0 1.531381,0.29424 0.648664,0.28755 0.996401,0.82253 0.347738,0.53498 0.347738,1.27058 0,0.7356 -0.347738,1.27727 -0.347737,0.54166 -0.996401,0.8359 -0.641976,0.29424 -1.531381,0.29424 h -3.423875 v -7.06174 h 1.97274 v 5.48355 h 1.384262 q 0.48817,0 0.762347,-0.22068 0.280865,-0.22737 0.280865,-0.62192 0,-0.38786 -0.280865,-0.60185 -0.274177,-0.22068 -0.762347,-0.22068 h -2.066362 z m 5.48355,4.79476 v -7.06174 h 1.97274 v 7.06174 z m 3.363688,0 v -7.06174 h 1.97274 v 2.77521 h 0.548355 l 2.166669,-2.77521 h 2.32717 l -2.6749,3.44394 2.70165,3.6178 h -2.34723 l -1.966054,-2.64146 h -0.75566 v 2.64146 z"
       id="text25"
       style="font-size:13.6955px;line-height:1.1;font-family:'Adwaita Sans';-inkscape-font-specification:'Adwaita Sans, @opsz=32,wght=700';font-variation-settings:'opsz' 32, 'wght' 700;text-align:end;letter-spacing:0px;word-spacing:1.1413px;text-anchor:end;fill:#ffffff;stroke-width:0.228259"
       aria-label="Ruso Язык" /><text
       xml:space="preserve"
       style="font-style:normal;font-variant:normal;font-weight:normal;font-stretch:normal;font-size:13.6955px;line-height:1.1;font-family:'Adwaita Sans';-inkscape-font-specification:'Adwaita Sans, @opsz=32,wght=700';font-variant-ligatures:normal;font-variant-caps:normal;font-variant-numeric:normal;font-variant-east-asian:normal;font-variation-settings:'opsz' 32, 'wght' 700;text-align:end;letter-spacing:0px;word-spacing:1.1413px;writing-mode:lr-tb;direction:ltr;text-anchor:end;opacity:1;fill:#ffffff;fill-opacity:1;stroke-width:0.228259"
       x="103.51334"
       y="120.99961"
       id="text26"><tspan
         sodipodi:role="line"
         id="tspan26"
         style="font-style:normal;font-variant:normal;font-weight:normal;font-stretch:normal;font-size:13.6955px;font-family:'Adwaita Sans';-inkscape-font-specification:'Adwaita Sans, @opsz=32,wght=700';font-variant-ligatures:normal;font-variant-caps:normal;font-variant-numeric:normal;font-variant-east-asian:normal;font-variation-settings:'opsz' 32, 'wght' 700;fill:#ffffff;stroke-width:0.228259"
         x="103.51334"
         y="120.99961">Ruso Язык</tspan></text></g></svg>
