<svg width="40" height="41" viewBox="0 0 40 41" fill="none" xmlns="http://www.w3.org/2000/svg">
<g clip-path="url(#clip0_242_584)">
<path d="M14.9433 6.78906L16.1719 3.61763C16.3791 3.08067 16.7436 2.61881 17.2178 2.29253C17.6919 1.96625 18.2535 1.79076 18.829 1.78906H21.1719C21.7474 1.79076 22.3091 1.96625 22.7832 2.29253C23.2573 2.61881 23.6218 3.08067 23.829 3.61763L25.0576 6.78906L29.229 9.18906L32.6005 8.67478C33.1618 8.59858 33.7332 8.69099 34.2419 8.94027C34.7507 9.18955 35.1738 9.58445 35.4576 10.0748L36.6005 12.0748C36.8933 12.5729 37.0282 13.1481 36.9874 13.7246C36.9466 14.301 36.732 14.8514 36.3719 15.3033L34.2862 17.9605V22.7605L36.429 25.4176C36.7892 25.8695 37.0038 26.42 37.0446 26.9964C37.0854 27.5728 36.9505 28.1481 36.6576 28.6462L35.5148 30.6462C35.231 31.1365 34.8078 31.5314 34.2991 31.7807C33.7904 32.03 33.219 32.1224 32.6576 32.0462L29.2862 31.5319L25.1148 33.9319L23.8862 37.1033C23.679 37.6403 23.3145 38.1022 22.8403 38.4285C22.3662 38.7547 21.8046 38.9302 21.229 38.9319H18.829C18.2535 38.9302 17.6919 38.7547 17.2178 38.4285C16.7436 38.1022 16.3791 37.6403 16.1719 37.1033L14.9433 33.9319L10.7719 31.5319L7.40047 32.0462C6.83909 32.1224 6.26773 32.03 5.75899 31.7807C5.25025 31.5314 4.82711 31.1365 4.54333 30.6462L3.40047 28.6462C3.10762 28.1481 2.97269 27.5728 3.0135 26.9964C3.0543 26.42 3.26893 25.8695 3.62904 25.4176L5.71475 22.7605V17.9605L3.5719 15.3033C3.21178 14.8514 2.99716 14.301 2.95635 13.7246C2.91555 13.1481 3.05047 12.5729 3.34333 12.0748L4.48618 10.0748C4.76996 9.58445 5.19311 9.18955 5.70185 8.94027C6.21058 8.69099 6.78195 8.59858 7.34333 8.67478L10.7148 9.18906L14.9433 6.78906ZM14.2862 20.3605C14.2862 21.4907 14.6213 22.5955 15.2492 23.5352C15.8771 24.4749 16.7696 25.2073 17.8137 25.6398C18.8579 26.0723 20.0068 26.1855 21.1153 25.965C22.2237 25.7445 23.2419 25.2003 24.0411 24.4011C24.8402 23.6019 25.3845 22.5838 25.605 21.4753C25.8254 20.3668 25.7123 19.2179 25.2798 18.1737C24.8473 17.1296 24.1149 16.2371 23.1752 15.6092C22.2354 14.9813 21.1306 14.6462 20.0005 14.6462C18.4849 14.6462 17.0315 15.2482 15.9599 16.3199C14.8882 17.3915 14.2862 18.845 14.2862 20.3605V20.3605Z" stroke="#2C2C2C" stroke-width="2" stroke-linecap="round" stroke-linejoin="round"/>
</g>
<defs>
<clipPath id="clip0_242_584">
<rect width="40" height="40" fill="white" transform="translate(0 0.359375)"/>
</clipPath>
</defs>
</svg>
