<svg width="40" height="40" viewBox="0 0 40 40" fill="none" xmlns="http://www.w3.org/2000/svg">
<g clip-path="url(#clip0_360_921)">
<path d="M9.28683 17.144C13.6262 17.144 17.144 13.6262 17.144 9.28683C17.144 4.94745 13.6262 1.42969 9.28683 1.42969C4.94745 1.42969 1.42969 4.94745 1.42969 9.28683C1.42969 13.6262 4.94745 17.144 9.28683 17.144Z" stroke="#2C2C2C" stroke-width="2" stroke-linecap="round" stroke-linejoin="round"/>
<path d="M30.7165 17.144C35.0559 17.144 38.5737 13.6262 38.5737 9.28683C38.5737 4.94745 35.0559 1.42969 30.7165 1.42969C26.3771 1.42969 22.8594 4.94745 22.8594 9.28683C22.8594 13.6262 26.3771 17.144 30.7165 17.144Z" stroke="#2C2C2C" stroke-width="2" stroke-linecap="round" stroke-linejoin="round"/>
<path d="M9.28683 38.5737C13.6262 38.5737 17.144 35.0559 17.144 30.7165C17.144 26.3771 13.6262 22.8594 9.28683 22.8594C4.94745 22.8594 1.42969 26.3771 1.42969 30.7165C1.42969 35.0559 4.94745 38.5737 9.28683 38.5737Z" stroke="#2C2C2C" stroke-width="2" stroke-linecap="round" stroke-linejoin="round"/>
<path d="M30.7165 38.5737C35.0559 38.5737 38.5737 35.0559 38.5737 30.7165C38.5737 26.3771 35.0559 22.8594 30.7165 22.8594C26.3771 22.8594 22.8594 26.3771 22.8594 30.7165C22.8594 35.0559 26.3771 38.5737 30.7165 38.5737Z" stroke="#2C2C2C" stroke-width="2" stroke-linecap="round" stroke-linejoin="round"/>
</g>
<defs>
<clipPath id="clip0_360_921">
<rect width="40" height="40" fill="white"/>
</clipPath>
</defs>
</svg>
