<?xml version="1.0" encoding="UTF-8" standalone="no"?>
<!-- Created with Inkscape (http://www.inkscape.org/) -->

<svg
   width="13.229mm"
   height="13.229mm"
   viewBox="0 0 13.229 13.229"
   version="1.1"
   id="svg1"
   xml:space="preserve"
   inkscape:version="1.4.2 (ebf0e940d0, 2025-05-08)"
   sodipodi:docname="loader.svg"
   xmlns:inkscape="http://www.inkscape.org/namespaces/inkscape"
   xmlns:sodipodi="http://sodipodi.sourceforge.net/DTD/sodipodi-0.dtd"
   xmlns="http://www.w3.org/2000/svg"
   xmlns:svg="http://www.w3.org/2000/svg"><sodipodi:namedview
     id="namedview1"
     pagecolor="#505050"
     bordercolor="#eeeeee"
     borderopacity="1"
     inkscape:showpageshadow="0"
     inkscape:pageopacity="0"
     inkscape:pagecheckerboard="0"
     inkscape:deskcolor="#505050"
     inkscape:document-units="mm"
     inkscape:zoom="6.5714109"
     inkscape:cx="30.206603"
     inkscape:cy="24.195717"
     inkscape:window-width="1600"
     inkscape:window-height="863"
     inkscape:window-x="0"
     inkscape:window-y="103"
     inkscape:window-maximized="1"
     inkscape:current-layer="layer1" /><defs
     id="defs1" /><g
     inkscape:label="Layer 1"
     inkscape:groupmode="layer"
     id="layer1"
     transform="translate(-25.509208,-92.539813)"><rect
       style="font-variation-settings:'opsz' 32, 'wght' 700;opacity:1;fill:#1a1a1a;stroke:none;stroke-width:0.190904"
       id="rect1"
       width="13.229"
       height="13.229"
       x="25.509209"
       y="92.53981"
       inkscape:export-filename="favicon.png"
       inkscape:export-xdpi="96.001205"
       inkscape:export-ydpi="96.001205" /><path
       style="fill:#ffffff;stroke-width:2;stroke:none;stroke-opacity:1;stroke-dasharray:none"
       d="m 31.613567,104.98903 c -0.592962,-0.0555 -1.109144,-0.17716 -1.643219,-0.3871 -1.31786,-0.51804 -2.402929,-1.49253 -3.0525,-2.74143 -0.767973,-1.47652 -0.8609,-3.266053 -0.249806,-4.810331 0.53528,-1.352653 1.564347,-2.486803 2.83281,-3.122075 0.588537,-0.294751 1.154268,-0.474542 1.784536,-0.567127 0.469962,-0.06904 1.104405,-0.07399 1.586188,-0.01239 1.052773,0.134606 2.070638,0.569471 2.895209,1.23692 0.501585,0.406007 0.950129,0.906753 1.293091,1.443569 0.765434,1.198082 1.063162,2.599676 0.855293,4.026394 -0.211405,1.451 -0.997889,2.79605 -2.16644,3.70508 -0.387348,0.30132 -0.782309,0.53958 -1.215921,0.73352 -0.570036,0.25494 -1.126116,0.40625 -1.781618,0.48475 -0.226187,0.0271 -0.893521,0.0331 -1.137623,0.01 z m 1.048415,-0.1442 c 2.021144,-0.19204 3.809356,-1.44803 4.650302,-3.26625 0.348568,-0.75365 0.521398,-1.54258 0.522613,-2.385597 7.7e-4,-0.532536 -0.05357,-0.96554 -0.183675,-1.462651 -0.417659,-1.596257 -1.54551,-2.977091 -3.028078,-3.707277 -1.402025,-0.690518 -3.048086,-0.767472 -4.514365,-0.211048 -1.003214,0.3807 -1.904651,1.065702 -2.559926,1.945271 -0.556958,0.74761 -0.932507,1.635356 -1.069258,2.527587 -0.08871,0.578853 -0.08838,1.233131 9.22e-4,1.792935 0.270909,1.69824 1.288644,3.17224 2.781796,4.02893 0.72326,0.41498 1.543254,0.67135 2.375329,0.74267 0.210711,0.018 0.814507,0.0154 1.02434,-0.004 z m -0.654375,-1.52072 c -0.0087,-0.005 -0.0206,-0.0282 -0.02711,-0.0509 -0.0076,-0.0266 -0.01182,-1.47903 -0.01182,-4.095732 v -4.05453 l 0.0295,-0.02955 c 0.02635,-0.02634 0.0398,-0.02955 0.123726,-0.02955 0.06572,0 0.102265,0.0056 0.120928,0.01874 l 0.02679,0.01874 v 4.097497 c 0,3.708945 -0.0022,4.099295 -0.01887,4.116415 -0.01432,0.0143 -0.04425,0.0189 -0.12339,0.0188 -0.05748,-1e-4 -0.111353,-0.004 -0.119746,-0.01 z m -0.544519,-1.25085 c -0.0488,-0.019 -0.04739,0.0669 -0.04772,-2.86991 -3.58e-4,-2.705357 5.42e-4,-2.825793 0.02136,-2.851494 0.01985,-0.02457 0.03123,-0.02669 0.134647,-0.02503 0.06214,9.91e-4 0.12005,0.0077 0.128758,0.01493 0.01301,0.01074 0.01583,0.522128 0.01583,2.858034 v 2.84491 l -0.02679,0.0188 c -0.02679,0.0188 -0.185302,0.0257 -0.226056,0.01 z m 1.094731,-0.0133 -0.02755,-0.0222 -0.0022,-2.825209 c -0.0011,-2.03688 0.0022,-2.832652 0.0115,-2.851879 0.01215,-0.02447 0.02321,-0.02696 0.133324,-0.03019 0.110626,-0.0033 0.121709,-0.0015 0.141121,0.02241 0.01995,0.02452 0.02104,0.178211 0.02104,2.848117 v 2.822191 l -0.02961,0.0296 c -0.02635,0.0264 -0.03969,0.0295 -0.125071,0.0295 -0.07505,0 -0.101397,-0.004 -0.123022,-0.0222 z M 30.8811,101.01284 c -0.01833,-0.0203 -0.01995,-0.16364 -0.01995,-1.816918 0,-1.615688 0.0022,-1.796802 0.01887,-1.81383 0.02722,-0.02721 0.235914,-0.02721 0.263123,0 0.01703,0.01703 0.01887,0.198424 0.01887,1.81692 0,1.618508 -0.0022,1.799898 -0.01887,1.816928 -0.0295,0.0295 -0.23483,0.0271 -0.262115,-0.003 z m 2.227084,0 c -0.01833,-0.0203 -0.01996,-0.16364 -0.01996,-1.816918 0,-1.615688 0.0022,-1.796802 0.01887,-1.81383 0.0295,-0.02949 0.234829,-0.02706 0.262114,0.0031 0.01833,0.02028 0.01995,0.163636 0.01995,1.81692 0,1.615688 -0.0022,1.796798 -0.01887,1.813828 -0.0295,0.0295 -0.234829,0.0271 -0.262125,-0.003 z m -2.787859,-0.71996 c -0.02483,-0.0316 -0.02494,-0.0374 -0.02494,-1.101502 0,-1.251112 -0.01833,-1.118059 0.153484,-1.117755 0.05791,9.8e-5 0.111299,0.0043 0.118575,0.0087 0.03991,0.02657 0.04089,0.05596 0.04089,1.116366 0,1.060371 -0.0011,1.089761 -0.04089,1.116371 -0.0076,0.004 -0.0603,0.009 -0.117707,0.009 -0.09858,1.7e-4 -0.105844,-0.001 -0.129409,-0.0316 z m 3.346465,-2.4e-4 c -0.02516,-0.0319 -0.02516,-0.0327 -0.02191,-1.108496 0.0033,-1.248145 -0.01518,-1.110825 0.152963,-1.110521 0.05672,9.8e-5 0.108999,0.0043 0.116276,0.0087 0.03872,0.02592 0.0398,0.0591 0.03579,1.129586 -0.0022,0.588624 -0.0043,1.071181 -0.0054,1.072361 -0.02223,0.0332 -0.04717,0.04 -0.145882,0.04 -0.101072,0 -0.107904,-0.002 -0.131751,-0.032 z m -3.901102,-0.6783 c -0.0231,-0.0231 -0.02407,-0.04013 -0.02407,-0.413018 0,-0.316912 0.0033,-0.39328 0.01713,-0.412312 0.01486,-0.02028 0.0321,-0.02342 0.13057,-0.02342 0.07852,0 0.119627,0.0054 0.133388,0.01648 0.01779,0.01475 0.01995,0.0591 0.01995,0.416466 0,0.474658 0.01171,0.439782 -0.148419,0.439782 -0.08827,0 -0.108121,-0.0033 -0.128465,-0.02407 z m 4.462061,0.0022 c -0.01768,-0.01952 -0.01995,-0.06658 -0.01995,-0.420662 0,-0.470592 -0.01215,-0.436117 0.153159,-0.436117 0.157637,0 0.147801,-0.02928 0.147801,0.439392 0,0.470602 0.01095,0.439402 -0.154633,0.439402 -0.08784,0 -0.109965,-0.0043 -0.126405,-0.02202 z m -5.003782,-0.262624 c -0.03839,-0.01496 -0.04815,-0.04511 -0.04815,-0.148365 0,-0.14945 0.0076,-0.156867 0.150295,-0.156867 0.148626,0 0.150664,0.0022 0.150664,0.15588 0,0.0886 -0.0043,0.121666 -0.01746,0.132587 -0.01854,0.0154 -0.204758,0.02863 -0.235296,0.01681 z m 5.612632,-3.03e-4 c -0.06203,-0.0087 -0.0783,-0.04522 -0.0732,-0.164448 0.0054,-0.137456 0.0087,-0.140492 0.155522,-0.140492 0.148463,0 0.155707,0.0076 0.155707,0.151825 0,0.129658 -0.01334,0.146706 -0.120386,0.153603 -0.04305,0.0033 -0.09598,0.0022 -0.117599,-4.99e-4 z"
       id="path1" /></g></svg>
