<?xml version="1.0" encoding="UTF-8" standalone="no"?>
<!-- Created with Inkscape (http://www.inkscape.org/) -->

<svg
   width="59.388878mm"
   height="13.229mm"
   viewBox="0 0 59.388877 13.229"
   version="1.1"
   id="svg1"
   xml:space="preserve"
   inkscape:version="1.4.2 (ebf0e940d0, 2025-05-08)"
   sodipodi:docname="logo-white.svg"
   xmlns:inkscape="http://www.inkscape.org/namespaces/inkscape"
   xmlns:sodipodi="http://sodipodi.sourceforge.net/DTD/sodipodi-0.dtd"
   xmlns="http://www.w3.org/2000/svg"
   xmlns:svg="http://www.w3.org/2000/svg"><sodipodi:namedview
     id="namedview1"
     pagecolor="#505050"
     bordercolor="#eeeeee"
     borderopacity="1"
     inkscape:showpageshadow="0"
     inkscape:pageopacity="0"
     inkscape:pagecheckerboard="0"
     inkscape:deskcolor="#505050"
     inkscape:document-units="px"
     inkscape:zoom="2.3233446"
     inkscape:cx="136.65644"
     inkscape:cy="-28.837737"
     inkscape:window-width="1600"
     inkscape:window-height="863"
     inkscape:window-x="0"
     inkscape:window-y="103"
     inkscape:window-maximized="1"
     inkscape:current-layer="layer1" /><defs
     id="defs1" /><g
     inkscape:label="Layer 1"
     inkscape:groupmode="layer"
     id="layer1"
     transform="translate(-22.284283,-123.50655)"><path
       d="m 22.28427,134.34106 v -8.58982 h 3.435928 q 0.968516,0 1.671844,0.3459 0.709093,0.34013 1.089581,0.97428 0.386254,0.62838 0.386254,1.4989 0,0.84744 -0.403549,1.47006 -0.403548,0.62262 -1.135701,0.96275 -0.726387,0.33437 -1.712199,0.33437 h -2.265636 v -1.42395 h 2.265636 q 0.466964,0 0.807097,-0.16718 0.340134,-0.16718 0.524613,-0.46696 0.18448,-0.30554 0.18448,-0.70909 0,-0.41508 -0.18448,-0.70909 -0.184479,-0.29979 -0.524613,-0.46697 -0.340133,-0.16718 -0.812862,-0.16718 h -1.550779 v 7.11398 z m 4.871408,0 -1.965858,-3.87983 h 1.862088 l 2.006213,3.87983 z m 4.905997,0.12683 q -0.645677,0 -1.129936,-0.27672 -0.478493,-0.28248 -0.743682,-0.81863 -0.26519,-0.54191 -0.26519,-1.30864 v -3.81066 h 1.70067 v 3.49934 q 0,0.61109 0.294013,0.93393 0.294014,0.31707 0.824393,0.31707 0.351663,0 0.616852,-0.14412 0.270954,-0.14412 0.420844,-0.44967 0.155655,-0.30554 0.155655,-0.77251 v -3.38404 h 1.694903 v 6.08782 h -1.666079 v -1.58537 h 0.288249 q -0.288249,0.80709 -0.824392,1.26252 -0.530378,0.44968 -1.3663,0.44968 z m 7.304229,0.023 q -0.789802,0 -1.406655,-0.24212 -0.616852,-0.2479 -0.985811,-0.7091 -0.368959,-0.4612 -0.426609,-1.11264 h 1.671844 q 0.04612,0.39778 0.334369,0.62262 0.288249,0.22483 0.784037,0.22483 0.472729,0 0.737918,-0.17871 0.270954,-0.17871 0.270954,-0.4612 0,-0.24213 -0.207539,-0.39202 -0.201775,-0.14989 -0.576499,-0.21907 l -1.06652,-0.20754 q -0.887808,-0.17294 -1.349006,-0.62261 -0.461198,-0.44968 -0.461198,-1.153 0,-0.5765 0.311309,-1.00887 0.317073,-0.43238 0.893572,-0.66874 0.582263,-0.23636 1.37783,-0.23636 0.789802,0 1.377829,0.25366 0.588028,0.24789 0.916632,0.70909 0.334369,0.4612 0.351664,1.09535 h -1.573839 q -0.0058,-0.36896 -0.288249,-0.61109 -0.282485,-0.24213 -0.737918,-0.24213 -0.438138,0 -0.686032,0.19025 -0.247894,0.18447 -0.247894,0.45543 0,0.23636 0.196009,0.38625 0.196009,0.14989 0.541908,0.22484 l 1.152996,0.22483 q 0.922397,0.17872 1.35477,0.58802 0.438138,0.40356 0.438138,1.07806 0,0.60532 -0.345898,1.06075 -0.340134,0.44967 -0.951221,0.70333 -0.605323,0.24789 -1.400891,0.24789 z m 6.433717,-0.0115 q -0.916632,0 -1.614195,-0.39779 -0.697562,-0.39778 -1.08958,-1.11264 -0.386255,-0.71486 -0.386255,-1.66607 0,-0.95699 0.386255,-1.67185 0.392018,-0.71486 1.08958,-1.11264 0.697563,-0.40355 1.614195,-0.40355 0.928161,0 1.619959,0.40355 0.697563,0.39778 1.083816,1.11264 0.392018,0.71486 0.392018,1.67185 0,0.95121 -0.392018,1.66607 -0.386253,0.71486 -1.083816,1.11264 -0.691798,0.39779 -1.619959,0.39779 z m 0,-1.37783 q 0.415078,0 0.726387,-0.21331 0.311309,-0.21906 0.484258,-0.62261 0.17295,-0.40355 0.17295,-0.96275 0,-0.57074 -0.17295,-0.97429 -0.172949,-0.40355 -0.484258,-0.61685 -0.311309,-0.21907 -0.726387,-0.21907 -0.409313,0 -0.720622,0.21907 -0.311309,0.2133 -0.484259,0.61685 -0.172949,0.40355 -0.172949,0.97429 0,0.56496 0.172949,0.96851 0.17295,0.39779 0.484259,0.61685 0.311309,0.21331 0.720622,0.21331 z m 13.978158,1.23947 H 58.00793 v -7.11398 h -1.550779 q -0.466964,0 -0.812862,0.16718 -0.340134,0.16718 -0.524613,0.46697 -0.18448,0.29401 -0.18448,0.70909 0,0.40355 0.18448,0.70909 0.184479,0.29978 0.524613,0.46696 0.340134,0.16719 0.807097,0.16719 h 2.265636 v 1.42394 h -2.265636 q -0.985812,0 -1.717963,-0.33436 -0.732153,-0.34014 -1.135702,-0.96275 -0.397784,-0.62263 -0.397784,-1.47007 0,-0.87052 0.380489,-1.4989 0.386253,-0.63415 1.089582,-0.97428 0.709092,-0.3459 1.671843,-0.3459 h 3.435928 z m -4.865643,0 h -1.902443 l 2.000448,-3.87983 h 1.867854 z m 8.4284,0.0922 q -0.824392,0 -1.406655,-0.27672 -0.582263,-0.28249 -0.887806,-0.74944 -0.305545,-0.47274 -0.31131,-1.0377 h 1.64302 q 0.0058,0.34013 0.265189,0.5419 0.265188,0.20178 0.686032,0.20178 0.415079,0 0.674503,-0.18448 0.265189,-0.19025 0.265189,-0.49002 0,-0.30555 -0.282485,-0.50155 -0.282483,-0.19602 -0.760976,-0.19602 h -0.495788 v -1.02033 h 0.495788 q 0.420843,0 0.680267,-0.18448 0.265189,-0.18448 0.265189,-0.49002 0,-0.28825 -0.230599,-0.46696 -0.224835,-0.17872 -0.593793,-0.17872 -0.380489,0 -0.634147,0.17872 -0.25366,0.17871 -0.259425,0.49001 H 60.85583 q 0.0058,-0.5592 0.317074,-0.99733 0.311309,-0.44391 0.876276,-0.6918 0.564968,-0.25366 1.302886,-0.25366 0.714858,0 1.256765,0.2306 0.541908,0.22483 0.847453,0.61686 0.305543,0.39201 0.305543,0.89933 0,0.52461 -0.357429,0.86475 -0.357428,0.34013 -0.922396,0.41508 v 0.0115 q 0.737917,0.0749 1.118406,0.47273 0.386253,0.39778 0.386253,0.95698 0,0.53038 -0.334369,0.95123 -0.334368,0.41507 -0.933926,0.65144 -0.599558,0.23637 -1.37783,0.23637 z m 4.635046,-4.22573 h 1.839028 q 0.766742,0 1.32018,0.25366 0.559203,0.24789 0.858982,0.70909 0.299779,0.4612 0.299779,1.09535 0,0.63415 -0.299779,1.10111 -0.299779,0.46696 -0.858982,0.72062 -0.553438,0.25366 -1.32018,0.25366 h -2.951669 v -6.08782 h 1.700668 v 4.72728 h 1.193351 q 0.420844,0 0.657207,-0.19024 0.24213,-0.19601 0.24213,-0.53615 0,-0.33437 -0.24213,-0.51884 -0.236363,-0.19025 -0.657207,-0.19025 h -1.781378 z m 4.727283,4.13349 v -6.08782 h 1.700668 v 6.08782 z m 2.899783,0 v -6.08782 h 1.700668 v 2.39247 h 0.472728 l 1.867852,-2.39247 h 2.006217 l -2.30599,2.96897 2.329051,3.11885 h -2.023511 l -1.694904,-2.27716 h -0.651443 v 2.27716 z"
       id="text25"
       style="font-size:13.6955px;line-height:1.1;font-family:'Adwaita Sans';-inkscape-font-specification:'Adwaita Sans, @opsz=32,wght=700';font-variation-settings:'opsz' 32, 'wght' 700;text-align:end;letter-spacing:0px;word-spacing:1.1413px;text-anchor:end;fill:#ffffff;stroke-width:0.196779"
       aria-label="Ruso Язык" /></g><g
     inkscape:groupmode="layer"
     id="layer2"
     inkscape:label="Layer 2"
     transform="translate(3.4655762e-7,-3.8168699)" /></svg>
