<svg width="30" height="30" viewBox="0 0 30 30" fill="none" xmlns="http://www.w3.org/2000/svg">
<path fill-rule="evenodd" clip-rule="evenodd" d="M22.7607 11.5125C23.7738 10.0931 25.6887 8.56517 28.2957 7.29315C28.9732 6.96259 28.6675 5.93801 27.9197 6.03261C22.4422 6.72548 18.8919 9.12442 16.9531 12.6919C16.232 14.0188 15.779 15.4311 15.5377 16.8728C15.3787 17.8234 15.3367 18.5367 15.3367 19.3607C15.3367 23.0426 18.3214 26.0273 22.0033 26.0273C25.6852 26.0273 28.67 23.0426 28.67 19.3607C28.67 15.6788 25.6376 12.6919 22.1529 12.6919C22.3367 12.1872 22.3809 12.0445 22.7607 11.5125ZM8.09399 11.5125C9.1071 10.0931 11.022 8.56517 13.629 7.29315C14.3065 6.96259 14.0009 5.93801 13.253 6.03261C7.77548 6.72548 4.22519 9.12442 2.28644 12.6919C1.56537 14.0188 1.11234 15.4311 0.87108 16.8728C0.712009 17.8234 0.67 18.5367 0.67 19.3607C0.67 23.0426 3.65477 26.0273 7.33667 26.0273C11.0186 26.0273 14.0033 23.0426 14.0033 19.3607C14.0033 15.6788 10.9709 12.6919 7.48624 12.6919C7.67008 12.1872 7.71424 12.0445 8.09399 11.5125Z" fill="black"/>
</svg>
