<svg width="40" height="40" viewBox="0 0 40 40" fill="none" xmlns="http://www.w3.org/2000/svg">
<g clip-path="url(#clip0_367_3177)">
<path d="M24.2852 27.1423C25.0429 27.1423 25.7696 26.8413 26.3055 26.3055C26.8413 25.7696 27.1423 25.0429 27.1423 24.2852" stroke="#2C2C2C" stroke-width="2" stroke-linecap="round" stroke-linejoin="round"/>
<path d="M12.8594 27.1445H17.1451" stroke="#2C2C2C" stroke-width="2" stroke-linecap="round" stroke-linejoin="round"/>
<path d="M27.1445 12.8594V17.1451" stroke="#2C2C2C" stroke-width="2" stroke-linecap="round" stroke-linejoin="round"/>
<path d="M15.7165 12.8594C14.9588 12.8594 14.232 13.1604 13.6962 13.6962C13.1604 14.232 12.8594 14.9588 12.8594 15.7165" stroke="#2C2C2C" stroke-width="2" stroke-linecap="round" stroke-linejoin="round"/>
<path d="M1.42969 4.28683C1.42969 3.52907 1.73071 2.80234 2.26653 2.26653C2.80234 1.73071 3.52907 1.42969 4.28683 1.42969H24.2868C25.0446 1.42969 25.7713 1.73071 26.3071 2.26653C26.843 2.80234 27.144 3.52907 27.144 4.28683V12.8583H35.7154C36.4732 12.8583 37.1999 13.1593 37.7357 13.6951C38.2715 14.2309 38.5725 14.9576 38.5725 15.7154V35.7154C38.5725 36.4732 38.2715 37.1999 37.7357 37.7357C37.1999 38.2715 36.4732 38.5725 35.7154 38.5725H15.7154C14.9576 38.5725 14.2309 38.2715 13.6951 37.7357C13.1593 37.1999 12.8583 36.4732 12.8583 35.7154V27.144H4.28683C3.52907 27.144 2.80234 26.843 2.26653 26.3071C1.73071 25.7713 1.42969 25.0446 1.42969 24.2868V4.28683Z" stroke="#2C2C2C" stroke-width="2" stroke-linecap="round" stroke-linejoin="round"/>
<path d="M22.8594 12.8594H27.1451" stroke="#2C2C2C" stroke-width="2" stroke-linecap="round" stroke-linejoin="round"/>
<path d="M12.8594 22.8594V27.1451" stroke="#2C2C2C" stroke-width="2" stroke-linecap="round" stroke-linejoin="round"/>
</g>
<defs>
<clipPath id="clip0_367_3177">
<rect width="40" height="40" fill="white"/>
</clipPath>
</defs>
</svg>
