<svg width="20" height="20" viewBox="0 0 20 20" fill="none" xmlns="http://www.w3.org/2000/svg">
<g clip-path="url(#clip0_367_907)">
<path d="M16.4275 7.14342C16.4275 10.7006 9.99888 19.2863 9.99888 19.2863C9.99888 19.2863 3.57031 10.7006 3.57031 7.14342C3.57031 5.43845 4.24761 3.80332 5.4532 2.59773C6.65879 1.39214 8.29392 0.714844 9.99888 0.714844C11.7038 0.714844 13.339 1.39214 14.5446 2.59773C15.7502 3.80332 16.4275 5.43845 16.4275 7.14342V7.14342Z" stroke="#2C2C2C" stroke-width="1.5" stroke-linecap="round" stroke-linejoin="round"/>
<path d="M9.99833 9.28571C11.1818 9.28571 12.1412 8.32632 12.1412 7.14286C12.1412 5.95939 11.1818 5 9.99833 5C8.81486 5 7.85547 5.95939 7.85547 7.14286C7.85547 8.32632 8.81486 9.28571 9.99833 9.28571Z" stroke="#2C2C2C" stroke-width="1.5" stroke-linecap="round" stroke-linejoin="round"/>
</g>
<defs>
<clipPath id="clip0_367_907">
<rect width="20" height="20" fill="white"/>
</clipPath>
</defs>
</svg>
