<svg width="30" height="30" viewBox="0 0 30 30" fill="none" xmlns="http://www.w3.org/2000/svg">
<path d="M27.2098 21.5117C26.4132 20.8436 21.741 17.885 20.9645 18.0208C20.5999 18.0855 20.321 18.3964 19.5745 19.2868C19.2293 19.7252 18.8501 20.1357 18.4406 20.5146C17.6903 20.3333 16.964 20.0641 16.2768 19.7125C13.5819 18.4005 11.4047 16.2227 10.0935 13.5273C9.74188 12.8402 9.47266 12.1139 9.29141 11.3635C9.67033 10.954 10.0808 10.5749 10.5191 10.2297C11.4087 9.4832 11.7204 9.20612 11.7852 8.83971C11.921 8.06133 8.95964 3.39102 8.29427 2.5944C8.01536 2.26445 7.76198 2.04297 7.4375 2.04297C6.49687 2.04297 2.24219 7.30391 2.24219 7.98568C2.24219 8.04128 2.33333 13.5182 9.25039 20.5556C16.2878 27.4727 21.7647 27.5638 21.8203 27.5638C22.5021 27.5638 27.763 23.3091 27.763 22.3685C27.763 22.044 27.5415 21.7906 27.2098 21.5117Z" fill="white"/>
<path d="M21.3828 13.8893H23.2057C23.2036 11.9561 22.4346 10.1027 21.0677 8.73573C19.7007 7.36875 17.8473 6.59983 15.9141 6.59766V8.42057C17.364 8.42202 18.7542 8.99866 19.7795 10.0239C20.8047 11.0492 21.3814 12.4394 21.3828 13.8893Z" fill="white"/>
<path d="M25.9401 13.8919H27.763C27.7594 10.7505 26.5099 7.73877 24.2885 5.51744C22.0672 3.29612 19.0555 2.04659 15.9141 2.04297V3.86589C18.5722 3.86902 21.1205 4.92634 23.0001 6.80591C24.8796 8.68548 25.937 11.2338 25.9401 13.8919Z" fill="white"/>
</svg>
