<svg width="30" height="30" viewBox="0 0 30 30" fill="none" xmlns="http://www.w3.org/2000/svg">
<mask id="path-1-inside-1_242_846" fill="white">
<path d="M26.293 15.1319L26.1491 15.2561C25.4033 15.9006 24.2985 15.8786 23.5794 15.205L23.5147 15.1445C23.2813 14.9261 23.016 14.7644 22.7385 14.6392V9.88187C22.7385 8.41891 21.5478 7.22828 20.0844 7.22828H19.9405L19.4614 3.68875C19.3288 2.71047 18.4846 1.97266 17.4978 1.97266H12.5038C11.5171 1.97266 10.6728 2.71047 10.5402 3.68875L10.0611 7.22828H9.91721C8.45378 7.22828 7.26315 8.41891 7.26315 9.88187V14.6641C7.0044 14.7873 6.75596 14.9397 6.53659 15.1445L6.45034 15.2252C5.74065 15.8894 4.64471 15.9184 3.90034 15.2936L3.70346 15.1281C3.50565 14.9617 3.20893 14.9875 3.04346 15.1858C2.87706 15.3841 2.90237 15.6798 3.10112 15.8458L3.29753 16.0112C3.83049 16.4584 4.48393 16.6811 5.1369 16.6806C5.84096 16.6806 6.54362 16.4223 7.09159 15.91L7.17784 15.8294C7.20456 15.8041 7.23549 15.7867 7.26362 15.7633V20.1161C7.26362 21.5791 8.45424 22.7697 9.91768 22.7697H10.0616L10.5406 26.3092C10.6733 27.2875 11.5175 28.0253 12.5042 28.0253H17.4983C18.485 28.0253 19.3292 27.2875 19.4619 26.3092L19.941 22.7697H20.0849C21.5483 22.7697 22.7389 21.5791 22.7389 20.1161V15.7248C22.7839 15.76 22.8322 15.7895 22.8744 15.8294L22.9396 15.8898C24.0088 16.8911 25.6527 16.9239 26.7622 15.9658L26.9061 15.8416C27.1021 15.6728 27.1241 15.3766 26.9549 15.1806C26.7856 14.9838 26.4889 14.9627 26.2939 15.1319H26.293ZM11.4688 3.81391C11.5381 3.29828 11.9835 2.90969 12.5033 2.90969H17.4974C18.0172 2.90969 18.4625 3.29828 18.5319 3.81391L18.9941 7.22781H11.0061L11.4688 3.81391ZM8.19971 9.88141C8.19971 8.935 8.96987 8.16531 9.91628 8.16531H20.0839C21.0308 8.16531 21.8005 8.93547 21.8005 9.88141V14.3973C21.3983 14.3636 20.9933 14.4091 20.6089 14.5441C20.376 11.6509 17.9521 9.36719 14.9999 9.36719C12.0477 9.36719 9.63128 11.6439 9.39174 14.5305C9.00549 14.4025 8.60049 14.3617 8.19924 14.4025V9.88187L8.19971 9.88141ZM19.6067 15.1445C18.8689 15.8341 17.7149 15.8336 16.9799 15.1445C15.8849 14.1198 14.1678 14.1189 13.071 15.1445C12.3355 15.8336 11.181 15.8345 10.4441 15.1445C10.4014 15.1047 10.3522 15.0766 10.3077 15.04C10.3077 15.0264 10.3058 15.0128 10.3058 14.9992C10.3058 12.4108 12.4114 10.3047 15.0003 10.3047C17.5892 10.3047 19.6949 12.4103 19.6949 14.9992C19.6949 15.0264 19.6911 15.0531 19.6907 15.0803C19.6639 15.1037 19.633 15.1202 19.6067 15.1445ZM19.5027 16.3188C18.9308 18.2664 17.1308 19.6933 15.0003 19.6933C12.8699 19.6933 11.0535 18.2523 10.491 16.2906C11.5335 16.8058 12.8239 16.66 13.7117 15.8294C14.4481 15.1394 15.6031 15.1398 16.3386 15.8294C17.21 16.6436 18.4705 16.7997 19.5027 16.3188ZM18.5319 26.1841C18.4625 26.6997 18.0172 27.0883 17.4974 27.0883H12.5033C11.9835 27.0883 11.5381 26.6997 11.4688 26.1841L11.0066 22.7702H18.9946L18.5319 26.1841ZM21.801 20.1166C21.801 21.063 21.0308 21.8327 20.0844 21.8327H9.91674C8.96987 21.8327 8.20018 21.0625 8.20018 20.1166V15.3391C8.60659 15.2777 9.02612 15.3484 9.39643 15.5467C9.67299 18.3958 12.08 20.6308 15.0003 20.6308C17.9206 20.6308 20.315 18.4094 20.6033 15.572C20.9708 15.3606 21.3913 15.2828 21.801 15.3339V20.1166Z"/>
</mask>
<path d="M26.293 15.1319V13.1319H25.5492L24.9861 13.6179L26.293 15.1319ZM26.1491 15.2561L24.8422 13.7421L24.8413 13.7429L26.1491 15.2561ZM23.5794 15.205L24.9467 13.7454L24.9452 13.7439L23.5794 15.205ZM23.5147 15.1445L22.1482 16.6049L22.1489 16.6056L23.5147 15.1445ZM22.7385 14.6392H20.7385V15.9312L21.9162 16.4624L22.7385 14.6392ZM19.9405 7.22828L17.9586 7.49653L18.193 9.22828H19.9405V7.22828ZM19.4614 3.68875L21.4434 3.4205L21.4433 3.42001L19.4614 3.68875ZM10.5402 3.68875L8.55832 3.42001L8.55825 3.4205L10.5402 3.68875ZM10.0611 7.22828V9.22828H11.8087L12.043 7.49653L10.0611 7.22828ZM7.26315 14.6641L8.1234 16.4696L9.26315 15.9266V14.6641H7.26315ZM6.53659 15.1445L5.17162 13.6827L5.17082 13.6835L6.53659 15.1445ZM6.45034 15.2252L5.08457 13.7641L5.08368 13.7649L6.45034 15.2252ZM3.90034 15.2936L2.61352 16.8246L2.61447 16.8254L3.90034 15.2936ZM3.70346 15.1281L2.41597 16.6586L2.41665 16.6592L3.70346 15.1281ZM3.04346 15.1858L4.57545 16.4715L4.57901 16.4672L3.04346 15.1858ZM3.10112 15.8458L4.38974 14.3162L4.38291 14.3105L3.10112 15.8458ZM3.29753 16.0112L2.00891 17.5408L2.01199 17.5434L3.29753 16.0112ZM5.1369 16.6806V14.6806L5.13546 14.6806L5.1369 16.6806ZM7.09159 15.91L5.72582 14.4489L5.72566 14.4491L7.09159 15.91ZM7.17784 15.8294L8.54364 17.2905L8.55333 17.2813L7.17784 15.8294ZM7.26362 15.7633H9.26362V11.4932L5.98325 14.2268L7.26362 15.7633ZM10.0616 22.7697L12.0435 22.5014L11.8091 20.7697H10.0616V22.7697ZM10.5406 26.3092L8.55872 26.5775L8.55879 26.578L10.5406 26.3092ZM19.4619 26.3092L21.4438 26.578L21.4438 26.5775L19.4619 26.3092ZM19.941 22.7697V20.7697H18.1934L17.959 22.5014L19.941 22.7697ZM22.7389 15.7248L23.9702 14.1488L20.7389 11.6244V15.7248H22.7389ZM22.8744 15.8294L21.5012 17.2834L21.5075 17.2894L21.5139 17.2953L22.8744 15.8294ZM22.9396 15.8898L24.3066 14.43L24.3001 14.4239L22.9396 15.8898ZM26.7622 15.9658L25.4554 14.4518L25.4551 14.4521L26.7622 15.9658ZM26.9061 15.8416L25.601 14.3261L25.5993 14.3276L26.9061 15.8416ZM26.9549 15.1806L25.4381 16.4843L25.4412 16.4879L26.9549 15.1806ZM26.2939 15.1319V17.1319H27.0407L27.6048 16.6424L26.2939 15.1319ZM11.4688 3.81391L13.4507 4.08249L13.4509 4.08059L11.4688 3.81391ZM18.5319 3.81391L16.5498 4.08059L16.55 4.08223L18.5319 3.81391ZM18.9941 7.22781V9.22781H21.2831L20.976 6.95949L18.9941 7.22781ZM11.0061 7.22781L9.02424 6.95923L8.71679 9.22781H11.0061V7.22781ZM8.19971 9.88141L9.61258 11.297L10.1997 10.7109V9.88141H8.19971ZM21.8005 14.3973L21.6332 16.3903L23.8005 16.5722V14.3973H21.8005ZM20.6089 14.5441L18.6154 14.7046L18.8236 17.2909L21.2717 16.4311L20.6089 14.5441ZM9.39174 14.5305L8.76275 16.429L11.1748 17.2281L11.3849 14.6959L9.39174 14.5305ZM8.19924 14.4025H6.19924V16.6161L8.40147 16.3923L8.19924 14.4025ZM8.19924 9.88187L6.78638 8.46631L6.19924 9.05233V9.88187H8.19924ZM19.6067 15.1445L18.2458 13.6789L18.2411 13.6833L19.6067 15.1445ZM16.9799 15.1445L18.3478 13.6855L18.3464 13.6842L16.9799 15.1445ZM13.071 15.1445L11.705 13.6837L11.7035 13.685L13.071 15.1445ZM10.4441 15.1445L11.8111 13.6846L11.8093 13.683L10.4441 15.1445ZM10.3077 15.04H8.30768V15.9857L9.03855 16.5857L10.3077 15.04ZM19.6907 15.0803L21.0095 16.5838L21.6751 16L21.6904 15.1148L19.6907 15.0803ZM19.5027 16.3188L21.4217 16.8822L22.668 12.6374L18.658 14.5059L19.5027 16.3188ZM10.491 16.2906L11.377 14.4976L7.32162 12.4936L8.56844 16.8419L10.491 16.2906ZM13.7117 15.8294L15.0781 17.2898L15.0792 17.2888L13.7117 15.8294ZM16.3386 15.8294L14.9707 17.2884L14.9732 17.2907L16.3386 15.8294ZM18.5319 26.1841L16.55 25.9155L16.5498 25.9174L18.5319 26.1841ZM11.4688 26.1841L13.4509 25.9174L13.4507 25.9157L11.4688 26.1841ZM11.0066 22.7702V20.7702H8.71757L9.02467 23.0385L11.0066 22.7702ZM18.9946 22.7702L20.9764 23.0387L21.2839 20.7702H18.9946V22.7702ZM8.20018 15.3391L7.90138 13.3615L6.20018 13.6186V15.3391H8.20018ZM9.39643 15.5467L11.3871 15.3535L11.2837 14.2886L10.3405 13.7836L9.39643 15.5467ZM20.6033 15.572L19.606 13.8384L18.7172 14.3497L18.6136 15.3699L20.6033 15.572ZM21.801 15.3339H23.801V13.5678L22.0485 13.3493L21.801 15.3339ZM26.293 15.1319L24.9861 13.6179L24.8422 13.7421L26.1491 15.2561L27.4559 16.7701L27.5998 16.6459L26.293 15.1319ZM26.1491 15.2561L24.8413 13.7429C24.8452 13.7395 24.8534 13.7341 24.8645 13.7301C24.8748 13.7265 24.8848 13.7251 24.894 13.7252C24.9033 13.7254 24.9133 13.7273 24.9235 13.7314C24.9346 13.7358 24.9428 13.7417 24.9467 13.7454L23.5794 15.205L22.2121 16.6646C23.6782 18.038 25.9373 18.0825 27.4568 16.7693L26.1491 15.2561ZM23.5794 15.205L24.9452 13.7439L24.8805 13.6835L23.5147 15.1445L22.1489 16.6056L22.2136 16.666L23.5794 15.205ZM23.5147 15.1445L24.8812 13.6842C24.4533 13.2837 23.9906 13.01 23.5607 12.8161L22.7385 14.6392L21.9162 16.4624C22.0413 16.5188 22.1092 16.5684 22.1482 16.6049L23.5147 15.1445ZM22.7385 14.6392H24.7385V9.88187H22.7385H20.7385V14.6392H22.7385ZM22.7385 9.88187H24.7385C24.7385 7.31411 22.6522 5.22828 20.0844 5.22828V7.22828V9.22828C20.4435 9.22828 20.7385 9.52371 20.7385 9.88187H22.7385ZM20.0844 7.22828V5.22828H19.9405V7.22828V9.22828H20.0844V7.22828ZM19.9405 7.22828L21.9224 6.96003L21.4434 3.4205L19.4614 3.68875L17.4795 3.957L17.9586 7.49653L19.9405 7.22828ZM19.4614 3.68875L21.4433 3.42001C21.1763 1.4509 19.4861 -0.0273438 17.4978 -0.0273438V1.97266V3.97266C17.4963 3.97266 17.4941 3.9725 17.4914 3.97201C17.4889 3.97153 17.4869 3.9709 17.4854 3.97034C17.4828 3.96935 17.4827 3.96885 17.4838 3.96978C17.4849 3.97071 17.4844 3.97077 17.4832 3.96854C17.4825 3.96728 17.4817 3.96547 17.4809 3.9632C17.4802 3.96084 17.4797 3.95879 17.4796 3.95749L19.4614 3.68875ZM17.4978 1.97266V-0.0273438H12.5038V1.97266V3.97266H17.4978V1.97266ZM12.5038 1.97266V-0.0273438C10.5155 -0.0273438 8.82533 1.4509 8.55832 3.42001L10.5402 3.68875L12.522 3.95749C12.5219 3.95879 12.5214 3.96084 12.5207 3.9632C12.5199 3.96547 12.5191 3.96728 12.5184 3.96854C12.5172 3.97077 12.5168 3.97071 12.5178 3.96978C12.5189 3.96885 12.5188 3.96935 12.5162 3.97034C12.5147 3.9709 12.5127 3.97153 12.5102 3.97201C12.5076 3.9725 12.5053 3.97266 12.5038 3.97266V1.97266ZM10.5402 3.68875L8.55825 3.4205L8.07919 6.96003L10.0611 7.22828L12.043 7.49653L12.5221 3.957L10.5402 3.68875ZM10.0611 7.22828V5.22828H9.91721V7.22828V9.22828H10.0611V7.22828ZM9.91721 7.22828V5.22828C7.34944 5.22828 5.26315 7.31411 5.26315 9.88187H7.26315H9.26315C9.26315 9.52371 9.55812 9.22828 9.91721 9.22828V7.22828ZM7.26315 9.88187H5.26315V14.6641H7.26315H9.26315V9.88187H7.26315ZM7.26315 14.6641L6.4029 12.8585C6.01725 13.0423 5.58127 13.3002 5.17162 13.6827L6.53659 15.1445L7.90156 16.6063C7.93066 16.5792 7.99155 16.5324 8.1234 16.4696L7.26315 14.6641ZM6.53659 15.1445L5.17082 13.6835L5.08457 13.7641L6.45034 15.2252L7.81611 16.6862L7.90236 16.6056L6.53659 15.1445ZM6.45034 15.2252L5.08368 13.7649C5.09876 13.7508 5.11957 13.7439 5.13488 13.7435C5.15011 13.7431 5.1708 13.7488 5.1862 13.7617L3.90034 15.2936L2.61447 16.8254C4.13313 18.1002 6.36788 18.0417 7.817 16.6854L6.45034 15.2252ZM3.90034 15.2936L5.18715 13.7625L4.99028 13.5971L3.70346 15.1281L2.41665 16.6592L2.61352 16.8246L3.90034 15.2936ZM3.70346 15.1281L4.99095 13.5976C3.94841 12.7206 2.3855 12.8527 1.50791 13.9043L3.04346 15.1858L4.57901 16.4672C4.03237 17.1223 3.06289 17.2028 2.41597 16.6586L3.70346 15.1281ZM3.04346 15.1858L1.51148 13.9001C0.638258 14.9406 0.765741 16.5014 1.81933 17.381L3.10112 15.8458L4.38291 14.3105C5.039 14.8583 5.11586 15.8276 4.57544 16.4715L3.04346 15.1858ZM3.10112 15.8458L1.81251 17.3753L2.00892 17.5408L3.29753 16.0112L4.58614 14.4817L4.38973 14.3162L3.10112 15.8458ZM3.29753 16.0112L2.01199 17.5434C2.91643 18.3022 4.02912 18.6814 5.13834 18.6806L5.1369 16.6806L5.13546 14.6806C4.93875 14.6808 4.74455 14.6146 4.58306 14.4791L3.29753 16.0112ZM5.1369 16.6806V18.6806C6.3294 18.6806 7.52559 18.2422 8.45752 17.3709L7.09159 15.91L5.72566 14.4491C5.56165 14.6024 5.35252 14.6806 5.1369 14.6806V16.6806ZM7.09159 15.91L8.45736 17.371L8.54361 17.2904L7.17784 15.8294L5.81207 14.3683L5.72582 14.4489L7.09159 15.91ZM7.17784 15.8294L8.55333 17.2813C8.50324 17.3287 8.45982 17.3643 8.43082 17.387C8.41625 17.3983 8.40434 17.4073 8.39653 17.413C8.38893 17.4186 8.38366 17.4224 8.38329 17.4227C8.38306 17.4228 8.38326 17.4227 8.38487 17.4215C8.38593 17.4208 8.38908 17.4185 8.39197 17.4165C8.39804 17.4121 8.40926 17.4041 8.4225 17.3945C8.43603 17.3846 8.45366 17.3715 8.47386 17.3559C8.49415 17.3403 8.5179 17.3215 8.54399 17.2997L7.26362 15.7633L5.98325 14.2268C6.02049 14.1958 6.05 14.174 6.06171 14.1654C6.06768 14.1611 6.07159 14.1583 6.07035 14.1592C6.06959 14.1597 6.06908 14.1601 6.06649 14.1619C6.06444 14.1634 6.06099 14.1658 6.05711 14.1686C6.04313 14.1786 6.00794 14.2038 5.9663 14.2364C5.9231 14.2702 5.86579 14.3174 5.80235 14.3775L7.17784 15.8294ZM7.26362 15.7633H5.26362V20.1161H7.26362H9.26362V15.7633H7.26362ZM7.26362 20.1161H5.26362C5.26362 22.6839 7.3499 24.7697 9.91768 24.7697V22.7697V20.7697C9.55858 20.7697 9.26362 20.4743 9.26362 20.1161H7.26362ZM9.91768 22.7697V24.7697H10.0616V22.7697V20.7697H9.91768V22.7697ZM10.0616 22.7697L8.07966 23.0379L8.55872 26.5775L10.5406 26.3092L12.5226 26.041L12.0435 22.5014L10.0616 22.7697ZM10.5406 26.3092L8.55879 26.578C8.8258 28.5471 10.516 30.0253 12.5042 30.0253V28.0253V26.0253C12.5057 26.0253 12.508 26.0255 12.5106 26.026C12.5132 26.0264 12.5152 26.0271 12.5167 26.0276C12.5193 26.0286 12.5194 26.0291 12.5183 26.0282C12.5172 26.0273 12.5176 26.0272 12.5189 26.0294C12.5195 26.0307 12.5204 26.0325 12.5211 26.0348C12.5219 26.0371 12.5223 26.0392 12.5225 26.0405L10.5406 26.3092ZM12.5042 28.0253V30.0253H17.4983V28.0253V26.0253H12.5042V28.0253ZM17.4983 28.0253V30.0253C19.4865 30.0253 21.1767 28.5471 21.4438 26.578L19.4619 26.3092L17.48 26.0405C17.4802 26.0392 17.4806 26.0371 17.4814 26.0348C17.4822 26.0325 17.483 26.0307 17.4837 26.0294C17.4849 26.0272 17.4853 26.0273 17.4843 26.0282C17.4832 26.0291 17.4833 26.0286 17.4859 26.0276C17.4873 26.0271 17.4894 26.0264 17.4919 26.026C17.4945 26.0255 17.4968 26.0253 17.4983 26.0253V28.0253ZM19.4619 26.3092L21.4438 26.5775L21.9229 23.0379L19.941 22.7697L17.959 22.5014L17.48 26.041L19.4619 26.3092ZM19.941 22.7697V24.7697H20.0849V22.7697V20.7697H19.941V22.7697ZM20.0849 22.7697V24.7697C22.6526 24.7697 24.7389 22.6839 24.7389 20.1161H22.7389H20.7389C20.7389 20.4743 20.444 20.7697 20.0849 20.7697V22.7697ZM22.7389 20.1161H24.7389V15.7248H22.7389H20.7389V20.1161H22.7389ZM22.7389 15.7248L21.5076 17.3009C21.528 17.3168 21.5463 17.3307 21.5617 17.3421C21.577 17.3535 21.5904 17.3632 21.6004 17.3705C21.6054 17.3741 21.61 17.3774 21.6137 17.3801C21.6168 17.3823 21.6211 17.3854 21.6229 17.3867C21.6281 17.3905 21.6291 17.3912 21.6289 17.391C21.6284 17.3907 21.6246 17.3879 21.6188 17.3835C21.6129 17.379 21.604 17.3722 21.5931 17.3635C21.5715 17.3462 21.5391 17.3193 21.5012 17.2834L22.8744 15.8294L24.2476 14.3753C24.1334 14.2675 24.0296 14.1911 23.9865 14.1597C23.9748 14.1511 23.9643 14.1436 23.958 14.1391C23.9502 14.1334 23.9483 14.1321 23.9459 14.1303C23.9419 14.1274 23.9532 14.1355 23.9702 14.1488L22.7389 15.7248ZM22.8744 15.8294L21.5139 17.2953L21.5791 17.3558L22.9396 15.8898L24.3001 14.4239L24.2349 14.3634L22.8744 15.8294ZM22.9396 15.8898L21.5725 17.3497C23.3889 19.0506 26.1865 19.1055 28.0694 17.4795L26.7622 15.9658L25.4551 14.4521C25.1189 14.7423 24.6287 14.7316 24.3066 14.43L22.9396 15.8898ZM26.7622 15.9658L28.0691 17.4798L28.213 17.3555L26.9061 15.8416L25.5993 14.3276L25.4554 14.4518L26.7622 15.9658ZM26.9061 15.8416L28.2113 17.357C29.2447 16.4669 29.3606 14.9063 28.4685 13.8734L26.9549 15.1806L25.4412 16.4879C24.8876 15.8468 24.9594 14.8787 25.601 14.3261L26.9061 15.8416ZM26.9549 15.1806L28.4716 13.877C27.5794 12.839 26.0145 12.7263 24.9831 13.6213L26.2939 15.1319L27.6048 16.6424C26.9634 17.199 25.9919 17.1285 25.4381 16.4843L26.9549 15.1806ZM26.2939 15.1319V13.1319H26.293V15.1319V17.1319H26.2939V15.1319ZM11.4688 3.81391L13.4509 4.08059C13.3865 4.55922 12.9833 4.90969 12.5033 4.90969V2.90969V0.909688C10.9837 0.909688 9.68978 2.03734 9.48664 3.54722L11.4688 3.81391ZM12.5033 2.90969V4.90969H17.4974V2.90969V0.909688H12.5033V2.90969ZM17.4974 2.90969V4.90969C17.0174 4.90969 16.6142 4.55922 16.5498 4.08059L18.5319 3.81391L20.514 3.54722C20.3109 2.03734 19.017 0.909688 17.4974 0.909688V2.90969ZM18.5319 3.81391L16.55 4.08223L17.0122 7.49613L18.9941 7.22781L20.976 6.95949L20.5138 3.54559L18.5319 3.81391ZM18.9941 7.22781V5.22781H11.0061V7.22781V9.22781H18.9941V7.22781ZM11.0061 7.22781L12.988 7.4964L13.4507 4.08249L11.4688 3.81391L9.48689 3.54532L9.02424 6.95923L11.0061 7.22781ZM8.19971 9.88141H10.1997C10.1997 10.0403 10.0737 10.1653 9.91628 10.1653V8.16531V6.16531C7.86601 6.16531 6.19971 7.82972 6.19971 9.88141H8.19971ZM9.91628 8.16531V10.1653H20.0839V8.16531V6.16531H9.91628V8.16531ZM20.0839 8.16531V10.1653C19.9262 10.1653 19.8005 10.04 19.8005 9.88141H21.8005H23.8005C23.8005 7.8309 22.1354 6.16531 20.0839 6.16531V8.16531ZM21.8005 9.88141H19.8005V14.3973H21.8005H23.8005V9.88141H21.8005ZM21.8005 14.3973L21.9677 12.4043C21.3045 12.3487 20.6149 12.4222 19.9462 12.6571L20.6089 14.5441L21.2717 16.4311C21.3717 16.3959 21.4922 16.3785 21.6332 16.3903L21.8005 14.3973ZM20.6089 14.5441L22.6025 14.3835C22.2868 10.4632 19.0062 7.36719 14.9999 7.36719V9.36719V11.3672C16.898 11.3672 18.4651 12.8386 18.6154 14.7046L20.6089 14.5441ZM14.9999 9.36719V7.36719C10.9942 7.36719 7.72308 10.4547 7.39859 14.3651L9.39174 14.5305L11.3849 14.6959C11.5395 12.8331 13.1012 11.3672 14.9999 11.3672V9.36719ZM9.39174 14.5305L10.0207 12.632C9.35649 12.4119 8.66751 12.3446 7.99701 12.4128L8.19924 14.4025L8.40147 16.3923C8.53348 16.3788 8.6545 16.3931 8.76275 16.429L9.39174 14.5305ZM8.19924 14.4025H10.1992V9.88187H8.19924H6.19924V14.4025H8.19924ZM8.19924 9.88187L9.61211 11.2974L9.61258 11.297L8.19971 9.88141L6.78685 8.46585L6.78638 8.46631L8.19924 9.88187ZM19.6067 15.1445L18.2411 13.6833C18.2587 13.6669 18.2803 13.6615 18.2925 13.6615C18.3047 13.6615 18.328 13.6669 18.3478 13.6855L16.9799 15.1445L15.612 16.6036C17.1172 18.0147 19.4667 18.0128 20.9723 16.6057L19.6067 15.1445ZM16.9799 15.1445L18.3464 13.6842C16.4826 11.9401 13.5708 11.9391 11.705 13.6837L13.071 15.1445L14.4369 16.6054C14.7649 16.2987 15.2871 16.2996 15.6133 16.6049L16.9799 15.1445ZM13.071 15.1445L11.7035 13.685C11.7227 13.667 11.7455 13.6617 11.7576 13.6617C11.7698 13.6617 11.7924 13.6671 11.8111 13.6846L10.4441 15.1445L9.07707 16.6044C10.5835 18.015 12.9342 18.0133 14.4384 16.604L13.071 15.1445ZM10.4441 15.1445L11.8093 13.683C11.6859 13.5677 11.5719 13.487 11.5395 13.4638C11.5319 13.4585 11.5196 13.4497 11.5188 13.4492C11.5149 13.4464 11.5159 13.447 11.5187 13.4491C11.524 13.453 11.5466 13.4695 11.5768 13.4943L10.3077 15.04L9.03855 16.5857C9.09098 16.6288 9.13644 16.6625 9.16489 16.6832C9.17926 16.6937 9.19182 16.7026 9.19948 16.7081C9.203 16.7106 9.20736 16.7137 9.20917 16.715C9.21167 16.7168 9.21293 16.7177 9.21372 16.7182C9.21542 16.7194 9.21261 16.7174 9.20759 16.7137C9.20238 16.7099 9.19336 16.7032 9.18182 16.6942C9.15892 16.6764 9.12225 16.6466 9.07888 16.6061L10.4441 15.1445ZM10.3077 15.04H12.3077C12.3077 14.9916 12.306 14.9518 12.3047 14.9265C12.3041 14.9136 12.3034 14.9028 12.3029 14.8957C12.3025 14.889 12.3021 14.883 12.302 14.882C12.3018 14.8796 12.302 14.8822 12.3022 14.8855C12.3025 14.8893 12.3029 14.8966 12.3034 14.9061C12.3044 14.9246 12.3058 14.9576 12.3058 14.9992H10.3058H8.30581C8.30581 15.0476 8.30746 15.0874 8.30877 15.1127C8.30944 15.1256 8.3101 15.1364 8.31057 15.1435C8.311 15.1502 8.31141 15.1562 8.31148 15.1572C8.31165 15.1596 8.31147 15.157 8.31125 15.1537C8.31101 15.15 8.31055 15.1426 8.31006 15.1331C8.3091 15.1146 8.30768 15.0816 8.30768 15.04H10.3077ZM10.3058 14.9992H12.3058C12.3058 13.5152 13.5161 12.3047 15.0003 12.3047V10.3047V8.30469C11.3067 8.30469 8.30581 11.3063 8.30581 14.9992H10.3058ZM15.0003 10.3047V12.3047C16.4847 12.3047 17.6949 13.5149 17.6949 14.9992H19.6949H21.6949C21.6949 11.3057 18.6938 8.30469 15.0003 8.30469V10.3047ZM19.6949 14.9992H17.6949C17.6949 14.9608 17.6962 14.9305 17.6971 14.9134C17.6976 14.9047 17.698 14.8981 17.6982 14.8947C17.6984 14.8917 17.6986 14.89 17.6984 14.8924C17.6983 14.8929 17.6978 14.9004 17.6973 14.9063C17.6968 14.9134 17.6961 14.9241 17.6953 14.9366C17.6938 14.9613 17.6917 14.9996 17.6909 15.0458L19.6907 15.0803L21.6904 15.1148C21.6898 15.1474 21.6884 15.1722 21.6877 15.1834C21.6872 15.1918 21.6865 15.2005 21.6875 15.1872C21.688 15.1797 21.6899 15.1549 21.6915 15.1257C21.6931 15.095 21.6949 15.0513 21.6949 14.9992H19.6949ZM19.6907 15.0803L18.3718 13.5768C18.421 13.5336 18.4616 13.5029 18.4825 13.4875C18.4932 13.4796 18.5011 13.474 18.5035 13.4723C18.5043 13.4717 18.507 13.4698 18.4994 13.4752C18.4915 13.4807 18.4566 13.5051 18.4163 13.5357C18.3736 13.5682 18.3133 13.6163 18.2458 13.6789L19.6067 15.1445L20.9676 16.6101C20.9133 16.6606 20.8667 16.6975 20.8381 16.7193C20.8236 16.7303 20.8121 16.7386 20.8056 16.7433C20.7995 16.7477 20.7954 16.7506 20.7977 16.749C20.7982 16.7486 20.7987 16.7483 20.7997 16.7476C20.8005 16.747 20.8018 16.7461 20.8032 16.7451C20.806 16.7431 20.8102 16.7402 20.8151 16.7367C20.8247 16.7299 20.8397 16.7192 20.8574 16.7062C20.8924 16.6803 20.947 16.6387 21.0095 16.5838L19.6907 15.0803ZM19.5027 16.3188L17.5837 15.7553C17.2539 16.8785 16.2153 17.6933 15.0003 17.6933V19.6933V21.6933C18.0463 21.6933 20.6077 19.6543 21.4217 16.8822L19.5027 16.3188ZM15.0003 19.6933V17.6933C13.7877 17.6933 12.7372 16.8682 12.4135 15.7394L10.491 16.2906L8.56844 16.8419C9.36975 19.6365 11.9521 21.6933 15.0003 21.6933V19.6933ZM10.491 16.2906L9.60493 18.0837C11.3566 18.9492 13.5519 18.7177 15.0781 17.2898L13.7117 15.8294L12.3453 14.3689C12.0959 14.6023 11.7103 14.6623 11.377 14.4976L10.491 16.2906ZM13.7117 15.8294L15.0792 17.2888C15.0602 17.3066 15.0375 17.3121 15.0253 17.312C15.0132 17.312 14.9902 17.3067 14.9707 17.2884L16.3386 15.8294L17.7065 14.3703C16.2018 12.9596 13.85 12.9591 12.3443 14.3699L13.7117 15.8294ZM16.3386 15.8294L14.9732 17.2907C16.4706 18.6899 18.6136 18.9395 20.3474 18.1316L19.5027 16.3188L18.658 14.5059C18.3274 14.6599 17.9494 14.5973 17.7041 14.368L16.3386 15.8294ZM18.5319 26.1841L16.5498 25.9174C16.6142 25.4387 17.0174 25.0883 17.4974 25.0883V27.0883V29.0883C19.017 29.0883 20.3109 27.9606 20.514 26.4508L18.5319 26.1841ZM17.4974 27.0883V25.0883H12.5033V27.0883V29.0883H17.4974V27.0883ZM12.5033 27.0883V25.0883C12.9833 25.0883 13.3865 25.4388 13.4509 25.9174L11.4688 26.1841L9.48664 26.4508C9.68978 27.9606 10.9837 29.0883 12.5033 29.0883V27.0883ZM11.4688 26.1841L13.4507 25.9157L12.9885 22.5018L11.0066 22.7702L9.02467 23.0385L9.48686 26.4524L11.4688 26.1841ZM11.0066 22.7702V24.7702H18.9946V22.7702V20.7702H11.0066V22.7702ZM18.9946 22.7702L17.0127 22.5016L16.55 25.9155L18.5319 26.1841L20.5138 26.4527L20.9764 23.0387L18.9946 22.7702ZM21.801 20.1166H19.801C19.801 19.9577 19.9269 19.8327 20.0844 19.8327V21.8327V23.8327C22.1347 23.8327 23.801 22.1682 23.801 20.1166H21.801ZM20.0844 21.8327V19.8327H9.91674V21.8327V23.8327H20.0844V21.8327ZM9.91674 21.8327V19.8327C10.0744 19.8327 10.2002 19.9579 10.2002 20.1166H8.20018H6.20018C6.20018 22.1671 7.8653 23.8327 9.91674 23.8327V21.8327ZM8.20018 20.1166H10.2002V15.3391H8.20018H6.20018V20.1166H8.20018ZM8.20018 15.3391L8.49898 17.3166C8.4793 17.3196 8.4628 17.3155 8.45236 17.3099L9.39643 15.5467L10.3405 13.7836C9.58944 13.3814 8.73388 13.2357 7.90138 13.3615L8.20018 15.3391ZM9.39643 15.5467L7.40579 15.74C7.7807 19.6021 11.0385 22.6308 15.0003 22.6308V20.6308V18.6308C13.1216 18.6308 11.5653 17.1894 11.3871 15.3535L9.39643 15.5467ZM15.0003 20.6308V22.6308C18.9603 22.6308 22.2024 19.6192 22.5931 15.7742L20.6033 15.572L18.6136 15.3699C18.4277 17.1995 16.881 18.6308 15.0003 18.6308V20.6308ZM20.6033 15.572L21.6006 17.3057C21.5897 17.3119 21.5787 17.3157 21.5696 17.3175C21.5609 17.3191 21.5555 17.3188 21.5535 17.3185L21.801 15.3339L22.0485 13.3493C21.2249 13.2466 20.365 13.4018 19.606 13.8384L20.6033 15.572ZM21.801 15.3339H19.801V20.1166H21.801H23.801V15.3339H21.801Z" fill="white" mask="url(#path-1-inside-1_242_846)"/>
<mask id="path-3-inside-2_242_846" fill="white">
<path d="M4.76984 13.7389C5.79312 13.7389 6.62563 12.9064 6.62563 11.8831C6.62563 10.8598 5.79312 10.0273 4.76984 10.0273C3.74656 10.0273 2.91406 10.8598 2.91406 11.8831C2.91406 12.9064 3.74656 13.7389 4.76984 13.7389ZM4.76984 10.9648C5.27609 10.9648 5.68813 11.3769 5.68813 11.8831C5.68813 12.3894 5.27609 12.8014 4.76984 12.8014C4.26359 12.8014 3.85156 12.3894 3.85156 11.8831C3.85156 11.3769 4.26359 10.9648 4.76984 10.9648Z"/>
</mask>
<path d="M4.76984 13.7389V15.7389C6.89769 15.7389 8.62563 14.011 8.62563 11.8831H6.62563H4.62563C4.62563 11.8018 4.68856 11.7389 4.76984 11.7389V13.7389ZM6.62563 11.8831H8.62563C8.62563 9.75528 6.8977 8.02734 4.76984 8.02734V10.0273V12.0273C4.68855 12.0273 4.62563 11.9644 4.62563 11.8831H6.62563ZM4.76984 10.0273V8.02734C2.64199 8.02734 0.914062 9.75528 0.914062 11.8831H2.91406H4.91406C4.91406 11.9644 4.85113 12.0273 4.76984 12.0273V10.0273ZM2.91406 11.8831H0.914062C0.914062 14.011 2.64199 15.7389 4.76984 15.7389V13.7389V11.7389C4.85113 11.7389 4.91406 11.8018 4.91406 11.8831H2.91406ZM4.76984 10.9648V12.9648C4.17152 12.9648 3.68813 12.4814 3.68813 11.8831H5.68813H7.68813C7.68813 10.2723 6.38066 8.96484 4.76984 8.96484V10.9648ZM5.68813 11.8831H3.68813C3.68813 11.2848 4.17153 10.8014 4.76984 10.8014V12.8014V14.8014C6.38066 14.8014 7.68813 13.4939 7.68813 11.8831H5.68813ZM4.76984 12.8014V10.8014C5.36816 10.8014 5.85156 11.2848 5.85156 11.8831H3.85156H1.85156C1.85156 13.4939 3.15902 14.8014 4.76984 14.8014V12.8014ZM3.85156 11.8831H5.85156C5.85156 12.4814 5.36817 12.9648 4.76984 12.9648V10.9648V8.96484C3.15902 8.96484 1.85156 10.2723 1.85156 11.8831H3.85156Z" fill="white" mask="url(#path-3-inside-2_242_846)"/>
<mask id="path-5-inside-3_242_846" fill="white">
<path d="M5.50453 7.47859C5.50453 6.21953 4.47984 5.19531 3.22078 5.19531C1.96172 5.19531 0.9375 6.22 0.9375 7.47859C0.9375 8.73719 1.96219 9.76188 3.22078 9.76188C4.47937 9.76188 5.50453 8.73719 5.50453 7.47859ZM1.875 7.47859C1.875 6.73656 2.47875 6.13281 3.22078 6.13281C3.96281 6.13281 4.56703 6.73656 4.56703 7.47859C4.56703 8.22063 3.96328 8.82438 3.22078 8.82438C2.47828 8.82438 1.875 8.22063 1.875 7.47859Z"/>
</mask>
<path d="M5.50453 7.47859H7.50453C7.50453 5.11443 5.58388 3.19531 3.22078 3.19531V5.19531V7.19531C3.37581 7.19531 3.50453 7.32464 3.50453 7.47859H5.50453ZM3.22078 5.19531V3.19531C0.856882 3.19531 -1.0625 5.1157 -1.0625 7.47859H0.9375H2.9375C2.9375 7.3243 3.06656 7.19531 3.22078 7.19531V5.19531ZM0.9375 7.47859H-1.0625C-1.0625 9.84176 0.857618 11.7619 3.22078 11.7619V9.76188V7.76188C3.06676 7.76188 2.9375 7.63262 2.9375 7.47859H0.9375ZM3.22078 9.76188V11.7619C5.58341 11.7619 7.50453 9.84229 7.50453 7.47859H5.50453H3.50453C3.50453 7.63208 3.37534 7.76188 3.22078 7.76188V9.76188ZM1.875 7.47859H3.875C3.875 7.84113 3.58332 8.13281 3.22078 8.13281V6.13281V4.13281C1.37418 4.13281 -0.125 5.63199 -0.125 7.47859H1.875ZM3.22078 6.13281V8.13281C2.85915 8.13281 2.56703 7.84204 2.56703 7.47859H4.56703H6.56703C6.56703 5.63109 5.06648 4.13281 3.22078 4.13281V6.13281ZM4.56703 7.47859H2.56703C2.56703 7.1156 2.85916 6.82438 3.22078 6.82438V8.82438V10.8244C5.0674 10.8244 6.56703 9.32565 6.56703 7.47859H4.56703ZM3.22078 8.82438V6.82438C3.5833 6.82438 3.875 7.11651 3.875 7.47859H1.875H-0.125C-0.125 9.32474 1.37326 10.8244 3.22078 10.8244V8.82438Z" fill="white" mask="url(#path-5-inside-3_242_846)"/>
<mask id="path-7-inside-4_242_846" fill="white">
<path d="M25.2308 10.0273C24.2075 10.0273 23.375 10.8598 23.375 11.8831C23.375 12.9064 24.2075 13.7389 25.2308 13.7389C26.2541 13.7389 27.0866 12.9064 27.0866 11.8831C27.0866 10.8598 26.2541 10.0273 25.2308 10.0273ZM25.2308 12.8014C24.7245 12.8014 24.3125 12.3894 24.3125 11.8831C24.3125 11.3769 24.7245 10.9648 25.2308 10.9648C25.737 10.9648 26.1491 11.3769 26.1491 11.8831C26.1491 12.3894 25.737 12.8014 25.2308 12.8014Z"/>
</mask>
<path d="M25.2308 10.0273V8.02734C23.1029 8.02734 21.375 9.75527 21.375 11.8831H23.375H25.375C25.375 11.9644 25.3121 12.0273 25.2308 12.0273V10.0273ZM23.375 11.8831H21.375C21.375 14.011 23.1029 15.7389 25.2308 15.7389V13.7389V11.7389C25.3121 11.7389 25.375 11.8018 25.375 11.8831H23.375ZM25.2308 13.7389V15.7389C27.3586 15.7389 29.0866 14.011 29.0866 11.8831H27.0866H25.0866C25.0866 11.8018 25.1495 11.7389 25.2308 11.7389V13.7389ZM27.0866 11.8831H29.0866C29.0866 9.75527 27.3586 8.02734 25.2308 8.02734V10.0273V12.0273C25.1495 12.0273 25.0866 11.9644 25.0866 11.8831H27.0866ZM25.2308 12.8014V10.8014C25.8291 10.8014 26.3125 11.2848 26.3125 11.8831H24.3125H22.3125C22.3125 13.4939 23.62 14.8014 25.2308 14.8014V12.8014ZM24.3125 11.8831H26.3125C26.3125 12.4814 25.8291 12.9648 25.2308 12.9648V10.9648V8.96484C23.62 8.96484 22.3125 10.2723 22.3125 11.8831H24.3125ZM25.2308 10.9648V12.9648C24.6325 12.9648 24.1491 12.4814 24.1491 11.8831H26.1491H28.1491C28.1491 10.2723 26.8416 8.96484 25.2308 8.96484V10.9648ZM26.1491 11.8831H24.1491C24.1491 11.2848 24.6325 10.8014 25.2308 10.8014V12.8014V14.8014C26.8416 14.8014 28.1491 13.4939 28.1491 11.8831H26.1491Z" fill="white" mask="url(#path-7-inside-4_242_846)"/>
<mask id="path-9-inside-5_242_846" fill="white">
<path d="M26.7798 5.19531C25.5203 5.19531 24.4961 6.22 24.4961 7.47859C24.4961 8.73719 25.5208 9.76188 26.7798 9.76188C28.0389 9.76188 29.0631 8.73719 29.0631 7.47859C29.0631 6.22 28.0384 5.19531 26.7798 5.19531ZM26.7798 8.82438C26.0373 8.82438 25.4336 8.22063 25.4336 7.47859C25.4336 6.73656 26.0373 6.13281 26.7798 6.13281C27.5223 6.13281 28.1256 6.73656 28.1256 7.47859C28.1256 8.22063 27.5219 8.82438 26.7798 8.82438Z"/>
</mask>
<path d="M26.7798 5.19531V3.19531C24.4157 3.19531 22.4961 5.11543 22.4961 7.47859H24.4961H26.4961C26.4961 7.32457 26.6249 7.19531 26.7798 7.19531V5.19531ZM24.4961 7.47859H22.4961C22.4961 9.84202 24.4165 11.7619 26.7798 11.7619V9.76188V7.76188C26.6251 7.76188 26.4961 7.63235 26.4961 7.47859H24.4961ZM26.7798 9.76188V11.7619C29.1437 11.7619 31.0631 9.84149 31.0631 7.47859H29.0631H27.0631C27.0631 7.63289 26.9341 7.76188 26.7798 7.76188V9.76188ZM29.0631 7.47859H31.0631C31.0631 5.11543 29.143 3.19531 26.7798 3.19531V5.19531V7.19531C26.9339 7.19531 27.0631 7.32457 27.0631 7.47859H29.0631ZM26.7798 8.82438V6.82438C27.1415 6.82438 27.4336 7.1156 27.4336 7.47859H25.4336H23.4336C23.4336 9.32565 24.9332 10.8244 26.7798 10.8244V8.82438ZM25.4336 7.47859H27.4336C27.4336 7.84159 27.1415 8.13281 26.7798 8.13281V6.13281V4.13281C24.9332 4.13281 23.4336 5.63154 23.4336 7.47859H25.4336ZM26.7798 6.13281V8.13281C26.4173 8.13281 26.1256 7.84068 26.1256 7.47859H28.1256H30.1256C30.1256 5.63245 28.6274 4.13281 26.7798 4.13281V6.13281ZM28.1256 7.47859H26.1256C26.1256 7.11606 26.4173 6.82438 26.7798 6.82438V8.82438V10.8244C28.6264 10.8244 30.1256 9.32519 30.1256 7.47859H28.1256Z" fill="white" mask="url(#path-9-inside-5_242_846)"/>
</svg>
