<svg width="50" height="46" viewBox="0 0 50 46" fill="none" xmlns="http://www.w3.org/2000/svg">
<path d="M17.856 17.4308C22.294 17.4308 25.8917 13.8331 25.8917 9.39509C25.8917 4.95709 22.294 1.35938 17.856 1.35938C13.418 1.35938 9.82031 4.95709 9.82031 9.39509C9.82031 13.8331 13.418 17.4308 17.856 17.4308Z" stroke="#2C2C2C" stroke-width="2" stroke-linecap="round" stroke-linejoin="round"/>
<path d="M33.928 44.2171H1.78516V40.6456C1.78516 36.3832 3.47839 32.2954 6.49237 29.2814C9.50635 26.2675 13.5942 24.5742 17.8566 24.5742C22.119 24.5742 26.2068 26.2675 29.2208 29.2814C32.2348 32.2954 33.928 36.3832 33.928 40.6456V44.2171Z" stroke="#2C2C2C" stroke-width="2" stroke-linecap="round" stroke-linejoin="round"/>
<path d="M32.1406 1.35938C34.2718 1.35938 36.3157 2.20599 37.8227 3.71298C39.3297 5.21997 40.1763 7.26389 40.1763 9.39509C40.1763 11.5263 39.3297 13.5702 37.8227 15.0772C36.3157 16.5842 34.2718 17.4308 32.1406 17.4308" stroke="#2C2C2C" stroke-width="2" stroke-linecap="round" stroke-linejoin="round"/>
<path d="M37.8555 25.25C40.8977 26.4073 43.5169 28.4611 45.3663 31.1396C47.2158 33.8181 48.2083 36.995 48.2126 40.25V44.2143H42.8555" stroke="#2C2C2C" stroke-width="2" stroke-linecap="round" stroke-linejoin="round"/>
</svg>
