<svg width="30" height="30" viewBox="0 0 30 30" fill="none" xmlns="http://www.w3.org/2000/svg">
<g clip-path="url(#clip0_367_146)">
<path d="M6.96317 12.856C10.2177 12.856 12.856 10.2177 12.856 6.96317C12.856 3.70863 10.2177 1.07031 6.96317 1.07031C3.70863 1.07031 1.07031 3.70863 1.07031 6.96317C1.07031 10.2177 3.70863 12.856 6.96317 12.856Z" stroke="#2C2C2C" stroke-width="2" stroke-linecap="round" stroke-linejoin="round"/>
<path d="M23.0335 12.856C26.288 12.856 28.9263 10.2177 28.9263 6.96317C28.9263 3.70863 26.288 1.07031 23.0335 1.07031C19.7789 1.07031 17.1406 3.70863 17.1406 6.96317C17.1406 10.2177 19.7789 12.856 23.0335 12.856Z" stroke="#2C2C2C" stroke-width="2" stroke-linecap="round" stroke-linejoin="round"/>
<path d="M6.96317 28.9263C10.2177 28.9263 12.856 26.288 12.856 23.0335C12.856 19.7789 10.2177 17.1406 6.96317 17.1406C3.70863 17.1406 1.07031 19.7789 1.07031 23.0335C1.07031 26.288 3.70863 28.9263 6.96317 28.9263Z" stroke="#2C2C2C" stroke-width="2" stroke-linecap="round" stroke-linejoin="round"/>
<path d="M23.0335 28.9263C26.288 28.9263 28.9263 26.288 28.9263 23.0335C28.9263 19.7789 26.288 17.1406 23.0335 17.1406C19.7789 17.1406 17.1406 19.7789 17.1406 23.0335C17.1406 26.288 19.7789 28.9263 23.0335 28.9263Z" stroke="#2C2C2C" stroke-width="2" stroke-linecap="round" stroke-linejoin="round"/>
</g>
<defs>
<clipPath id="clip0_367_146">
<rect width="30" height="30" fill="white"/>
</clipPath>
</defs>
</svg>
