<svg width="20" height="21" viewBox="0 0 20 21" fill="none" xmlns="http://www.w3.org/2000/svg">
<path d="M14.7637 3.22029C13.8992 2.51243 12.8883 2.00525 11.8041 1.73534C10.7198 1.46543 9.58917 1.43951 8.49368 1.65946C7.08512 1.94824 5.78926 2.63584 4.76046 3.64033C3.73166 4.64483 3.01329 5.92389 2.69093 7.32514C2.36856 8.7264 2.45578 10.1908 2.94221 11.5439C3.42863 12.897 4.29375 14.0817 5.43452 14.957C6.73696 15.9102 7.84589 17.1029 8.70202 18.4711L9.28535 19.4411C9.35944 19.5643 9.46414 19.6663 9.58928 19.7371C9.71442 19.8078 9.85575 19.845 9.99952 19.845C10.1433 19.845 10.2846 19.8078 10.4098 19.7371C10.5349 19.6663 10.6396 19.5643 10.7137 19.4411L11.2728 18.5095C12.0184 17.1989 13.0349 16.0625 14.2545 15.1761C15.2109 14.5181 16.0012 13.6469 16.5632 12.6312C17.1252 11.6155 17.4435 10.4831 17.493 9.32335C17.5424 8.16358 17.3217 7.00818 16.8482 5.94832C16.3747 4.88846 15.6614 3.95313 14.7645 3.21613L14.7637 3.22029ZM9.99868 12.3461C9.33941 12.3461 8.69495 12.1506 8.14678 11.7844C7.59862 11.4181 7.17138 10.8975 6.91908 10.2884C6.66679 9.67932 6.60078 9.0091 6.7294 8.36249C6.85802 7.71589 7.17549 7.12194 7.64166 6.65577C8.10784 6.18959 8.70178 5.87213 9.34838 5.74351C9.99499 5.61489 10.6652 5.6809 11.2743 5.93319C11.8834 6.18549 12.404 6.61273 12.7702 7.16089C13.1365 7.70906 13.332 8.35352 13.332 9.01279C13.332 9.89685 12.9808 10.7447 12.3557 11.3698C11.7306 11.9949 10.8827 12.3461 9.99868 12.3461Z" fill="white"/>
</svg>
