<?xml version="1.0" encoding="UTF-8" standalone="no"?>
<!-- Created with Inkscape (http://www.inkscape.org/) -->

<svg
   width="13.229mm"
   height="13.229mm"
   viewBox="0 0 13.229 13.229"
   version="1.1"
   id="svg1"
   xml:space="preserve"
   inkscape:version="1.4.2 (ebf0e940d0, 2025-05-08)"
   sodipodi:docname="loader.svg"
   xmlns:inkscape="http://www.inkscape.org/namespaces/inkscape"
   xmlns:sodipodi="http://sodipodi.sourceforge.net/DTD/sodipodi-0.dtd"
   xmlns="http://www.w3.org/2000/svg"
   xmlns:svg="http://www.w3.org/2000/svg"><sodipodi:namedview
     id="namedview1"
     pagecolor="#505050"
     bordercolor="#eeeeee"
     borderopacity="1"
     inkscape:showpageshadow="0"
     inkscape:pageopacity="0"
     inkscape:pagecheckerboard="0"
     inkscape:deskcolor="#505050"
     inkscape:document-units="mm"
     inkscape:zoom="2.3233446"
     inkscape:cx="162.48128"
     inkscape:cy="88.234868"
     inkscape:window-width="1600"
     inkscape:window-height="863"
     inkscape:window-x="0"
     inkscape:window-y="0"
     inkscape:window-maximized="1"
     inkscape:current-layer="layer1" /><defs
     id="defs1" /><g
     inkscape:label="Layer 1"
     inkscape:groupmode="layer"
     id="layer1"
     transform="translate(-25.509208,-92.539813)"><g
       id="g3"
       transform="matrix(0.24052727,0,0,0.24052727,21.126593,72.061901)"
       inkscape:export-filename="favicon.png"
       inkscape:export-xdpi="96"
       inkscape:export-ydpi="96"><circle
         style="fill:#f9f9f9;stroke-width:0.322196"
         id="path3"
         cx="45.720863"
         cy="112.63759"
         r="27.5" /><path
         style="fill:#000000;stroke-width:0.400245"
         d="m 45.360704,137.34418 c -1.264497,-0.68567 -2.759236,-1.87085 -3.363875,-2.66722 -0.438451,-0.57748 -0.524488,-0.51255 -0.352374,0.26591 0.06527,0.29523 0.09042,0.56421 0.05587,0.59772 -0.116287,0.11281 -1.65761,-0.7336 -2.204555,-1.21058 -0.675772,-0.58936 -1.390196,-1.55189 -1.848288,-2.49016 l -0.351016,-0.71898 -0.09805,0.59972 c -0.05392,0.32983 -0.129199,0.59971 -0.167273,0.59971 -0.159828,0 -0.826208,-0.5554 -1.217559,-1.01479 -0.535504,-0.62859 -0.981648,-1.48543 -1.245889,-2.39277 -0.114076,-0.39171 -0.329217,-0.97504 -0.478089,-1.29628 -0.77982,-1.68273 -0.882502,-3.94509 -0.278266,-6.13094 0.117077,-0.42352 0.186329,-0.79579 0.153895,-0.82725 -0.03243,-0.0314 -0.221168,0.0954 -0.419408,0.28167 -0.280133,0.26337 -0.374066,0.30442 -0.421606,0.18424 -0.08897,-0.22487 0.08157,-1.19516 0.461059,-2.62332 0.307122,-1.15581 0.540389,-2.57322 0.403363,-2.45099 -0.141358,0.1261 -1.052294,2.95414 -1.220993,3.79062 -0.161112,0.79886 -0.167497,1.00844 -0.04766,1.56446 0.0884,0.41016 0.130613,1.30123 0.116889,2.46724 -0.02491,2.11748 0.11142,2.93996 0.690126,4.1629 0.205933,0.43518 0.429259,1.0007 0.49628,1.2567 0.182394,0.69671 0.877268,1.97049 1.44139,2.64222 0.433256,0.51593 1.612762,1.42925 1.845771,1.42925 0.04375,0 0.493972,0.38722 1.000488,0.86046 0.506521,0.47326 1.066099,0.96734 1.243515,1.09796 0.382829,0.28187 0.347372,0.27639 -1.236517,-0.19087 -4.33177,-1.27792 -8.311801,-3.75749 -11.262845,-7.01677 -1.241149,-1.37078 -1.68802,-1.94855 -2.59514,-3.35532 -3.5174,-5.45479 -4.624744,-12.33061 -3.01683,-18.73236 1.945732,-7.746726 8.025734,-14.211856 15.914983,-16.923066 1.321005,-0.45397 2.540421,-0.75835 2.642286,-0.65954 0.0289,0.028 -0.228958,0.23037 -0.573025,0.44963 -0.976618,0.62237 -2.379823,2.05485 -2.964723,3.02658 -0.4732,0.78616 -1.105206,2.20652 -1.019011,2.29014 0.02052,0.0199 0.227548,-0.27943 0.460096,-0.66515 0.772825,-1.28185 2.121184,-2.70668 3.490655,-3.68861 0.589118,-0.4224 2.018065,-1.08595 2.865588,-1.33066 0.423556,-0.12229 1.037635,-0.33713 1.364622,-0.47739 1.384365,-0.59387 3.610133,-0.53695 4.964869,0.12698 0.234867,0.11511 0.711819,0.2888 1.059889,0.38598 0.92631,0.25864 2.481369,1.03427 3.361486,1.67663 1.140114,0.83215 2.671603,2.58796 3.319026,3.80519 0.396768,0.74598 0.266163,0.0779 -0.167334,-0.85599 -0.838705,-1.80677 -1.995981,-3.13485 -3.675354,-4.2178 -0.400864,-0.2585 -0.728839,-0.48519 -0.728839,-0.50375 0,-0.0789 1.544795,0.36281 2.688078,0.76847 4.942217,1.75353 8.98408,4.84922 12.233605,9.36978 0.444559,0.61845 1.285971,2.094436 1.782437,3.126716 1.330686,2.76683 2.022527,5.45257 2.218255,8.61126 0.10116,1.63249 0.0041,4.12701 -0.211496,5.43616 -1.49092,9.0528 -8.154522,16.53829 -17.141099,19.2553 -0.762907,0.23064 -1.403491,0.40348 -1.423517,0.38405 -0.04003,-0.0388 1.292509,-1.16736 2.747581,-2.32701 1.193318,-0.95104 1.880792,-1.69654 2.29316,-2.48671 0.358311,-0.68659 0.61596,-1.50571 0.617972,-1.96466 8.13e-4,-0.16045 0.192054,-0.62979 0.425231,-1.04298 0.866892,-1.53611 0.970241,-2.28693 0.849934,-6.17471 -0.04555,-1.47187 -0.07587,-1.65399 -0.512376,-3.07679 -0.742945,-2.42165 -0.690277,-2.27918 -0.738007,-1.99641 -0.05671,0.33597 0.133136,1.37496 0.540271,2.95685 0.187624,0.72902 0.310646,1.35506 0.273372,1.39123 -0.03726,0.0361 -0.25022,-0.0545 -0.473226,-0.20153 -0.223004,-0.14699 -0.423877,-0.2494 -0.446383,-0.22755 -0.02252,0.0218 0.03015,0.17311 0.117016,0.33619 0.570139,1.07039 0.894624,2.86763 0.727797,4.03109 -0.13974,0.97456 -0.536702,2.10828 -0.942057,2.6905 -0.207249,0.2977 -0.36596,0.71221 -0.452378,1.18153 -0.253911,1.37896 -1.395313,3.1662 -2.405449,3.76655 l -0.29569,0.17572 v -0.47517 c 0,-0.49549 -0.168232,-0.74278 -0.282918,-0.41589 -0.394273,1.12382 -0.986261,1.95598 -2.023023,2.84375 -0.588752,0.50415 -1.808421,1.25655 -2.036916,1.25655 -0.03609,0 -0.06559,-0.23888 -0.06559,-0.53085 v -0.53085 l -0.417346,0.50477 c -0.763369,0.92329 -1.795084,1.73316 -2.88542,2.26499 -0.308504,0.15047 -0.574626,0.27274 -0.591378,0.2717 -0.01675,-9.7e-4 -0.272381,-0.13307 -0.568067,-0.2934 z M 43.5188,119.8828 c 0.03564,-0.12906 0.06549,-0.34026 0.0663,-0.46933 0.0017,-0.27658 -0.0051,-0.27589 0.754129,-0.0782 0.765315,0.19925 2.365934,0.19925 3.154589,0 0.822754,-0.20787 0.823523,-0.20771 0.825417,0.18252 8.12e-4,0.18643 0.04437,0.40441 0.09659,0.48439 0.236087,0.36166 1.701672,-0.96375 2.107519,-1.90593 0.195386,-0.45361 0.20787,-1.21259 0.02394,-1.45656 -0.123184,-0.16341 -0.192303,-0.12707 -0.743953,0.39122 -1.036981,0.97426 -2.300047,1.44989 -3.851267,1.45023 -1.637535,3.5e-4 -2.933511,-0.4826 -3.935213,-1.4665 -0.306608,-0.30116 -0.58217,-0.54756 -0.612356,-0.54756 -0.0915,0 -0.291043,0.63883 -0.289921,0.92817 0.0012,0.35304 0.422098,1.22105 0.805198,1.66121 0.277493,0.31882 1.302039,1.06104 1.464643,1.06104 0.03825,0 0.09871,-0.10562 0.134371,-0.23467 z m 3.631517,-2.41897 c 0.392908,-0.0808 0.923664,-0.25044 1.179457,-0.37702 0.510499,-0.25262 1.063018,-0.62558 1.0631,-0.71759 2.4e-5,-0.0322 -1.536211,-0.047 -3.413865,-0.0326 -1.877649,0.0143 -3.433506,0.026 -3.457454,0.026 -0.02394,4e-5 0.04863,0.101 0.161283,0.22443 0.264485,0.28968 1.376911,0.78245 2.047141,0.90682 0.780539,0.14482 1.620354,0.13438 2.420338,-0.0301 z m -7.771716,-1.93943 c 0.772114,-1.06202 1.973966,-1.76778 3.150424,-1.85003 l 0.71659,-0.05 -0.05123,-0.53419 c -0.04142,-0.43192 -0.0049,-0.60407 0.191129,-0.89923 l 0.242348,-0.36503 0.0706,0.395 c 0.08884,0.49706 0.52176,0.94119 1.258016,1.29061 0.702419,0.33334 1.258198,0.29944 2.133612,-0.13019 0.73632,-0.36138 1.012448,-0.68211 1.012448,-1.17599 v -0.3747 l 0.275192,0.26695 c 0.288791,0.28012 0.377835,0.75266 0.235879,1.25173 -0.07706,0.27092 -0.07472,0.27204 0.694333,0.33459 1.326962,0.10791 2.431733,0.78134 3.325504,2.02715 0.311105,0.43364 0.324581,0.44006 0.616542,0.29361 0.480905,-0.24123 1.559306,-1.43306 1.866961,-2.06336 0.508406,-1.04155 0.712692,-2.54949 0.92149,-6.80196 l 0.07648,-1.55763 -0.286588,-0.43834 c -0.449635,-0.68773 -1.839579,-1.75397 -3.048536,-2.33857 -1.220529,-0.59019 -2.543586,-0.98553 -4.032121,-1.20482 -1.333944,-0.1965 -4.470714,-0.19639 -5.815268,2.1e-4 -1.99564,0.29181 -4.306706,1.18647 -5.614901,2.17365 -0.748947,0.56517 -1.687684,1.58109 -1.687595,1.82634 2.6e-4,0.73682 0.250973,4.28887 0.379533,5.37718 0.247014,2.09101 0.507138,2.88666 1.232152,3.76886 0.331043,0.40282 1.484016,1.40802 1.615006,1.40802 0.03528,0 0.27017,-0.2834 0.521992,-0.62975 z m 0.762284,-7.27078 c -0.23466,-0.20339 -0.348335,-0.4129 -0.390835,-0.72033 l -0.05993,-0.43351 -0.336643,0.11049 c -0.185154,0.0608 -0.465078,0.1972 -0.622048,0.30315 -0.156976,0.10593 -0.31547,0.19264 -0.352212,0.19264 -0.146575,0 0.27258,-0.6138 0.622902,-0.91216 0.505667,-0.43065 1.02813,-0.57807 1.879307,-0.53024 0.915927,0.0515 1.65013,0.38862 2.069668,0.9504 0.477915,0.63995 0.394629,0.75859 -0.236773,0.33729 -0.705618,-0.47083 -0.848122,-0.46977 -0.848122,0.007 0,0.27326 -0.08407,0.45461 -0.314299,0.67792 -0.421737,0.40909 -0.95205,0.41587 -1.411016,0.018 z m 10.120372,0.0168 c -0.215292,-0.17572 -0.331396,-0.36694 -0.332465,-0.54756 -8.13e-4,-0.15265 -0.04314,-0.34106 -0.09385,-0.41869 -0.105779,-0.16192 -0.349449,-0.0651 -0.952856,0.37838 -0.449496,0.3304 -0.470933,0.11279 -0.04495,-0.45626 0.45841,-0.61235 1.178725,-0.91937 2.168529,-0.92427 1.000131,-0.006 1.694162,0.28808 2.160126,0.91204 0.418163,0.55994 0.394252,0.65087 -0.09031,0.34338 -0.221766,-0.14073 -0.531344,-0.28608 -0.687945,-0.32301 -0.265208,-0.0626 -0.289798,-0.038 -0.358588,0.35687 -0.150618,0.86478 -1.095489,1.22779 -1.767701,0.67912 z m -8.233775,-2.72149 c -0.576208,-0.15322 -1.402705,-0.2798 -2.042939,-0.3129 -0.96807,-0.05 -1.154731,-0.0284 -1.87291,0.2162 -0.438719,0.14946 -0.822109,0.24805 -0.851974,0.21909 -0.09483,-0.092 0.586196,-0.92831 0.956972,-1.17518 0.630199,-0.4196 1.428294,-0.57931 2.570607,-0.51443 1.067493,0.0606 2.561079,0.42 3.057833,0.73572 0.553512,0.3518 0.202849,1.12263 -0.500428,1.10005 -0.192197,-0.007 -0.78492,-0.12702 -1.317161,-0.26855 z m 5.986282,0.0383 c -0.282671,-0.29186 -0.299772,-0.60703 -0.04507,-0.83062 0.300039,-0.2634 2.026196,-0.70035 3.043244,-0.77039 1.285288,-0.0886 2.222529,0.18072 2.857415,0.82075 0.380404,0.38348 0.68458,0.80255 0.68458,0.94315 0,0.0217 -0.399178,-0.0946 -0.887066,-0.25848 -0.777093,-0.26106 -1.000374,-0.29228 -1.801013,-0.25184 -0.502672,0.0253 -1.438381,0.16827 -2.079355,0.31751 -1.421062,0.33083 -1.480333,0.33183 -1.772736,0.03 z m 10.088316,6.15363 c 0.52852,-1.02591 0.425191,-2.25779 -0.256681,-3.06022 l -0.333912,-0.39293 -0.06825,0.30884 c -0.03755,0.16988 -0.07398,1.17268 -0.08098,2.22844 -0.01268,1.91301 -0.01198,1.91896 0.202205,1.73094 0.118214,-0.10379 0.36014,-0.47055 0.537618,-0.81507 z M 34.4471,110.42388 c 0,-1.25852 -0.04199,-2.10497 -0.106333,-2.14355 -0.133153,-0.0798 -0.720752,0.80582 -0.862117,1.29941 -0.152764,0.53339 -0.130857,1.16254 0.05868,1.68532 0.193282,0.53309 0.651108,1.23861 0.803768,1.23861 0.0661,0 0.106,-0.78276 0.105999,-2.07979 z m -0.357442,-6.1858 c -0.03616,-0.58797 -0.09546,-1.60878 -0.131763,-2.26847 -0.08156,-1.48186 -0.130291,-1.6391 -0.339475,-1.09512 -0.193233,0.5025 -0.216409,2.55293 -0.03771,3.33752 0.330799,1.4525 0.597535,1.46617 0.50896,0.0261 z m 24.062799,0.57364 c 0.398535,-1.10926 0.311491,-4.58364 -0.104727,-4.17991 -0.03638,0.0352 -0.109456,0.76142 -0.162388,1.61359 -0.05292,0.85219 -0.12887,1.81642 -0.168764,2.14275 -0.122331,1.00063 0.13774,1.25337 0.435874,0.42357 z M 37.817005,99.484084 c -0.07416,-2.3096 -0.166751,-2.64739 -0.445802,-1.6262 -0.198264,0.72557 -0.11627,3.082816 0.126432,3.634776 0.328771,0.74771 0.394577,0.33383 0.31937,-2.008576 z m 16.572849,1.732036 c 0.223047,-0.72854 0.219994,-2.676426 -0.0053,-3.412446 -0.09319,-0.30436 -0.208139,-0.51236 -0.255455,-0.4622 -0.09848,0.10443 -0.235631,4.369876 -0.143382,4.459356 0.121064,0.11744 0.243398,-0.0596 0.404177,-0.58471 z m -5.013012,-1.526906 c 0.315454,-0.91564 0.24664,-3.26021 -0.114918,-3.91552 -0.116564,-0.21128 -0.118876,-0.21136 -0.201,-0.008 -0.100096,0.24851 -0.126776,4.02813 -0.03015,4.272346 0.08416,0.21274 0.188814,0.10713 0.346074,-0.349376 z m -6.542934,-1.9002 c 0,-1.79588 -0.02958,-2.29381 -0.134404,-2.26044 -0.275656,0.0878 -0.413775,1.03291 -0.377323,2.58204 0.03414,1.45069 0.143451,1.981646 0.407985,1.981646 0.06351,0 0.103741,-0.893266 0.103741,-2.303246 z m -6.861683,-0.72698 c 1.851255,-1.3368 4.445949,-2.37761 6.915444,-2.774 1.580036,-0.25362 4.195062,-0.25244 5.806252,0.002 3.225297,0.51057 6.532578,2.04775 8.7128,4.04961 0.504302,0.46304 0.942077,0.81748 0.97284,0.78765 0.03077,-0.0299 -0.04206,-0.32961 -0.161826,-0.66614 -0.243349,-0.68383 -0.658298,-1.10977 -2.084314,-2.13951 -2.404311,-1.73618 -5.698583,-2.85737 -9.145345,-3.11256 -4.027867,-0.29821 -8.181993,0.82011 -11.196937,3.01432 -1.46372,1.06527 -1.754498,1.36299 -2.040606,2.08926 -0.149128,0.37856 -0.271142,0.72713 -0.271142,0.77459 0,0.0475 0.374986,-0.25467 0.833305,-0.67143 0.458319,-0.41677 1.205107,-1.02625 1.659529,-1.35439 z m 3.403128,-4.58468 c 0.256325,-0.48695 0.659082,-1.18304 0.895023,-1.54688 0.23594,-0.36384 0.408686,-0.6812 0.383881,-0.70527 -0.09479,-0.0919 -1.041988,0.81779 -1.407278,1.35161 -0.440023,0.64305 -0.854988,1.59921 -0.759248,1.74946 0.161437,0.25337 0.455356,-0.0277 0.887622,-0.84892 z m 13.913475,0.88068 c 0.335906,-0.32584 -1.51864,-3.06975 -2.074768,-3.06975 -0.124683,0 -0.08454,0.079 0.323325,0.63581 0.15109,0.20629 0.514705,0.85163 0.808035,1.4341 0.493724,0.98038 0.718204,1.21828 0.943408,0.99984 z m -3.625931,-1.74449 c -0.252215,-0.93926 -1.227402,-2.64852 -1.232148,-2.15964 -0.0024,0.25049 0.830078,2.71391 0.97402,2.88215 0.109224,0.12765 0.154634,0.12989 0.2746,0.0136 0.119961,-0.11637 0.117238,-0.2381 -0.01646,-0.73604 z m -7.214113,0.52603 c 0.08659,-0.12907 0.308658,-0.7435 0.493462,-1.36537 0.184809,-0.62187 0.365205,-1.20856 0.400877,-1.30372 0.116633,-0.31112 -0.398479,0.20171 -0.694117,0.69103 -0.304339,0.50374 -0.675285,1.5811 -0.675285,1.96127 0,0.32076 0.264838,0.33011 0.475063,0.0168 z m 3.651211,-0.26076 c 0.149489,-0.49714 0.176652,-1.20815 0.07781,-2.03671 -0.122644,-1.02803 -0.201763,-1.23819 -0.361754,-0.96086 -0.134652,0.23338 -0.239691,2.29892 -0.142471,2.80159 0.07702,0.39829 0.330551,0.5148 0.426418,0.19598 z"
         id="path2" /></g></g></svg>
