<?xml version="1.0" encoding="UTF-8" standalone="no"?>
<!-- Created with Inkscape (http://www.inkscape.org/) -->

<svg
   width="59.388878mm"
   height="13.229mm"
   viewBox="0 0 59.388877 13.229"
   version="1.1"
   id="svg1"
   xml:space="preserve"
   inkscape:version="1.4.2 (ebf0e940d0, 2025-05-08)"
   sodipodi:docname="logo-white.svg"
   xmlns:inkscape="http://www.inkscape.org/namespaces/inkscape"
   xmlns:sodipodi="http://sodipodi.sourceforge.net/DTD/sodipodi-0.dtd"
   xmlns="http://www.w3.org/2000/svg"
   xmlns:svg="http://www.w3.org/2000/svg"><sodipodi:namedview
     id="namedview1"
     pagecolor="#505050"
     bordercolor="#eeeeee"
     borderopacity="1"
     inkscape:showpageshadow="0"
     inkscape:pageopacity="0"
     inkscape:pagecheckerboard="0"
     inkscape:deskcolor="#505050"
     inkscape:document-units="mm"
     inkscape:zoom="2.3233446"
     inkscape:cx="136.65644"
     inkscape:cy="-28.837737"
     inkscape:window-width="1600"
     inkscape:window-height="863"
     inkscape:window-x="0"
     inkscape:window-y="0"
     inkscape:window-maximized="1"
     inkscape:current-layer="layer1" /><defs
     id="defs1" /><g
     inkscape:label="Layer 1"
     inkscape:groupmode="layer"
     id="layer1"
     transform="translate(-22.284283,-123.50655)"><circle
       style="fill:#b3b3b3;stroke-width:0.0774969"
       id="path3-3"
       cx="28.898783"
       cy="130.12105"
       r="6.6145" /><path
       style="fill:#f2f2f2;stroke-width:0.0962698"
       d="m 28.812156,136.06368 c -0.304146,-0.16492 -0.663671,-0.44999 -0.809103,-0.64154 -0.10546,-0.1389 -0.126154,-0.12328 -0.08476,0.064 0.0157,0.071 0.02175,0.13571 0.01344,0.14377 -0.02797,0.0271 -0.3987,-0.17645 -0.530255,-0.29118 -0.162542,-0.14176 -0.33438,-0.37327 -0.444564,-0.59895 l -0.08443,-0.17293 -0.02358,0.14424 c -0.01297,0.0793 -0.03108,0.14425 -0.04023,0.14425 -0.03844,0 -0.198726,-0.13359 -0.292856,-0.24408 -0.128804,-0.1512 -0.236114,-0.35729 -0.299671,-0.57553 -0.02744,-0.0942 -0.07918,-0.23452 -0.114993,-0.31179 -0.187568,-0.40474 -0.212266,-0.9489 -0.06693,-1.47466 0.02816,-0.10187 0.04482,-0.19141 0.03702,-0.19897 -0.0078,-0.008 -0.0532,0.0229 -0.100879,0.0677 -0.06738,0.0633 -0.08997,0.0732 -0.101408,0.0443 -0.0214,-0.0541 0.01962,-0.28747 0.110898,-0.63098 0.07387,-0.278 0.129978,-0.61893 0.09702,-0.58953 -0.034,0.0303 -0.253106,0.71055 -0.293683,0.91175 -0.03875,0.19214 -0.04029,0.24255 -0.01146,0.37629 0.02126,0.0987 0.03142,0.31298 0.02811,0.59344 -0.006,0.50931 0.0268,0.70714 0.165994,1.00129 0.04953,0.10467 0.103248,0.2407 0.119369,0.30227 0.04387,0.16758 0.211007,0.47396 0.346693,0.63553 0.10421,0.12409 0.387914,0.34377 0.443959,0.34377 0.01052,0 0.118813,0.0931 0.240644,0.20697 0.121832,0.11383 0.256426,0.23267 0.2991,0.26409 0.09208,0.0678 0.08355,0.0665 -0.297416,-0.0459 -1.041909,-0.30738 -1.999215,-0.90378 -2.709022,-1.68773 -0.29853,-0.32971 -0.406015,-0.46868 -0.624202,-0.80704 -0.84603,-1.31203 -1.112377,-2.96585 -0.72563,-4.50565 0.468002,-1.86329 1.930408,-3.41834 3.827988,-4.07045 0.317738,-0.1092 0.61104,-0.18241 0.635542,-0.15864 0.007,0.007 -0.05507,0.0554 -0.137828,0.10815 -0.234904,0.14969 -0.572413,0.49424 -0.713097,0.72797 -0.113818,0.18909 -0.265832,0.53073 -0.2451,0.55084 0.0049,0.005 0.05473,-0.0672 0.110665,-0.15998 0.185886,-0.30832 0.510203,-0.65103 0.839598,-0.88722 0.141699,-0.10159 0.4854,-0.2612 0.689252,-0.32006 0.101877,-0.0294 0.24958,-0.0811 0.328229,-0.11482 0.332978,-0.14284 0.868335,-0.12915 1.194186,0.0305 0.05649,0.0277 0.171212,0.0695 0.254933,0.0928 0.222802,0.0622 0.596837,0.24877 0.808529,0.40327 0.274228,0.20016 0.642593,0.62248 0.798316,0.91526 0.09543,0.17942 0.06402,0.0187 -0.04025,-0.20589 -0.201732,-0.43458 -0.480088,-0.75402 -0.884023,-1.0145 -0.09642,-0.0622 -0.175306,-0.1167 -0.175306,-0.12116 0,-0.019 0.371565,0.0873 0.646556,0.18483 1.188738,0.42178 2.160916,1.16637 2.942516,2.25369 0.106928,0.14876 0.309311,0.50377 0.428724,0.75206 0.320067,0.6655 0.486473,1.31149 0.533551,2.07124 0.02433,0.39266 9.86e-4,0.99266 -0.05087,1.30755 -0.358607,2.17744 -1.961385,3.97791 -4.122902,4.63142 -0.1835,0.0555 -0.337578,0.097 -0.342395,0.0924 -0.0096,-0.009 0.310884,-0.28078 0.660868,-0.55971 0.287026,-0.22875 0.452382,-0.40807 0.551568,-0.59812 0.08618,-0.16515 0.148155,-0.36217 0.148639,-0.47256 1.96e-4,-0.0386 0.04619,-0.15148 0.10228,-0.25086 0.208511,-0.36948 0.233369,-0.55007 0.204432,-1.48519 -0.01096,-0.35402 -0.01825,-0.39783 -0.12324,-0.74005 -0.178699,-0.58247 -0.166031,-0.5482 -0.177511,-0.48019 -0.01364,0.0808 0.03202,0.33071 0.12995,0.7112 0.04513,0.17535 0.07472,0.32593 0.06575,0.33463 -0.009,0.009 -0.06019,-0.0131 -0.113824,-0.0485 -0.05364,-0.0354 -0.101954,-0.06 -0.107367,-0.0547 -0.0054,0.005 0.0073,0.0416 0.02815,0.0809 0.137134,0.25746 0.215181,0.68974 0.175055,0.96958 -0.03361,0.23441 -0.129092,0.5071 -0.226591,0.64714 -0.04985,0.0716 -0.08802,0.17131 -0.108809,0.28419 -0.06107,0.33168 -0.335611,0.76156 -0.578576,0.90596 l -0.07112,0.0423 v -0.11429 c 0,-0.11918 -0.04046,-0.17866 -0.06805,-0.10004 -0.09483,0.27031 -0.237223,0.47047 -0.486592,0.684 -0.141611,0.12126 -0.434975,0.30224 -0.489934,0.30224 -0.0087,0 -0.01578,-0.0575 -0.01578,-0.12769 v -0.12768 l -0.100383,0.12141 c -0.183611,0.22208 -0.431767,0.41687 -0.694023,0.54479 -0.0742,0.0362 -0.138213,0.0656 -0.142242,0.0653 -0.004,-2.3e-4 -0.06552,-0.032 -0.136636,-0.0706 z m -0.443028,-4.19994 c 0.0086,-0.031 0.01575,-0.0818 0.01595,-0.11288 4.09e-4,-0.0665 -0.0012,-0.0664 0.181389,-0.0188 0.184079,0.0479 0.569071,0.0479 0.758764,0 0.197895,-0.05 0.19808,-0.05 0.198536,0.0439 1.95e-4,0.0448 0.01067,0.0973 0.02323,0.11651 0.05679,0.087 0.409299,-0.23181 0.506916,-0.45843 0.047,-0.10911 0.05,-0.29166 0.0058,-0.35034 -0.02963,-0.0393 -0.04625,-0.0306 -0.178941,0.0941 -0.249422,0.23433 -0.553224,0.34873 -0.926334,0.34882 -0.393872,8e-5 -0.70559,-0.11608 -0.946527,-0.35274 -0.07375,-0.0724 -0.140027,-0.1317 -0.147288,-0.1317 -0.02201,0 -0.07,0.15366 -0.06973,0.22325 2.89e-4,0.0849 0.101526,0.2937 0.193672,0.39957 0.06674,0.0767 0.313176,0.25521 0.352287,0.25521 0.0092,0 0.02374,-0.0254 0.03232,-0.0564 z m 0.873479,-0.58182 c 0.09451,-0.0194 0.222166,-0.0602 0.283692,-0.0907 0.122789,-0.0608 0.255684,-0.15047 0.255704,-0.1726 6e-6,-0.008 -0.3695,-0.0113 -0.821127,-0.008 -0.451626,0.003 -0.825852,0.006 -0.831612,0.006 -0.0058,1e-5 0.0117,0.0243 0.03879,0.054 0.06362,0.0697 0.331185,0.1882 0.492394,0.21811 0.187741,0.0348 0.389739,0.0323 0.582157,-0.007 z m -1.86931,-0.46649 c 0.185715,-0.25544 0.474793,-0.4252 0.757763,-0.44498 l 0.17236,-0.012 -0.01232,-0.12849 c -0.01,-0.10389 -0.0012,-0.14529 0.04597,-0.21629 l 0.05829,-0.0878 0.01698,0.095 c 0.02137,0.11956 0.125497,0.22638 0.302587,0.31043 0.168951,0.0802 0.302631,0.072 0.513192,-0.0313 0.177105,-0.0869 0.243521,-0.16407 0.243521,-0.28286 v -0.0901 l 0.06619,0.0642 c 0.06946,0.0674 0.09088,0.18104 0.05674,0.30108 -0.01853,0.0652 -0.01797,0.0654 0.167006,0.0805 0.31917,0.026 0.584898,0.18793 0.799874,0.48758 0.07483,0.1043 0.07807,0.10585 0.148295,0.0706 0.115671,-0.058 0.375056,-0.34469 0.449055,-0.49629 0.122286,-0.25053 0.171422,-0.61322 0.221644,-1.63606 l 0.0184,-0.37465 -0.06893,-0.10543 c -0.108149,-0.16542 -0.442469,-0.42188 -0.733256,-0.56249 -0.293571,-0.14196 -0.611802,-0.23705 -0.969835,-0.2898 -0.32085,-0.0473 -1.075329,-0.0472 -1.398731,5e-5 -0.480005,0.0702 -1.03588,0.28538 -1.350536,0.52283 -0.180143,0.13593 -0.405934,0.38029 -0.405913,0.43928 6.3e-5,0.17723 0.06037,1.03159 0.09129,1.29336 0.05941,0.50294 0.121981,0.69432 0.296366,0.90651 0.07963,0.0969 0.356946,0.33867 0.388453,0.33867 0.0085,0 0.06498,-0.0682 0.125553,-0.15147 z m 0.18335,-1.74882 c -0.05644,-0.0489 -0.08378,-0.0993 -0.09401,-0.17326 l -0.01441,-0.10427 -0.08097,0.0266 c -0.04453,0.0146 -0.111864,0.0474 -0.149619,0.0729 -0.03776,0.0255 -0.07588,0.0463 -0.08472,0.0463 -0.03525,0 0.06556,-0.14764 0.149825,-0.2194 0.121627,-0.10358 0.247294,-0.13904 0.452025,-0.12754 0.220305,0.0124 0.396901,0.0935 0.497811,0.2286 0.114952,0.15393 0.09492,0.18246 -0.05695,0.0811 -0.16972,-0.11325 -0.203996,-0.11299 -0.203996,0.002 0,0.0657 -0.02022,0.10935 -0.0756,0.16306 -0.101439,0.0984 -0.228994,0.10003 -0.339388,0.004 z m 2.434226,0.004 c -0.05178,-0.0423 -0.07971,-0.0883 -0.07997,-0.1317 -1.96e-4,-0.0367 -0.01038,-0.082 -0.02257,-0.10071 -0.02544,-0.0389 -0.08405,-0.0157 -0.229188,0.091 -0.108116,0.0795 -0.113273,0.0271 -0.01081,-0.10974 0.11026,-0.14729 0.283516,-0.22114 0.52159,-0.22231 0.240559,-0.001 0.407493,0.0693 0.51957,0.21937 0.100579,0.13468 0.09483,0.15655 -0.02172,0.0826 -0.05334,-0.0339 -0.127803,-0.0688 -0.16547,-0.0777 -0.06379,-0.0151 -0.0697,-0.009 -0.08625,0.0858 -0.03623,0.208 -0.263495,0.29531 -0.42518,0.16334 z m -1.980447,-0.65459 c -0.138594,-0.0369 -0.337389,-0.0673 -0.491383,-0.0753 -0.232847,-0.012 -0.277744,-0.007 -0.450486,0.052 -0.105524,0.0359 -0.19774,0.0597 -0.204923,0.0527 -0.02281,-0.0221 0.140996,-0.22329 0.230178,-0.28266 0.15158,-0.10093 0.343544,-0.13934 0.618301,-0.12374 0.256761,0.0146 0.616009,0.10102 0.735492,0.17696 0.133135,0.0846 0.04879,0.27003 -0.120366,0.26459 -0.04623,-0.002 -0.188795,-0.0305 -0.316813,-0.0646 z m 1.439864,0.009 c -0.06799,-0.0702 -0.0721,-0.14601 -0.01084,-0.19979 0.07217,-0.0633 0.487355,-0.16845 0.731983,-0.1853 0.309147,-0.0213 0.534579,0.0435 0.687286,0.19741 0.0915,0.0922 0.164661,0.19304 0.164661,0.22686 0,0.005 -0.09601,-0.0228 -0.213364,-0.0622 -0.186912,-0.0628 -0.240617,-0.0703 -0.433193,-0.0606 -0.120906,0.006 -0.34597,0.0405 -0.500141,0.0764 -0.341804,0.0796 -0.356061,0.0798 -0.426392,0.007 z m 2.426515,1.48011 c 0.127123,-0.24675 0.10227,-0.54306 -0.06174,-0.73606 l -0.08031,-0.0945 -0.01642,0.0743 c -0.009,0.0409 -0.01779,0.28206 -0.01948,0.536 -0.0031,0.46013 -0.0029,0.46156 0.04864,0.41634 0.02843,-0.025 0.08662,-0.11318 0.129312,-0.19605 z m -5.689668,-0.31677 c 0,-0.3027 -0.0101,-0.5063 -0.02558,-0.51558 -0.03203,-0.0192 -0.173361,0.19382 -0.207363,0.31255 -0.03674,0.12829 -0.03147,0.27962 0.01411,0.40536 0.04649,0.12822 0.15661,0.29792 0.193329,0.29792 0.0159,0 0.02549,-0.18827 0.02549,-0.50025 z m -0.08598,-1.48785 c -0.0087,-0.14142 -0.02296,-0.38695 -0.03169,-0.54563 -0.01962,-0.35643 -0.03134,-0.39425 -0.08165,-0.2634 -0.04648,0.12086 -0.05205,0.61404 -0.0091,0.80276 0.07957,0.34937 0.143723,0.35265 0.122418,0.006 z m 5.78776,0.13798 c 0.09586,-0.26681 0.07492,-1.10249 -0.02519,-1.00538 -0.0088,0.008 -0.02633,0.18314 -0.03906,0.38811 -0.01273,0.20497 -0.031,0.4369 -0.04059,0.51539 -0.02942,0.24068 0.03313,0.30147 0.10484,0.10188 z m -4.891231,-1.28144 c -0.01784,-0.55553 -0.04011,-0.63677 -0.107228,-0.39115 -0.04769,0.17452 -0.02797,0.7415 0.03041,0.87426 0.07908,0.17985 0.09491,0.0803 0.07682,-0.48311 z m 3.986222,0.4166 c 0.05365,-0.17524 0.05291,-0.64376 -0.0013,-0.82079 -0.02241,-0.0732 -0.05006,-0.12324 -0.06144,-0.11117 -0.02369,0.0251 -0.05667,1.05107 -0.03449,1.0726 0.02912,0.0282 0.05854,-0.0143 0.09722,-0.14064 z m -1.205761,-0.36721 c 0.07587,-0.22024 0.05932,-0.78417 -0.02764,-0.94179 -0.02804,-0.0508 -0.02859,-0.0508 -0.04835,-0.002 -0.02408,0.0598 -0.03049,0.96887 -0.0073,1.02761 0.02024,0.0512 0.04541,0.0258 0.08324,-0.084 z m -1.573754,-0.45705 c 0,-0.43196 -0.0071,-0.55173 -0.03233,-0.5437 -0.0663,0.0211 -0.09952,0.24844 -0.09076,0.62105 0.0082,0.34893 0.0345,0.47664 0.09813,0.47664 0.01528,0 0.02495,-0.21485 0.02495,-0.55399 z m -1.650422,-0.17486 c 0.445277,-0.32154 1.069372,-0.57188 1.663353,-0.66722 0.380042,-0.061 1.009027,-0.0607 1.396562,4.8e-4 0.775772,0.1228 1.571263,0.49254 2.095666,0.97404 0.121298,0.11137 0.226595,0.19662 0.233994,0.18945 0.0074,-0.007 -0.01012,-0.0793 -0.03892,-0.16022 -0.05853,-0.16448 -0.158339,-0.26693 -0.501334,-0.51462 -0.578303,-0.41759 -1.370665,-0.68727 -2.199705,-0.74865 -0.968812,-0.0717 -1.967993,0.19726 -2.693169,0.72503 -0.352065,0.25622 -0.422005,0.32783 -0.490821,0.50252 -0.03587,0.0911 -0.06522,0.17489 -0.06522,0.18631 0,0.0114 0.09019,-0.0613 0.200432,-0.1615 0.110238,-0.10024 0.289861,-0.24684 0.399162,-0.32577 z m 0.818545,-1.10274 c 0.06165,-0.11713 0.158527,-0.28455 0.215278,-0.37207 0.05675,-0.0875 0.0983,-0.16385 0.09233,-0.16963 -0.0228,-0.0221 -0.250626,0.1967 -0.338488,0.32509 -0.105838,0.15467 -0.205648,0.38466 -0.18262,0.4208 0.03883,0.0609 0.109525,-0.007 0.213497,-0.20419 z m 3.34657,0.21183 c 0.0808,-0.0784 -0.365274,-0.73836 -0.499038,-0.73836 -0.02999,0 -0.02033,0.019 0.07777,0.15293 0.03634,0.0496 0.1238,0.20484 0.194354,0.34494 0.118754,0.23581 0.172748,0.29303 0.226914,0.24049 z m -0.872135,-0.4196 c -0.06067,-0.22592 -0.295224,-0.63704 -0.296365,-0.51945 -5.77e-4,0.0602 0.199656,0.65277 0.234278,0.69323 0.02627,0.0307 0.03719,0.0312 0.06605,0.003 0.02885,-0.028 0.0282,-0.0573 -0.004,-0.17704 z m -1.735191,0.12652 c 0.02083,-0.031 0.07424,-0.17883 0.118691,-0.32841 0.04445,-0.14957 0.08784,-0.29069 0.09642,-0.31358 0.02805,-0.0748 -0.09585,0.0485 -0.166954,0.16622 -0.0732,0.12116 -0.162424,0.38029 -0.162424,0.47174 0,0.0771 0.0637,0.0794 0.114265,0.004 z m 0.878216,-0.0627 c 0.03596,-0.11957 0.04249,-0.29059 0.01872,-0.48988 -0.0295,-0.24727 -0.04853,-0.29782 -0.08701,-0.23111 -0.03239,0.0561 -0.05765,0.55295 -0.03427,0.67386 0.01852,0.0958 0.07951,0.12382 0.102565,0.0471 z"
       id="path2-7" /><path
       d="m 44.6928,132.74196 h -1.437907 l -1.444443,-1.47712 q -0.0915,-0.0915 -0.150326,-0.16994 -0.02614,0 -0.62745,0.60131 -0.647058,0.64706 -0.797385,0.75817 v 0.28758 h -1.065358 v -4.71895 h 1.065358 v 3.05882 q 0.104575,-0.14379 0.235294,-0.27451 l 2.78431,-2.78431 H 44.6928 l -2.143788,2.14379 q -0.104575,0.10457 -0.248366,0.22222 0.111111,0.0784 0.248366,0.20915 z m 1.359477,-4.40523 h -1.058822 v -0.66666 h 1.058822 z m 0,4.40523 h -1.058822 v -3.66013 h 1.058822 z m 4.679733,-3.66013 -1.601306,1.73203 q -0.06536,0.0654 -0.156862,0.14379 0.05882,0.0457 0.156862,0.14379 l 1.581698,1.64052 H 49.37907 l -0.86928,-0.9085 q -0.07843,-0.0654 -0.202614,-0.21568 0,0.007 -0.24183,0.28104 l -0.339869,0.37909 v 0.46405 h -1.058822 v -4.89542 l 1.058822,-0.35294 v 3.62091 q 0.0915,-0.16993 0.235294,-0.39216 l 1.503266,-1.64052 z m 4.51634,2.13072 h -3.189539 v 0.11111 q 0,0.15033 0.104575,0.26797 0.104575,0.11111 0.248366,0.11111 h 2.732023 l -0.130719,1.03922 h -2.601304 q -0.588235,0 -0.999999,-0.41177 -0.411764,-0.4183 -0.411764,-1.00653 v -0.82353 q 0,-0.58823 0.411764,-1 0.4183,-0.4183 0.999999,-0.4183 h 1.418299 q 0.588235,0 0.999999,0.4183 0.4183,0.41177 0.4183,1 z m -1.065358,-0.59477 v -0.17647 q 0,-0.14379 -0.104575,-0.24837 -0.104575,-0.11111 -0.248366,-0.11111 h -1.418299 q -0.143791,0 -0.248366,0.11111 -0.104575,0.10458 -0.104575,0.24837 v 0.17647 z m 9.777764,2.12418 h -1.22222 l -0.522876,-1.05882 h -2.738559 l -0.522875,1.05882 h -1.228757 l 2.470586,-4.71241 h 1.294116 z m -2.307187,-2.12418 q -0.346404,-0.6536 -0.444443,-0.85621 -0.24183,-0.4902 -0.366013,-0.89542 -0.143791,0.50326 -0.803921,1.75163 z m 4.843131,-1.53595 -0.117647,1.05229 q -0.398692,-0.2353 -0.673202,-0.17647 -0.503267,0.11765 -0.503267,1.03268 v 1.75816 h -1.065359 v -3.66666 h 1.052287 v 0.54249 q 0.169934,-0.42484 0.516339,-0.54249 0.202614,-0.0719 0.477124,-0.0457 0.137254,0.007 0.313725,0.0457 z m 4.490195,3.66013 h -1.065358 v -2.24183 q 0,-0.14379 -0.104575,-0.24836 -0.104575,-0.10458 -0.248366,-0.10458 h -1.163397 q -0.490196,0 -0.490196,0.48366 v 2.11111 h -1.058822 v -3.66013 h 1.058822 v 0.58824 q 0.111111,-0.24837 0.359477,-0.4183 0.254902,-0.16994 0.529411,-0.16994 h 0.764705 q 0.588235,0 0.999999,0.4183 0.4183,0.41177 0.4183,1 z m 4.73856,0 q -0.339869,0 -0.575163,-0.33987 -0.163398,0.1634 -0.535947,0.26144 -0.300653,0.0784 -0.601307,0.0784 h -1.379083 q -0.522875,0 -0.823528,-0.34641 -0.27451,-0.31372 -0.254902,-0.75163 0.01961,-0.43137 0.300653,-0.71895 0.313725,-0.32026 0.836601,-0.32026 h 1.49673 q 0.169934,0 0.326797,0.085 0.163398,0.085 0.20915,0.22876 l -0.03922,-0.35294 q -0.04575,-0.44444 -0.444444,-0.44444 h -2.359474 l 0.117647,-1.03922 h 2.176468 q 0.666666,0 1.104574,0.4183 0.444444,0.4183 0.444444,1.13072 z m -1.052287,-1.30719 q 0,-0.17647 -0.366012,-0.17647 h -1.35294 q -0.313725,0 -0.326797,0.24183 -0.01307,0.24183 0.267974,0.24183 h 1.215685 q 0.17647,0 0.346404,-0.0719 0.222222,-0.085 0.215686,-0.23529 z m 2.751629,-3.09804 h -1.058822 v -0.66666 h 1.058822 z m 0,4.40523 h -1.058822 v -3.66013 h 1.058822 z m 4.248362,0.007 h -3.679734 v -1.06535 l 1.588233,-1.13726 q 0.313725,-0.22222 0.830065,-0.46405 -0.437908,0.0654 -1.117646,0.0654 h -1.300652 v -1.06536 h 3.633982 v 1.06536 l -1.679736,1.19608 q -0.235294,0.16993 -0.673202,0.40523 0.437908,-0.0654 1.163397,-0.0654 h 1.235293 z"
       id="text4-5"
       style="font-size:6.53594px;line-height:1;font-family:'Sui Generis';-inkscape-font-specification:'Sui Generis';text-align:end;word-spacing:0px;text-anchor:end;fill:#f9f9f9;stroke-width:0.153186"
       aria-label=" Kike Arnaiz" /></g><g
     inkscape:groupmode="layer"
     id="layer2"
     inkscape:label="Layer 2"
     transform="translate(3.4655762e-7,-3.8168699)"><circle
       style="fill:#ffffff;stroke-width:0.0774969"
       id="path3"
       cx="6.614501"
       cy="-11.206849"
       r="6.6145" /><path
       style="fill:#333333;stroke-width:0.0962698"
       d="m 6.527872,-5.2642505 c -0.304146,-0.16492 -0.663671,-0.44999 -0.809103,-0.64154 -0.10546,-0.1389 -0.126154,-0.12328 -0.08476,0.064 0.0157,0.071 0.02175,0.13571 0.01344,0.14377 -0.02797,0.0271 -0.3987,-0.17645 -0.530255,-0.29118 -0.162542,-0.14176 -0.33438,-0.37327 -0.444564,-0.59895 l -0.08443,-0.17293 -0.02358,0.14424 c -0.01297,0.0793 -0.03108,0.14425 -0.04023,0.14425 -0.03844,0 -0.198726,-0.13359 -0.292856,-0.24408 -0.128804,-0.1512 -0.236114,-0.35729 -0.299671,-0.57553 -0.02744,-0.0942 -0.07918,-0.23452 -0.114993,-0.31179 -0.187568,-0.40474 -0.212266,-0.9489 -0.06693,-1.47466 0.02816,-0.10187 0.04482,-0.19141 0.03702,-0.19897 -0.0078,-0.008 -0.0532,0.0229 -0.100879,0.0677 -0.06738,0.0633 -0.08997,0.0732 -0.101408,0.0443 -0.0214,-0.0541 0.01962,-0.28747 0.110898,-0.63098 0.07387,-0.2780005 0.129978,-0.6189305 0.09702,-0.5895315 -0.034,0.03033 -0.253106,0.7105515 -0.293683,0.9117515 -0.03875,0.19214 -0.04029,0.24255 -0.01146,0.37629 0.02126,0.0987 0.03142,0.31298 0.02811,0.59344 -0.006,0.50931 0.0268,0.70714 0.165994,1.00129 0.04953,0.10467 0.103248,0.2407 0.119369,0.30227 0.04387,0.16758 0.211007,0.47396 0.346693,0.63553 0.10421,0.12409 0.387914,0.34377 0.443959,0.34377 0.01052,0 0.118813,0.0931 0.240644,0.20697 0.121832,0.11383 0.256426,0.23267 0.2991,0.26409 0.09208,0.0678 0.08355,0.0665 -0.297416,-0.0459 -1.041909,-0.30738 -1.999215,-0.90378 -2.709022,-1.68773 -0.29853,-0.32971 -0.406015,-0.46868 -0.624202,-0.80704 -0.84603,-1.31203 -1.112377,-2.9658535 -0.72563,-4.5056485 0.468002,-1.863299 1.930408,-3.418339 3.827988,-4.070459 0.317738,-0.109192 0.61104,-0.182404 0.635542,-0.158637 0.007,0.0067 -0.05507,0.05541 -0.137828,0.108148 -0.234904,0.149697 -0.572413,0.494247 -0.713097,0.727975 -0.113818,0.189093 -0.265832,0.530728 -0.2451,0.550841 0.0049,0.0048 0.05473,-0.06721 0.110665,-0.159987 0.185886,-0.308319 0.510203,-0.65103 0.839598,-0.887211 0.141699,-0.101599 0.4854,-0.2612 0.689252,-0.32006 0.101877,-0.02941 0.24958,-0.08109 0.328229,-0.114825 0.332978,-0.142842 0.868335,-0.129151 1.194186,0.03054 0.05649,0.02769 0.171212,0.06946 0.254933,0.09284 0.222802,0.06221 0.596837,0.24877 0.808529,0.403275 0.274228,0.200155 0.642593,0.622475 0.798316,0.915252 0.09543,0.179428 0.06402,0.01874 -0.04025,-0.205889 -0.201732,-0.434578 -0.480088,-0.754017 -0.884023,-1.014496 -0.09642,-0.06218 -0.175306,-0.116701 -0.175306,-0.121166 0,-0.01898 0.371565,0.08727 0.646556,0.184838 1.188738,0.421772 2.160916,1.16637 2.942516,2.253688 0.106928,0.148754 0.309311,0.503769 0.428724,0.75206 0.320067,0.665499 0.486473,1.311492 0.533551,2.071243 0.02433,0.392659 9.86e-4,0.992659 -0.05087,1.307545 -0.358607,2.1774435 -1.961385,3.9779135 -4.122902,4.6314235 -0.1835,0.0555 -0.337578,0.097 -0.342395,0.0924 -0.0096,-0.009 0.310884,-0.28078 0.660868,-0.55971 0.287026,-0.22875 0.452382,-0.40807 0.551568,-0.59812 0.08618,-0.16515 0.148155,-0.36217 0.148639,-0.47256 1.96e-4,-0.0386 0.04619,-0.15148 0.10228,-0.25086 0.208511,-0.36948 0.233369,-0.55007 0.204432,-1.48519 -0.01096,-0.35402 -0.01825,-0.39783 -0.12324,-0.74005 -0.178699,-0.5824755 -0.166031,-0.5482075 -0.177511,-0.4801905 -0.01364,0.0808 0.03202,0.3307105 0.12995,0.7112005 0.04513,0.17535 0.07472,0.32593 0.06575,0.33463 -0.009,0.009 -0.06019,-0.0131 -0.113824,-0.0485 -0.05364,-0.0354 -0.101954,-0.06 -0.107367,-0.0547 -0.0054,0.005 0.0073,0.0416 0.02815,0.0809 0.137134,0.25746 0.215181,0.68974 0.175055,0.96958 -0.03361,0.23441 -0.129092,0.5071 -0.226591,0.64714 -0.04985,0.0716 -0.08802,0.17131 -0.108809,0.28419 -0.06107,0.33168 -0.335611,0.76156 -0.578576,0.90596 l -0.07112,0.0423 v -0.11429 c 0,-0.11918 -0.04046,-0.17866 -0.06805,-0.10004 -0.09483,0.27031 -0.237223,0.47047 -0.486592,0.684 -0.141611,0.12126 -0.434975,0.30224 -0.489934,0.30224 -0.0087,0 -0.01578,-0.0575 -0.01578,-0.12769 v -0.12768 l -0.100383,0.12141 c -0.183611,0.22208 -0.431767,0.41687 -0.694023,0.54479 -0.0742,0.0362 -0.138213,0.0656 -0.142242,0.0653 -0.004,-2.3e-4 -0.06552,-0.032 -0.136636,-0.0706 z m -0.443028,-4.19994 c 0.0086,-0.031 0.01575,-0.0818 0.01595,-0.11288 4.09e-4,-0.0665 -0.0012,-0.0664 0.181389,-0.0188 0.184079,0.0479 0.569071,0.0479 0.758764,0 0.197895,-0.05 0.19808,-0.05 0.198536,0.0439 1.95e-4,0.0448 0.01067,0.0973 0.02323,0.11651 0.05679,0.087 0.409299,-0.23181 0.506916,-0.45843 0.047,-0.1091105 0.05,-0.2916605 0.0058,-0.3503405 -0.02963,-0.0393 -0.04625,-0.0306 -0.178941,0.0941 -0.249422,0.2343305 -0.553224,0.3487305 -0.926334,0.3488205 -0.393872,8e-5 -0.70559,-0.11608 -0.946527,-0.3527405 -0.07375,-0.0724 -0.140027,-0.1317 -0.147288,-0.1317 -0.02201,0 -0.07,0.15366 -0.06973,0.22325 2.89e-4,0.0849 0.101526,0.2937005 0.193672,0.3995705 0.06674,0.0767 0.313176,0.25521 0.352287,0.25521 0.0092,0 0.02374,-0.0254 0.03232,-0.0564 z m 0.873479,-0.5818205 c 0.09451,-0.0194 0.222166,-0.0602 0.283692,-0.0907 0.122789,-0.0608 0.255684,-0.15047 0.255704,-0.1726 6e-6,-0.008 -0.3695,-0.0113 -0.821127,-0.008 -0.451626,0.003 -0.825852,0.006 -0.831612,0.006 -0.0058,10e-6 0.0117,0.0243 0.03879,0.054 0.06362,0.0697 0.331185,0.1882 0.492394,0.21811 0.187741,0.0348 0.389739,0.0323 0.582157,-0.007 z m -1.86931,-0.46649 c 0.185715,-0.255445 0.474793,-0.4252 0.757763,-0.444983 l 0.17236,-0.01203 -0.01232,-0.128488 c -0.01,-0.103888 -0.0012,-0.145295 0.04597,-0.216289 l 0.05829,-0.0878 0.01698,0.09501 c 0.02137,0.119556 0.125497,0.226381 0.302587,0.310426 0.168951,0.08018 0.302631,0.07202 0.513192,-0.03131 0.177105,-0.08692 0.243521,-0.164066 0.243521,-0.282857 v -0.09013 l 0.06619,0.06421 c 0.06946,0.06738 0.09088,0.181035 0.05674,0.301075 -0.01853,0.06516 -0.01797,0.06543 0.167006,0.08048 0.31917,0.02595 0.584898,0.187933 0.799874,0.487585 0.07483,0.104302 0.07807,0.105846 0.148295,0.07062 0.115671,-0.05802 0.375056,-0.34469 0.449055,-0.496294 0.122286,-0.250522 0.171422,-0.613222 0.221644,-1.636057 l 0.0184,-0.374653 -0.06893,-0.105432 c -0.108149,-0.165418 -0.442469,-0.421878 -0.733256,-0.56249 -0.293571,-0.141957 -0.611802,-0.237047 -0.969835,-0.289792 -0.32085,-0.04726 -1.075329,-0.04724 -1.398731,5e-5 -0.480005,0.07019 -1.03588,0.285379 -1.350536,0.522822 -0.180143,0.135939 -0.405934,0.380296 -0.405913,0.439285 6.3e-5,0.177225 0.06037,1.03159 0.09129,1.293358 0.05941,0.502945 0.121981,0.694321 0.296366,0.906514 0.07963,0.09689 0.356946,0.33867 0.388453,0.33867 0.0085,0 0.06498,-0.06817 0.125553,-0.151475 z m 0.18335,-1.748821 c -0.05644,-0.04892 -0.08378,-0.09931 -0.09401,-0.173259 l -0.01441,-0.104271 -0.08097,0.02658 c -0.04453,0.01462 -0.111864,0.04743 -0.149619,0.07291 -0.03776,0.02548 -0.07588,0.04634 -0.08472,0.04634 -0.03525,0 0.06556,-0.147636 0.149825,-0.2194 0.121627,-0.103583 0.247294,-0.139041 0.452025,-0.127537 0.220305,0.01239 0.396901,0.09347 0.497811,0.228597 0.114952,0.153926 0.09492,0.182462 -0.05695,0.08113 -0.16972,-0.113248 -0.203996,-0.112993 -0.203996,0.0017 0,0.06573 -0.02022,0.109346 -0.0756,0.163059 -0.101439,0.0984 -0.228994,0.100028 -0.339388,0.0043 z m 2.434226,0.004 c -0.05178,-0.04227 -0.07971,-0.08826 -0.07997,-0.131704 -1.96e-4,-0.03672 -0.01038,-0.08203 -0.02257,-0.100706 -0.02544,-0.03895 -0.08405,-0.01566 -0.229188,0.09101 -0.108116,0.07947 -0.113273,0.02713 -0.01081,-0.109743 0.11026,-0.147287 0.283516,-0.221134 0.52159,-0.222312 0.240559,-0.0014 0.407493,0.06929 0.51957,0.21937 0.100579,0.134681 0.09483,0.156552 -0.02172,0.08259 -0.05334,-0.03385 -0.127803,-0.06881 -0.16547,-0.07769 -0.06379,-0.01506 -0.0697,-0.0091 -0.08625,0.08584 -0.03623,0.208003 -0.263495,0.295317 -0.42518,0.163347 z m -1.980447,-0.654593 c -0.138594,-0.03685 -0.337389,-0.0673 -0.491383,-0.07526 -0.232847,-0.01203 -0.277744,-0.0068 -0.450486,0.052 -0.105524,0.03595 -0.19774,0.05966 -0.204923,0.0527 -0.02281,-0.02213 0.140996,-0.223284 0.230178,-0.282663 0.15158,-0.100925 0.343544,-0.13934 0.618301,-0.123734 0.256761,0.01458 0.616009,0.101021 0.735492,0.176961 0.133135,0.08462 0.04879,0.270023 -0.120366,0.264592 -0.04623,-0.0017 -0.188795,-0.03055 -0.316813,-0.06459 z m 1.439864,0.0092 c -0.06799,-0.0702 -0.0721,-0.146007 -0.01084,-0.199787 0.07217,-0.06335 0.487355,-0.168453 0.731983,-0.185299 0.309147,-0.02131 0.534579,0.04347 0.687286,0.197412 0.0915,0.09224 0.164661,0.193036 0.164661,0.226854 0,0.0052 -0.09601,-0.02275 -0.213364,-0.06217 -0.186912,-0.06279 -0.240617,-0.0703 -0.433193,-0.06057 -0.120906,0.0061 -0.34597,0.04047 -0.500141,0.07637 -0.341804,0.07957 -0.356061,0.07981 -0.426392,0.0072 z m 2.426515,1.480116 c 0.127123,-0.246759 0.10227,-0.54306 -0.06174,-0.736066 l -0.08031,-0.09451 -0.01642,0.07429 c -0.009,0.04086 -0.01779,0.282061 -0.01948,0.536 -0.0031,0.460131 -0.0029,0.461563 0.04864,0.416339 0.02843,-0.02496 0.08662,-0.113181 0.129312,-0.196047 z m -5.689668,-0.31677 c 0,-0.302708 -0.0101,-0.506302 -0.02558,-0.515582 -0.03203,-0.01919 -0.173361,0.193822 -0.207363,0.312544 -0.03674,0.128295 -0.03147,0.279622 0.01411,0.405365 0.04649,0.128223 0.15661,0.29792 0.193329,0.29792 0.0159,0 0.02549,-0.188276 0.02549,-0.500247 z m -0.08598,-1.487853 c -0.0087,-0.141423 -0.02296,-0.386956 -0.03169,-0.545629 -0.01962,-0.356428 -0.03134,-0.394248 -0.08165,-0.263406 -0.04648,0.120865 -0.05205,0.614049 -0.0091,0.802764 0.07957,0.349366 0.143723,0.352654 0.122418,0.0063 z m 5.78776,0.137976 c 0.09586,-0.266807 0.07492,-1.102491 -0.02519,-1.005382 -0.0088,0.0085 -0.02633,0.183142 -0.03906,0.388112 -0.01273,0.204975 -0.031,0.436898 -0.04059,0.51539 -0.02942,0.240679 0.03313,0.301469 0.10484,0.10188 z m -4.891231,-1.281442 c -0.01784,-0.555522 -0.04011,-0.636769 -0.107228,-0.391145 -0.04769,0.174519 -0.02797,0.741501 0.03041,0.874262 0.07908,0.179845 0.09491,0.0803 0.07682,-0.483117 z m 3.986222,0.416602 c 0.05365,-0.175234 0.05291,-0.643753 -0.0013,-0.820786 -0.02241,-0.07321 -0.05006,-0.123237 -0.06144,-0.111172 -0.02369,0.02512 -0.05667,1.051074 -0.03449,1.072597 0.02912,0.02825 0.05854,-0.01434 0.09722,-0.140639 z m -1.205761,-0.36721 c 0.07587,-0.220236 0.05932,-0.784169 -0.02764,-0.941789 -0.02804,-0.05082 -0.02859,-0.05084 -0.04835,-0.0019 -0.02408,0.05977 -0.03049,0.968875 -0.0073,1.027616 0.02024,0.05117 0.04541,0.02577 0.08324,-0.08404 z m -1.573754,-0.457049 c 0,-0.431959 -0.0071,-0.551724 -0.03233,-0.543698 -0.0663,0.02112 -0.09952,0.248443 -0.09076,0.621051 0.0082,0.348931 0.0345,0.47664 0.09813,0.47664 0.01528,0 0.02495,-0.214855 0.02495,-0.553993 z m -1.650422,-0.174859 c 0.445277,-0.321537 1.069372,-0.57188 1.663353,-0.667223 0.380042,-0.061 1.009027,-0.06072 1.396562,4.81e-4 0.775772,0.122806 1.571263,0.49254 2.095666,0.974042 0.121298,0.111374 0.226595,0.196626 0.233994,0.189451 0.0074,-0.0072 -0.01012,-0.07928 -0.03892,-0.160224 -0.05853,-0.16448 -0.158339,-0.26693 -0.501334,-0.514611 -0.578303,-0.417599 -1.370665,-0.687275 -2.199705,-0.748655 -0.968812,-0.07173 -1.967993,0.197258 -2.693169,0.725026 -0.352065,0.256226 -0.422005,0.327836 -0.490821,0.502524 -0.03587,0.09105 -0.06522,0.174894 -0.06522,0.18631 0,0.01143 0.09019,-0.06126 0.200432,-0.161498 0.110238,-0.100244 0.289861,-0.246841 0.399162,-0.325767 z m 0.818545,-1.102741 c 0.06165,-0.117124 0.158527,-0.284553 0.215278,-0.372066 0.05675,-0.08751 0.0983,-0.163848 0.09233,-0.169637 -0.0228,-0.0221 -0.250626,0.196701 -0.338488,0.325099 -0.105838,0.154671 -0.205648,0.384654 -0.18262,0.420793 0.03883,0.06094 0.109525,-0.0067 0.213497,-0.204189 z m 3.34657,0.211828 c 0.0808,-0.07837 -0.365274,-0.738359 -0.499038,-0.738359 -0.02999,0 -0.02033,0.019 0.07777,0.15293 0.03634,0.04962 0.1238,0.20484 0.194354,0.34494 0.118754,0.235808 0.172748,0.29303 0.226914,0.240489 z m -0.872135,-0.419597 c -0.06067,-0.225918 -0.295224,-0.637042 -0.296365,-0.519453 -5.77e-4,0.06025 0.199656,0.65277 0.234278,0.693236 0.02627,0.0307 0.03719,0.03124 0.06605,0.0033 0.02885,-0.02799 0.0282,-0.05727 -0.004,-0.177038 z m -1.735191,0.126524 c 0.02083,-0.03104 0.07424,-0.178832 0.118691,-0.328409 0.04445,-0.149576 0.08784,-0.290691 0.09642,-0.31358 0.02805,-0.07483 -0.09585,0.04852 -0.166954,0.166212 -0.0732,0.121163 -0.162424,0.380297 -0.162424,0.471739 0,0.07715 0.0637,0.0794 0.114265,0.004 z m 0.878216,-0.06272 c 0.03596,-0.119575 0.04249,-0.290593 0.01872,-0.489884 -0.0295,-0.247269 -0.04853,-0.297818 -0.08701,-0.231113 -0.03239,0.05613 -0.05765,0.552953 -0.03427,0.673859 0.01852,0.0958 0.07951,0.123823 0.102565,0.04714 z"
       id="path2" /><path
       d="m 22.408514,-8.5859365 h -1.437907 l -1.444443,-1.4771225 q -0.0915,-0.0915 -0.150327,-0.169934 -0.02614,0 -0.62745,0.601306 -0.647058,0.6470581 -0.797385,0.7581691 v 0.2875814 h -1.065358 v -4.7189485 h 1.065358 v 3.05882 q 0.104575,-0.143791 0.235294,-0.27451 l 2.784311,-2.78431 h 1.437907 l -2.143789,2.143788 q -0.104575,0.104575 -0.248366,0.222222 0.111111,0.07843 0.248366,0.20915 z m 1.359477,-4.4052235 h -1.058823 v -0.666666 h 1.058823 z m 0,4.4052235 h -1.058823 v -3.6601265 h 1.058823 z m 4.679732,-3.6601265 -1.601305,1.732024 q -0.06536,0.06536 -0.156863,0.143791 0.05882,0.04575 0.156863,0.14379 l 1.581697,1.6405215 h -1.333331 l -0.86928,-0.9084957 q -0.07843,-0.065359 -0.202615,-0.2156861 0,0.00654 -0.241829,0.2810455 l -0.339869,0.3790845 v 0.4640518 h -1.058823 v -4.8954195 l 1.058823,-0.352941 v 3.620911 q 0.0915,-0.169934 0.235294,-0.392156 l 1.503266,-1.640521 z m 4.516341,2.130716 h -3.189539 v 0.111111 q 0,0.1503271 0.104575,0.267974 0.104575,0.111111 0.248366,0.111111 h 2.732023 l -0.130719,1.0392145 h -2.601304 q -0.588235,0 -0.999999,-0.4117643 -0.411765,-0.4183001 -0.411765,-1.0065352 v -0.823528 q 0,-0.588235 0.411765,-0.999999 0.4183,-0.4183 0.999999,-0.4183 h 1.418299 q 0.588234,0 0.999998,0.4183 0.418301,0.411764 0.418301,0.999999 z m -1.065359,-0.59477 v -0.17647 q 0,-0.143791 -0.104575,-0.248366 -0.104575,-0.111111 -0.248365,-0.111111 h -1.418299 q -0.143791,0 -0.248366,0.111111 -0.104575,0.104575 -0.104575,0.248366 v 0.17647 z m 9.777765,2.1241805 h -1.222221 l -0.522875,-1.0588224 h -2.738559 l -0.522875,1.0588224 h -1.228757 l 2.470585,-4.7124125 h 1.294116 z m -2.307187,-2.1241805 q -0.346405,-0.653594 -0.444444,-0.856208 -0.24183,-0.490196 -0.366013,-0.895424 -0.14379,0.503267 -0.80392,1.751632 z m 4.84313,-1.535946 -0.117647,1.052286 q -0.398692,-0.235294 -0.673201,-0.17647 -0.503268,0.117647 -0.503268,1.032678 v 1.7581684 h -1.065358 v -3.6666624 h 1.052286 v 0.542483 q 0.169935,-0.424836 0.51634,-0.542483 0.202614,-0.0719 0.477123,-0.04575 0.137255,0.0065 0.313725,0.04575 z m 4.490196,3.6601265 h -1.065358 v -2.2418275 q 0,-0.143791 -0.104575,-0.248366 -0.104575,-0.104575 -0.248366,-0.104575 h -1.163397 q -0.490196,0 -0.490196,0.48366 v 2.1111085 h -1.058822 v -3.6601265 h 1.058822 v 0.588235 q 0.111111,-0.248366 0.359477,-0.418301 0.254901,-0.169934 0.529411,-0.169934 h 0.764705 q 0.588234,0 0.999999,0.4183 0.4183,0.411764 0.4183,0.999999 z m 4.738559,0 q -0.339869,0 -0.575162,-0.3398689 -0.163399,0.1633985 -0.535948,0.2614376 -0.300653,0.078431 -0.601306,0.078431 h -1.379083 q -0.522876,0 -0.823529,-0.3464049 -0.274509,-0.3137251 -0.254902,-0.7516331 0.01961,-0.4313722 0.300654,-0.7189532 0.313725,-0.320261 0.8366,-0.320261 h 1.49673 q 0.169935,0 0.326797,0.08497 0.163399,0.08497 0.20915,0.228758 l -0.03921,-0.352941 q -0.04575,-0.444444 -0.444444,-0.444444 H 49.59804 l 0.117647,-1.039214 h 2.176468 q 0.666666,0 1.104574,0.4183 0.444444,0.4183 0.444444,1.130718 z m -1.052286,-1.3071881 q 0,-0.1764704 -0.366013,-0.1764704 H 50.66993 q -0.313725,0 -0.326797,0.2418298 -0.01307,0.2418298 0.267973,0.2418298 h 1.215685 q 0.17647,0 0.346405,-0.071895 0.222222,-0.084967 0.215686,-0.2352942 z m 2.751629,-3.0980354 h -1.058822 v -0.666666 h 1.058822 z m 0,4.4052235 h -1.058822 v -3.6601265 h 1.058822 z m 4.248362,0.00654 h -3.679735 v -1.0653583 l 1.588234,-1.1372532 q 0.313725,-0.222222 0.830064,-0.464052 -0.437908,0.06536 -1.117646,0.06536 h -1.300652 v -1.065358 h 3.633983 v 1.065358 l -1.679737,1.1960774 q -0.235294,0.1699344 -0.673202,0.4052282 0.437908,-0.065359 1.163398,-0.065359 h 1.235293 z"
       id="text4"
       style="font-size:6.53594px;line-height:1;font-family:'Sui Generis';-inkscape-font-specification:'Sui Generis';text-align:end;word-spacing:0px;text-anchor:end;fill:#333333;stroke-width:0.153186"
       aria-label=" Kike Arnaiz" /></g></svg>
