<?xml version="1.0" encoding="UTF-8" standalone="no"?>
<!-- Created with Inkscape (http://www.inkscape.org/) -->

<svg
   width="120mm"
   height="120mm"
   viewBox="0 0 120 120"
   version="1.1"
   id="svg1"
   xml:space="preserve"
   inkscape:export-batch-path="/home/jacqueshauzeur/ownDev/daroga/images"
   inkscape:export-batch-name=""
   inkscape:version="1.4.2 (ebf0e940d0, 2025-05-08)"
   sodipodi:docname="main.svg"
   xmlns:inkscape="http://www.inkscape.org/namespaces/inkscape"
   xmlns:sodipodi="http://sodipodi.sourceforge.net/DTD/sodipodi-0.dtd"
   xmlns="http://www.w3.org/2000/svg"
   xmlns:svg="http://www.w3.org/2000/svg"><sodipodi:namedview
     id="namedview1"
     pagecolor="#505050"
     bordercolor="#eeeeee"
     borderopacity="1"
     inkscape:showpageshadow="0"
     inkscape:pageopacity="0"
     inkscape:pagecheckerboard="0"
     inkscape:deskcolor="#505050"
     inkscape:document-units="mm"
     inkscape:zoom="0.25197127"
     inkscape:cx="976.30178"
     inkscape:cy="992.1766"
     inkscape:window-width="1600"
     inkscape:window-height="863"
     inkscape:window-x="0"
     inkscape:window-y="0"
     inkscape:window-maximized="1"
     inkscape:current-layer="layer1"><inkscape:page
       x="0"
       y="0"
       width="120"
       height="120"
       id="page1"
       margin="0"
       bleed="0" /></sodipodi:namedview><defs
     id="defs1" /><g
     inkscape:label="Layer 1"
     inkscape:groupmode="layer"
     id="layer1"
     transform="translate(-660.66418,162.49359)"><g
       id="business"><circle
         style="fill:#ffffff;fill-opacity:1;stroke-width:0.243843;paint-order:stroke fill markers"
         id="path26-5"
         cx="720.66418"
         cy="-102.49359"
         r="60" /><path
         d="m 754.85531,-90.659842 q 0,7.370532 -5.24126,12.611799 -5.15938,5.159372 -12.44801,5.159372 h -50.69288 v -59.209939 h 50.69288 q 7.45242,0 12.28422,4.50421 4.83179,4.50422 4.83179,11.87475 0,3.76716 -1.80169,7.28864 -1.96547,3.93095 -5.24126,5.07747 3.60337,1.39222 5.73263,5.159376 1.88358,3.439582 1.88358,7.534322 z m -13.34885,-23.503808 q 0,-1.96547 -1.22842,-3.27579 -1.14653,-1.31032 -3.112,-1.31032 h -37.42593 v 9.09032 h 37.42593 q 1.96547,0 3.112,-1.22842 1.22842,-1.31031 1.22842,-3.27579 z m 0.0819,22.930544 q 0,-2.129265 -1.22843,-3.521476 -1.14652,-1.474107 -3.19389,-1.474107 h -37.42593 v 9.991166 h 37.42593 q 2.04737,0 3.19389,-1.474106 1.22843,-1.474107 1.22843,-3.521477 z"
         id="text27-9"
         style="font-size:81.8948px;line-height:1;font-family:'Sui Generis';-inkscape-font-specification:'Sui Generis';text-align:end;word-spacing:0px;text-anchor:end;fill:#333333;stroke-width:1.9194;paint-order:stroke fill markers"
         aria-label="B" /></g></g></svg>
