<?xml version="1.0" encoding="UTF-8" standalone="no"?>
<!-- Created with Inkscape (http://www.inkscape.org/) -->

<svg
   width="120mm"
   height="120mm"
   viewBox="0 0 120 120"
   version="1.1"
   id="svg1"
   xml:space="preserve"
   inkscape:export-batch-path="/home/jacqueshauzeur/ownDev/daroga/images"
   inkscape:export-batch-name=""
   inkscape:version="1.4.2 (ebf0e940d0, 2025-05-08)"
   sodipodi:docname="main.svg"
   xmlns:inkscape="http://www.inkscape.org/namespaces/inkscape"
   xmlns:sodipodi="http://sodipodi.sourceforge.net/DTD/sodipodi-0.dtd"
   xmlns="http://www.w3.org/2000/svg"
   xmlns:svg="http://www.w3.org/2000/svg"><sodipodi:namedview
     id="namedview1"
     pagecolor="#505050"
     bordercolor="#eeeeee"
     borderopacity="1"
     inkscape:showpageshadow="0"
     inkscape:pageopacity="0"
     inkscape:pagecheckerboard="0"
     inkscape:deskcolor="#505050"
     inkscape:document-units="mm"
     inkscape:zoom="0.16229037"
     inkscape:cx="1860.8622"
     inkscape:cy="668.55478"
     inkscape:window-width="1600"
     inkscape:window-height="863"
     inkscape:window-x="0"
     inkscape:window-y="0"
     inkscape:window-maximized="1"
     inkscape:current-layer="layer3"
     showguides="true"><sodipodi:guide
       position="-76.228537,-0.58646012"
       orientation="0,-1"
       id="guide84"
       inkscape:locked="false" /><inkscape:page
       x="0"
       y="0"
       width="120"
       height="120"
       id="page1"
       margin="0"
       bleed="0" /></sodipodi:namedview><defs
     id="defs1" /><g
     inkscape:groupmode="layer"
     id="layer3"
     inkscape:label="Layer 3"
     transform="translate(11.327323,2.3022582)"><g
       id="DA"
       transform="translate(-13.042472,-174.44299)"><circle
         style="fill:#333333;fill-opacity:1;stroke-width:0.243843;paint-order:stroke fill markers"
         id="circle162"
         cx="61.715149"
         cy="232.14073"
         r="60" /><path
         id="path162"
         style="fill:none;stroke-width:0.185099;paint-order:stroke fill markers"
         d="m 99.820434,257.08826 a 45.545481,45.545481 0 0 1 -63.0528,13.15775 45.545481,45.545481 0 0 1 -13.157755,-63.0528 45.545481,45.545481 0 0 1 63.052799,-13.15775 45.545481,45.545481 0 0 1 13.157756,63.0528 z" /><g
         id="g181"
         style="fill:#7fff2a"
         transform="matrix(-0.05020651,0.08696024,-0.08696024,-0.05020651,-9.7036804,393.55087)"><g
           id="g171"
           transform="matrix(0.90780888,0,0,0.90780888,-637.32939,64.986238)"
           style="fill:#7fff2a"><path
             style="baseline-shift:baseline;display:inline;overflow:visible;opacity:1;vector-effect:none;fill:#7fff2a;paint-order:stroke fill markers;enable-background:accumulate;stop-color:#000000;stop-opacity:1"
             d="m -1189.0449,118.11719 -10.6856,5.4375 c 5.3103,10.43343 3.1384,23.04678 -5.3554,31.10351 -8.4938,8.05674 -21.2052,9.56057 -31.3438,3.70703 l -5.9941,10.38282 c 14.6912,8.48196 33.282,6.28384 45.5898,-5.39063 12.3078,-11.67446 15.4838,-30.12186 7.7891,-45.24023 z"
             id="path163" /><path
             style="baseline-shift:baseline;display:inline;overflow:visible;opacity:1;vector-effect:none;fill:#7fff2a;paint-order:stroke fill markers;enable-background:accumulate;stop-color:#000000;stop-opacity:1"
             d="m -1180.7754,102.84766 -4.7109,3.625 c 11.1623,14.50759 13.0267,34.10753 4.7988,50.45898 -8.2279,16.35145 -25.0788,26.53536 -43.3809,26.2168 -18.302,-0.31856 -34.7895,-11.08306 -42.4433,-27.71094 l -5.3985,2.48437 c 8.6028,18.68934 27.1672,30.80992 47.7383,31.16797 20.5711,0.35806 39.5451,-11.10769 48.793,-29.48632 9.2479,-18.37864 7.1497,-40.44967 -5.3965,-56.75586 z"
             id="path164" /><path
             style="baseline-shift:baseline;display:inline;overflow:visible;opacity:1;vector-effect:none;fill:#7fff2a;paint-order:stroke fill markers;enable-background:accumulate;stop-color:#000000;stop-opacity:1"
             d="m -1169.5,152.43164 c -2.722,8.64946 -7.4905,16.51398 -13.9023,22.92578 l 9.8476,9.84766 c 7.9963,-7.99629 13.9433,-17.80487 17.3379,-28.5918 z"
             id="path165" /><path
             style="baseline-shift:baseline;display:inline;overflow:visible;opacity:1;vector-effect:none;fill:#7fff2a;paint-order:stroke fill markers;enable-background:accumulate;stop-color:#000000;stop-opacity:1"
             d="m -1128.7891,147.5918 c -3.7693,29.4926 -21.0927,55.52437 -46.8418,70.39062 l 3.7344,6.4668 c 27.7628,-16.02886 46.4515,-44.11109 50.5156,-75.91016 z"
             id="path166" /><path
             style="baseline-shift:baseline;display:inline;overflow:visible;opacity:1;vector-effect:none;fill:#7fff2a;paint-order:stroke fill markers;enable-background:accumulate;stop-color:#000000;stop-opacity:1"
             d="m -1102.4141,196.1543 c -22.9634,45.7594 -69.6281,74.55273 -120.8261,74.55273 v 61.44531 c 74.3105,0 142.4142,-42.02274 175.7441,-108.43945 z"
             id="path167" /><path
             style="baseline-shift:baseline;display:inline;overflow:visible;opacity:1;vector-effect:none;fill:#7fff2a;paint-order:stroke fill markers;enable-background:accumulate;stop-color:#000000;stop-opacity:1"
             d="m -993.49219,218.05273 c -28.27151,78.69945 -94.80701,137.42106 -176.41011,155.69141 -81.6032,18.27036 -166.8264,-6.4728 -225.9571,-65.60352 l -21.5351,21.53516 c 66.4775,66.47752 162.4024,94.32945 254.1445,73.78906 91.7421,-20.54039 166.63573,-86.63763 198.41992,-175.11523 z"
             id="path168" /><path
             style="baseline-shift:baseline;display:inline;overflow:visible;opacity:1;vector-effect:none;fill:#7fff2a;paint-order:stroke fill markers;enable-background:accumulate;stop-color:#000000;stop-opacity:1"
             d="m -935.22266,155.74023 c -8.63742,123.02783 -94.16084,226.74569 -213.28904,258.66602 l 18.4707,68.93555 c 148.28889,-39.7339 255.25608,-169.4605 266.0078,-322.60352 z"
             id="path169" /><path
             style="baseline-shift:baseline;display:inline;overflow:visible;opacity:1;vector-effect:none;fill:#7fff2a;paint-order:stroke fill markers;enable-background:accumulate;stop-color:#000000;stop-opacity:1"
             d="m -793.91797,135.51953 c 0,206.27331 -146.44346,383.20544 -349.08203,421.75781 -202.6386,38.55238 -403.8223,-72.243 -479.5684,-264.10547 l -31.3183,12.36524 c 81.6051,206.70323 298.8668,326.35085 517.1797,284.81641 218.31285,-41.53445 376.45895,-232.60523 376.45895,-454.83399 z"
             id="path170" /><path
             style="baseline-shift:baseline;display:inline;overflow:visible;opacity:1;vector-effect:none;fill:#7fff2a;paint-order:stroke fill markers;enable-background:accumulate;stop-color:#000000;stop-opacity:1"
             d="m -880.08203,287.30078 c -39.27315,88.79136 -111.42628,158.8967 -201.31057,195.59961 -89.8842,36.70291 -190.485,37.13832 -280.6836,1.21484 l -8.248,20.71485 c 95.5509,38.05517 202.1433,37.59374 297.3613,-1.28711 95.21798,-38.88085 171.66789,-113.16245 213.27149,-207.22266 z"
             id="path171" /></g><g
           id="g180"
           transform="matrix(-0.90780888,0,0,-0.90780888,-2858.1271,310.55353)"
           style="fill:#7fff2a"><path
             style="baseline-shift:baseline;display:inline;overflow:visible;opacity:1;vector-effect:none;fill:#7fff2a;paint-order:stroke fill markers;enable-background:accumulate;stop-color:#000000;stop-opacity:1"
             d="m -1189.0449,118.11719 -10.6856,5.4375 c 5.3103,10.43343 3.1384,23.04678 -5.3554,31.10351 -8.4938,8.05674 -21.2052,9.56057 -31.3438,3.70703 l -5.9941,10.38282 c 14.6912,8.48196 33.282,6.28384 45.5898,-5.39063 12.3078,-11.67446 15.4838,-30.12186 7.7891,-45.24023 z"
             id="path172" /><path
             style="baseline-shift:baseline;display:inline;overflow:visible;opacity:1;vector-effect:none;fill:#7fff2a;paint-order:stroke fill markers;enable-background:accumulate;stop-color:#000000;stop-opacity:1"
             d="m -1180.7754,102.84766 -4.7109,3.625 c 11.1623,14.50759 13.0267,34.10753 4.7988,50.45898 -8.2279,16.35145 -25.0788,26.53536 -43.3809,26.2168 -18.302,-0.31856 -34.7895,-11.08306 -42.4433,-27.71094 l -5.3985,2.48437 c 8.6028,18.68934 27.1672,30.80992 47.7383,31.16797 20.5711,0.35806 39.5451,-11.10769 48.793,-29.48632 9.2479,-18.37864 7.1497,-40.44967 -5.3965,-56.75586 z"
             id="path173" /><path
             style="baseline-shift:baseline;display:inline;overflow:visible;opacity:1;vector-effect:none;fill:#7fff2a;paint-order:stroke fill markers;enable-background:accumulate;stop-color:#000000;stop-opacity:1"
             d="m -1169.5,152.43164 c -2.722,8.64946 -7.4905,16.51398 -13.9023,22.92578 l 9.8476,9.84766 c 7.9963,-7.99629 13.9433,-17.80487 17.3379,-28.5918 z"
             id="path174" /><path
             style="baseline-shift:baseline;display:inline;overflow:visible;opacity:1;vector-effect:none;fill:#7fff2a;paint-order:stroke fill markers;enable-background:accumulate;stop-color:#000000;stop-opacity:1"
             d="m -1128.7891,147.5918 c -3.7693,29.4926 -21.0927,55.52437 -46.8418,70.39062 l 3.7344,6.4668 c 27.7628,-16.02886 46.4515,-44.11109 50.5156,-75.91016 z"
             id="path175" /><path
             style="baseline-shift:baseline;display:inline;overflow:visible;opacity:1;vector-effect:none;fill:#7fff2a;paint-order:stroke fill markers;enable-background:accumulate;stop-color:#000000;stop-opacity:1"
             d="m -1102.4141,196.1543 c -22.9634,45.7594 -69.6281,74.55273 -120.8261,74.55273 v 61.44531 c 74.3105,0 142.4142,-42.02274 175.7441,-108.43945 z"
             id="path176" /><path
             style="baseline-shift:baseline;display:inline;overflow:visible;opacity:1;vector-effect:none;fill:#7fff2a;paint-order:stroke fill markers;enable-background:accumulate;stop-color:#000000;stop-opacity:1"
             d="m -993.49219,218.05273 c -28.27151,78.69945 -94.80701,137.42106 -176.41011,155.69141 -81.6032,18.27036 -166.8264,-6.4728 -225.9571,-65.60352 l -21.5351,21.53516 c 66.4775,66.47752 162.4024,94.32945 254.1445,73.78906 91.7421,-20.54039 166.63573,-86.63763 198.41992,-175.11523 z"
             id="path177" /><path
             style="baseline-shift:baseline;display:inline;overflow:visible;opacity:1;vector-effect:none;fill:#7fff2a;paint-order:stroke fill markers;enable-background:accumulate;stop-color:#000000;stop-opacity:1"
             d="m -935.22266,155.74023 c -8.63742,123.02783 -94.16084,226.74569 -213.28904,258.66602 l 18.4707,68.93555 c 148.28889,-39.7339 255.25608,-169.4605 266.0078,-322.60352 z"
             id="path178" /><path
             style="baseline-shift:baseline;display:inline;overflow:visible;opacity:1;vector-effect:none;fill:#7fff2a;paint-order:stroke fill markers;enable-background:accumulate;stop-color:#000000;stop-opacity:1"
             d="m -793.91797,135.51953 c 0,206.27331 -146.44346,383.20544 -349.08203,421.75781 -202.6386,38.55238 -403.8223,-72.243 -479.5684,-264.10547 l -31.3183,12.36524 c 81.6051,206.70323 298.8668,326.35085 517.1797,284.81641 218.31285,-41.53445 376.45895,-232.60523 376.45895,-454.83399 z"
             id="path179" /><path
             style="baseline-shift:baseline;display:inline;overflow:visible;opacity:1;vector-effect:none;fill:#7fff2a;paint-order:stroke fill markers;enable-background:accumulate;stop-color:#000000;stop-opacity:1"
             d="m -880.08203,287.30078 c -39.27315,88.79136 -111.42628,158.8967 -201.31057,195.59961 -89.8842,36.70291 -190.485,37.13832 -280.6836,1.21484 l -8.248,20.71485 c 95.5509,38.05517 202.1433,37.59374 297.3613,-1.28711 95.21798,-38.88085 171.66789,-113.16245 213.27149,-207.22266 z"
             id="path180" /></g></g><path
         id="text181"
         style="font-weight:bold;font-size:14.1111px;line-height:1;font-family:'Sui Generis';-inkscape-font-specification:'Sui Generis Bold';text-align:end;letter-spacing:0px;word-spacing:0px;text-anchor:end;fill:#ffffff;stroke-width:89.0923;paint-order:stroke fill markers"
         transform="translate(13.004514,174.33469)"
         d="M 50.878287,1.4514069 49.272183,11.92622 58.67316,13.367475 c 0.883383,0.135422 1.689723,-0.06458 2.418973,-0.599963 0.72925,-0.535383 1.162299,-1.249306 1.299146,-2.141988 L 63.005195,6.6221507 C 63.142042,5.7294686 62.942682,4.9184741 62.407299,4.1892243 61.871916,3.4599744 61.162646,3.0275674 60.279263,2.8921458 Z m 2.267561,3.0881836 6.722587,1.0309448 c 0.148781,0.022808 0.26622,0.097527 0.3514,0.2247925 0.0959,0.1193923 0.13172,0.2584329 0.107487,0.416512 l -0.613916,4.0028562 c -0.02423,0.15808 -0.100753,0.284309 -0.229443,0.378789 -0.117968,0.08661 -0.251196,0.118924 -0.399976,0.09612 L 52.360883,9.6586579 Z m 19.110462,2.4220744 -9.691398,7.0207601 2.80603,1.39268 2.027266,-1.546159 5.056023,2.509924 -0.0052,2.549199 2.80603,1.39268 L 74.98686,8.3166209 Z m -48.723124,0.7467244 -2.682524,1.4474569 0.140043,11.9667118 2.756938,-1.487765 -0.0925,-2.547648 4.967655,-2.680457 2.078943,1.475363 2.756938,-1.487765 z m 48.89624,2.3321577 c -0.04489,0.47133 -0.06833,1.005583 -0.0708,1.603003 0.001,0.357603 0.01103,0.898551 0.02997,1.622123 l -2.502689,-1.242302 c 1.200743,-0.853355 2.048443,-1.514384 2.543514,-1.982824 z m -48.964453,0.751375 c 0.358994,0.308693 0.781681,0.636079 1.268139,0.982886 0.292638,0.205535 0.740205,0.509437 1.342037,0.911572 l -2.458764,1.327051 c -0.0039,-1.473087 -0.05459,-2.546855 -0.151412,-3.221509 z m 59.37312,2.198315 -7.316866,7.705473 1.964738,1.865519 2.137854,-2.251025 1.872237,1.778186 0.102836,4.358907 2.783293,2.64325 -0.113172,-4.369243 c 0.65998,0.56187 1.41852,0.821911 2.27583,0.779798 0.864133,-0.03563 1.594587,-0.367182 2.190564,-0.994772 l 0.689881,-0.72657 c 0.628365,-0.661698 0.951366,-1.425309 0.968933,-2.290816 0.01756,-0.865507 -0.298142,-1.606159 -0.946196,-2.22157 z m -69.838631,2.452564 c -0.849105,0.03403 -1.57004,0.353385 -2.163176,0.957564 l -4.0829547,4.158403 c -0.6326784,0.644458 -0.9447211,1.41925 -0.936377,2.323889 0.00834,0.904639 0.3348101,1.673124 0.9792684,2.305802 l 2.8897461,2.837553 c 0.6444582,0.632681 1.4192512,0.944724 2.3238892,0.936377 0.904639,-0.0083 1.673124,-0.33481 2.305802,-0.979268 l 3.638021,-3.705717 c 0.289976,-0.295377 0.452873,-0.656025 0.488859,-1.082105 l 0.302307,0.296623 1.819011,-1.853117 -4.773352,-4.685502 -4.161503,4.239018 1.902726,1.86862 1.71049,-1.742013 c 0.210892,-0.214819 0.405066,-0.446243 0.582393,-0.694014 0.235082,0.243967 0.357543,0.568922 0.367936,0.974617 0.0037,0.399105 -0.113112,0.71951 -0.350366,0.961182 l -3.459737,3.524332 c -0.112037,0.114126 -0.244462,0.175392 -0.397392,0.183452 -0.153051,-0.0052 -0.286886,-0.06418 -0.401009,-0.176217 L 8.6942981,23.255244 C 8.5801721,23.143207 8.5225287,23.014009 8.521182,22.867671 8.519712,22.708028 8.575027,22.570966 8.6870634,22.456843 l 4.0824386,-4.158402 c 0.158169,-0.161114 0.421227,-0.133969 0.789099,0.08216 l 0.332796,-2.876827 c -0.311476,-0.05201 -0.608901,-0.07232 -0.891935,-0.06098 z m 69.928031,1.388029 4.522721,4.294828 c 0.109115,0.103649 0.162347,0.232389 0.159681,0.385506 0.0106,0.152774 -0.03922,0.287109 -0.149345,0.403077 l -0.709518,0.746724 c -0.103648,0.109136 -0.235212,0.165882 -0.394808,0.170015 -0.146296,0.0038 -0.273776,-0.04621 -0.382922,-0.149861 l -4.522721,-4.294828 z m 10.044865,9.071798 c -0.524787,0.0083 -1.032928,0.150795 -1.524972,0.427364 l -3.530533,1.984375 c -0.78727,0.44251 -1.302988,1.099328 -1.547193,1.970422 -0.244204,0.871093 -0.14537,1.700434 0.29714,2.487704 l 3.049426,5.424991 c 0.44251,0.78727 1.099328,1.302988 1.970422,1.547193 0.871094,0.244204 1.700434,0.144853 2.487704,-0.297657 l 3.530017,-1.984375 c 0.787269,-0.44251 1.302988,-1.099328 1.547192,-1.970422 0.244205,-0.871094 0.145371,-1.700434 -0.297139,-2.487703 l -3.049427,-5.424475 c -0.44251,-0.78727 -1.099328,-1.302988 -1.970422,-1.547193 -0.32666,-0.09158 -0.647343,-0.135217 -0.962215,-0.130224 z M 3.2579374,27.516999 c -0.3148482,0.0063 -0.6338933,0.06106 -0.9570475,0.164331 -0.8617446,0.275385 -1.49967709,0.814793 -1.91357832,1.617473 l -2.85202228,5.530928 c -0.4139012,0.80268 -0.4831237,1.634745 -0.2077393,2.496489 0.2753846,0.861744 0.8142763,1.499677 1.6169556,1.913578 l 3.5997803,1.856217 c 0.8026794,0.413902 1.6347438,0.483124 2.4964884,0.20774 0.8617446,-0.275385 1.499677,-0.814793 1.9135783,-1.617473 L 9.8063749,34.155354 C 10.220276,33.352674 10.289499,32.520609 10.014114,31.658865 9.73873,30.797121 9.199838,30.159188 8.3971586,29.745287 L 4.7973783,27.88907 C 4.2957037,27.630381 3.7826844,27.506435 3.2579374,27.516999 Z m 89.7857336,1.109493 c 0.05263,-0.0018 0.105805,0.0048 0.158647,0.01964 0.153723,0.0431 0.267313,0.130271 0.341065,0.261483 l 3.048909,5.424475 c 0.07375,0.131212 0.08698,0.269957 0.03927,0.415479 -0.0349,0.149112 -0.122071,0.262703 -0.261483,0.341064 l -3.530533,1.984375 c -0.139413,0.07836 -0.286045,0.0958 -0.439767,0.05271 -0.140913,-0.0395 -0.248193,-0.124587 -0.321944,-0.255798 l -3.04891,-5.424992 c -0.07375,-0.131212 -0.09329,-0.271534 -0.05839,-0.420646 0.04771,-0.145522 0.14119,-0.25702 0.280603,-0.33538 l 3.530534,-1.984375 c 0.08713,-0.04898 0.174281,-0.0751 0.261999,-0.07803 z M 3.2817086,30.246548 c 0.089452,-0.0035 0.1788457,0.01775 0.2676839,0.06356 l 3.5992635,1.8557 c 0.1421411,0.0733 0.2376901,0.185891 0.2862874,0.337964 0.044548,0.1394 0.032293,0.276014 -0.03669,0.409794 l -2.8520222,5.530929 c -0.068984,0.133782 -0.1751323,0.227179 -0.3188436,0.280086 -0.1477612,0.04024 -0.2929745,0.02369 -0.4351156,-0.04961 L 0.19300819,36.819274 c -0.14214114,-0.0733 -0.23553877,-0.17996 -0.28008626,-0.31936 -0.04859727,-0.152073 -0.03849445,-0.294618 0.0304891,-0.428398 L 2.7954333,30.540071 c 0.068984,-0.13378 0.1772837,-0.22073 0.3250448,-0.260966 0.053892,-0.01984 0.1075595,-0.03046 0.1612305,-0.03256 z M 99.51046,40.538944 c -0.213041,0.005 -0.429883,0.03104 -0.650606,0.07855 l -3.958932,0.852144 c -0.882894,0.190015 -1.570066,0.665258 -2.060856,1.425236 -0.490789,0.759978 -0.64115,1.581038 -0.451135,2.463932 l 1.09244,5.076693 c 0.08709,0.40466 0.298602,0.739585 0.634586,1.004073 l -0.413411,0.08888 0.54622,2.538346 6.538614,-1.407149 -1.249531,-5.807915 -2.607593,0.561207 0.513664,2.386417 c 0.06334,0.294298 0.149576,0.583763 0.258899,0.868164 -0.333065,0.06206 -0.671478,-0.01438 -1.015959,-0.228926 -0.335284,-0.216525 -0.538526,-0.490054 -0.609782,-0.821139 l -1.039213,-4.828646 c -0.03365,-0.156346 -0.01178,-0.300397 0.06563,-0.432531 0.08859,-0.124919 0.211073,-0.204065 0.367419,-0.237712 l 3.958932,-0.852144 c 0.156345,-0.03365 0.296158,-0.01066 0.419096,0.06873 0.134098,0.08661 0.217998,0.207973 0.251668,0.364319 l 1.22628,5.697327 c 0.0475,0.220723 -0.12044,0.425144 -0.50333,0.613399 l 2.2195,1.860868 c 0.85924,-0.925881 1.16976,-1.94064 0.93224,-3.044258 l -1.22628,-5.697327 c -0.19001,-0.882894 -0.66474,-1.570067 -1.42472,-2.060856 -0.56998,-0.368092 -1.17472,-0.544544 -1.813839,-0.529683 z M -2.7303276,42.26907 c -0.6425984,-0.0038 -1.2387225,0.167495 -1.7880045,0.513664 -0.732376,0.461559 -1.1769845,1.13253 -1.3342855,2.01228 L -7.4571708,53.76811 3.0026558,55.63828 3.4791125,52.97126 0.42348508,52.42504 0.87772092,49.883076 4.4614815,47.39899 5.1368925,43.620409 1.5510648,46.118448 C 1.6570957,45.2582 1.456431,44.482088 0.94955116,43.789391 0.44432706,43.087434 -0.23401429,42.66015 -1.0859835,42.507816 l -0.9865031,-0.176217 c -0.224568,-0.04015 -0.4436415,-0.06126 -0.657841,-0.06253 z m 0.066146,2.719731 c 0.037126,-5.29e-4 0.075364,0.0028 0.1147216,0.0098 l 1.0144084,0.181384 c 0.1481685,0.02649 0.2678943,0.105165 0.3591512,0.236161 0.083652,0.12008 0.1122755,0.253874 0.085783,0.402043 l -1.0981242,6.139677 -2.111499,-0.377238 1.0981242,-6.139677 c 0.026493,-0.148169 0.1042372,-0.263203 0.2335774,-0.345199 0.091302,-0.06968 0.1924782,-0.105381 0.3038575,-0.10697 z m 97.1093176,9.718787 -0.274918,3.120223 2.178161,1.324983 -0.494543,5.622913 -2.376599,0.923975 -0.274402,3.120739 11.044285,-4.609021 0.26717,-3.036507 z m -91.6424679,1.381311 -9.84281,6.807336 0.3710367,3.025139 L 4.5255603,70.15109 4.144705,67.041719 1.7381335,66.199393 1.0518705,60.596634 3.1835233,59.19827 Z m 96.1336669,4.722709 c 1.232185,0.807292 2.156855,1.356044 2.773475,1.646411 -0.45529,0.129915 -0.96152,0.30242 -1.51877,0.517798 -0.332643,0.131266 -0.832718,0.337809 -1.499651,0.619084 z m -100.4145425,1.530656 0.3400309,2.773474 c -1.3732459,-0.533099 -2.391554,-0.877369 -3.0551107,-1.033012 0.4182729,-0.221847 0.8774857,-0.496025 1.3776937,-0.822689 0.2980285,-0.197637 0.7436173,-0.503825 1.3373861,-0.917773 z M 3.0595,71.836775 c -0.4172515,0.01564 -0.8309179,0.11747 -1.2412679,0.305924 l -3.6803955,1.690336 c -0.8207,0.376909 -1.3883863,0.989308 -1.7027385,1.837614 -0.3143524,0.848306 -0.2851324,1.678654 0.08785,2.490804 L 0.49221474,86.804337 10.122635,82.381868 6.1533679,73.738467 C 5.7803855,72.926317 5.1697444,72.363518 4.3214384,72.049165 3.8972854,71.891987 3.4767514,71.821136 3.0595,71.836775 Z m 0.1090373,2.714046 c 0.073758,-0.0028 0.1478749,0.0095 0.2227254,0.03721 0.1372261,0.05085 0.2374221,0.144853 0.3002401,0.281637 L 6.5300891,81.050166 1.8239164,83.211791 -1.01467,77.030773 c -0.06282,-0.136783 -0.064568,-0.275877 -0.00517,-0.417029 0.046925,-0.145775 0.14302224,-0.252099 0.28835452,-0.318843 L 2.94891,74.605081 c 0.072666,-0.03337 0.1458665,-0.05144 0.2196249,-0.05426 z m 80.1935547,13.15837 -2.386418,2.028817 0.620117,2.472717 -4.300512,3.656108 -2.340426,-1.010792 -2.386934,2.029334 11.100097,4.473115 2.322339,-1.974043 z m -62.477324,6.518982 -0.121439,11.966707 2.68459,1.44333 9.915158,-6.70089 -2.759005,-1.483626 -2.076876,1.478976 -4.971273,-2.672702 0.08837,-2.548165 z m 61.389535,0.980819 c 0.31045,1.440007 0.582896,2.479987 0.818038,3.119706 C 82.67695,98.1015 82.195464,97.869008 81.647468,97.631066 81.318454,97.490953 80.817595,97.28674 80.145234,97.0187 Z m -10.192143,1.756998 -2.489254,1.069186 1.225249,2.852534 -2.372982,1.01906 -4.046265,-1.62522 -3.526399,1.51515 4.059183,1.61954 c -0.776661,0.3848 -1.314858,0.97948 -1.614371,1.78387 -0.308156,0.80811 -0.29145,1.6098 0.05013,2.40502 l 0.395324,0.92088 c 0.36014,0.83844 0.934511,1.4361 1.722893,1.79369 0.788382,0.35738 1.593167,0.35995 2.414323,0.007 l 8.375716,-3.59771 z m -38.052974,4.04368 -1.286227,6.56394 5.829619,1.14257 0.513147,-2.61741 -2.39572,-0.46923 c -0.295416,-0.0579 -0.595224,-0.0932 -0.899686,-0.1049 0.07437,-0.33053 0.278289,-0.61146 0.611332,-0.84336 0.331234,-0.22267 0.662945,-0.30129 0.995288,-0.23616 l 4.846732,0.94981 c 0.15694,0.0308 0.280675,0.10774 0.371554,0.231 0.07984,0.13068 0.104141,0.27455 0.07338,0.43149 l -0.778764,3.97392 c -0.03076,0.15694 -0.106957,0.27647 -0.22841,0.35812 -0.132493,0.0891 -0.277142,0.11807 -0.434082,0.0873 l -5.719031,-1.12086 c -0.22156,-0.0434 -0.343412,-0.27825 -0.365352,-0.70435 l -2.585372,1.30535 c 0.511816,1.15481 1.322014,1.84063 2.429826,2.05775 l 5.71903,1.12087 c 0.88625,0.17369 1.704869,0.008 2.455664,-0.49661 0.750796,-0.50473 1.212782,-1.19994 1.386479,-2.08618 l 0.778764,-3.97444 c 0.173698,-0.88624 0.0086,-1.70487 -0.496094,-2.45566 -0.504723,-0.7508 -1.200445,-1.21279 -2.086694,-1.38648 l -5.095813,-0.9989 c -0.406197,-0.0796 -0.796956,-0.0173 -1.172538,0.18706 l 0.08113,-0.41547 z m -10.507886,0.32401 2.460832,1.32292 c -1.227915,0.81377 -2.096486,1.44653 -2.60656,1.89859 0.06024,-0.46962 0.101064,-1.00288 0.12299,-1.5999 0.01059,-0.35745 0.01807,-0.89781 0.02274,-1.62161 z m 33.398478,1.08934 c -0.109219,0.002 -0.220031,0.009 -0.332279,0.0207 l -6.187736,0.66146 c -0.897989,0.096 -1.630786,0.49634 -2.198832,1.20044 -0.568046,0.70411 -0.80401,1.50497 -0.707968,2.40296 l 0.430465,4.02714 c 0.09604,0.898 0.496338,1.63079 1.200444,2.19883 0.704105,0.56805 1.504964,0.80401 2.402954,0.70797 l 6.187736,-0.66146 c 0.897988,-0.096 1.630786,-0.49633 2.198832,-1.20044 0.568046,-0.70411 0.804526,-1.50497 0.708484,-2.40295 l -0.430982,-4.02715 c -0.09604,-0.89799 -0.495821,-1.63078 -1.199926,-2.19883 -0.616093,-0.49704 -1.306657,-0.74004 -2.071192,-0.72864 z m 14.945341,0.90227 0.84646,1.97042 -5.730916,2.46187 c -0.1383,0.0595 -0.277394,0.0577 -0.417029,-0.005 -0.144569,-0.0505 -0.247979,-0.14916 -0.311092,-0.2961 l -0.406694,-0.94672 c -0.05941,-0.1383 -0.05969,-0.28166 -5.16e-4,-0.42994 0.05424,-0.13593 0.15057,-0.23361 0.288871,-0.29301 z m -14.933972,1.80868 c 0.128068,-0.002 0.246137,0.0362 0.353984,0.11575 0.1149,0.10125 0.180914,0.23166 0.19792,0.39068 l 0.430465,4.02662 c 0.01701,0.15902 -0.02025,0.2959 -0.112138,0.4098 -0.100243,0.12426 -0.224989,0.19432 -0.374654,0.21032 l -6.187736,0.66146 c -0.149665,0.016 -0.281975,-0.0264 -0.396875,-0.12764 -0.123254,-0.0909 -0.193833,-0.21616 -0.21084,-0.37517 l -0.430465,-4.02663 c -0.01701,-0.15902 0.02481,-0.30053 0.125057,-0.42478 0.09189,-0.11391 0.212588,-0.17882 0.362252,-0.19482 l 6.187736,-0.66198 c 0.01871,-0.002 0.037,-0.003 0.05529,-0.004 z" /><g
         id="g199"
         style="opacity:0.4;fill:#7fff2a"
         transform="matrix(0,-0.10041303,0.10041303,0,42.860602,56.646051)"><g
           id="g189"
           transform="matrix(0.90780888,0,0,0.90780888,-637.32939,64.986238)"
           style="fill:#7fff2a"><path
             style="baseline-shift:baseline;display:inline;overflow:visible;opacity:1;vector-effect:none;fill:#7fff2a;paint-order:stroke fill markers;enable-background:accumulate;stop-color:#000000;stop-opacity:1"
             d="m -1189.0449,118.11719 -10.6856,5.4375 c 5.3103,10.43343 3.1384,23.04678 -5.3554,31.10351 -8.4938,8.05674 -21.2052,9.56057 -31.3438,3.70703 l -5.9941,10.38282 c 14.6912,8.48196 33.282,6.28384 45.5898,-5.39063 12.3078,-11.67446 15.4838,-30.12186 7.7891,-45.24023 z"
             id="path181" /><path
             style="baseline-shift:baseline;display:inline;overflow:visible;opacity:1;vector-effect:none;fill:#7fff2a;paint-order:stroke fill markers;enable-background:accumulate;stop-color:#000000;stop-opacity:1"
             d="m -1180.7754,102.84766 -4.7109,3.625 c 11.1623,14.50759 13.0267,34.10753 4.7988,50.45898 -8.2279,16.35145 -25.0788,26.53536 -43.3809,26.2168 -18.302,-0.31856 -34.7895,-11.08306 -42.4433,-27.71094 l -5.3985,2.48437 c 8.6028,18.68934 27.1672,30.80992 47.7383,31.16797 20.5711,0.35806 39.5451,-11.10769 48.793,-29.48632 9.2479,-18.37864 7.1497,-40.44967 -5.3965,-56.75586 z"
             id="path182" /><path
             style="baseline-shift:baseline;display:inline;overflow:visible;opacity:1;vector-effect:none;fill:#7fff2a;paint-order:stroke fill markers;enable-background:accumulate;stop-color:#000000;stop-opacity:1"
             d="m -1169.5,152.43164 c -2.722,8.64946 -7.4905,16.51398 -13.9023,22.92578 l 9.8476,9.84766 c 7.9963,-7.99629 13.9433,-17.80487 17.3379,-28.5918 z"
             id="path183" /><path
             style="baseline-shift:baseline;display:inline;overflow:visible;opacity:1;vector-effect:none;fill:#7fff2a;paint-order:stroke fill markers;enable-background:accumulate;stop-color:#000000;stop-opacity:1"
             d="m -1128.7891,147.5918 c -3.7693,29.4926 -21.0927,55.52437 -46.8418,70.39062 l 3.7344,6.4668 c 27.7628,-16.02886 46.4515,-44.11109 50.5156,-75.91016 z"
             id="path184" /><path
             style="baseline-shift:baseline;display:inline;overflow:visible;opacity:1;vector-effect:none;fill:#7fff2a;paint-order:stroke fill markers;enable-background:accumulate;stop-color:#000000;stop-opacity:1"
             d="m -1102.4141,196.1543 c -22.9634,45.7594 -69.6281,74.55273 -120.8261,74.55273 v 61.44531 c 74.3105,0 142.4142,-42.02274 175.7441,-108.43945 z"
             id="path185" /><path
             style="baseline-shift:baseline;display:inline;overflow:visible;opacity:1;vector-effect:none;fill:#7fff2a;paint-order:stroke fill markers;enable-background:accumulate;stop-color:#000000;stop-opacity:1"
             d="m -993.49219,218.05273 c -28.27151,78.69945 -94.80701,137.42106 -176.41011,155.69141 -81.6032,18.27036 -166.8264,-6.4728 -225.9571,-65.60352 l -21.5351,21.53516 c 66.4775,66.47752 162.4024,94.32945 254.1445,73.78906 91.7421,-20.54039 166.63573,-86.63763 198.41992,-175.11523 z"
             id="path186" /><path
             style="baseline-shift:baseline;display:inline;overflow:visible;opacity:1;vector-effect:none;fill:#7fff2a;paint-order:stroke fill markers;enable-background:accumulate;stop-color:#000000;stop-opacity:1"
             d="m -935.22266,155.74023 c -8.63742,123.02783 -94.16084,226.74569 -213.28904,258.66602 l 18.4707,68.93555 c 148.28889,-39.7339 255.25608,-169.4605 266.0078,-322.60352 z"
             id="path187" /><path
             style="baseline-shift:baseline;display:inline;overflow:visible;opacity:1;vector-effect:none;fill:#7fff2a;paint-order:stroke fill markers;enable-background:accumulate;stop-color:#000000;stop-opacity:1"
             d="m -793.91797,135.51953 c 0,206.27331 -146.44346,383.20544 -349.08203,421.75781 -202.6386,38.55238 -403.8223,-72.243 -479.5684,-264.10547 l -31.3183,12.36524 c 81.6051,206.70323 298.8668,326.35085 517.1797,284.81641 218.31285,-41.53445 376.45895,-232.60523 376.45895,-454.83399 z"
             id="path188" /><path
             style="baseline-shift:baseline;display:inline;overflow:visible;opacity:1;vector-effect:none;fill:#7fff2a;paint-order:stroke fill markers;enable-background:accumulate;stop-color:#000000;stop-opacity:1"
             d="m -880.08203,287.30078 c -39.27315,88.79136 -111.42628,158.8967 -201.31057,195.59961 -89.8842,36.70291 -190.485,37.13832 -280.6836,1.21484 l -8.248,20.71485 c 95.5509,38.05517 202.1433,37.59374 297.3613,-1.28711 95.21798,-38.88085 171.66789,-113.16245 213.27149,-207.22266 z"
             id="path189" /></g><g
           id="g198"
           transform="matrix(-0.90780888,0,0,-0.90780888,-2858.1271,310.55353)"
           style="fill:#7fff2a"><path
             style="baseline-shift:baseline;display:inline;overflow:visible;opacity:1;vector-effect:none;fill:#7fff2a;paint-order:stroke fill markers;enable-background:accumulate;stop-color:#000000;stop-opacity:1"
             d="m -1189.0449,118.11719 -10.6856,5.4375 c 5.3103,10.43343 3.1384,23.04678 -5.3554,31.10351 -8.4938,8.05674 -21.2052,9.56057 -31.3438,3.70703 l -5.9941,10.38282 c 14.6912,8.48196 33.282,6.28384 45.5898,-5.39063 12.3078,-11.67446 15.4838,-30.12186 7.7891,-45.24023 z"
             id="path190" /><path
             style="baseline-shift:baseline;display:inline;overflow:visible;opacity:1;vector-effect:none;fill:#7fff2a;paint-order:stroke fill markers;enable-background:accumulate;stop-color:#000000;stop-opacity:1"
             d="m -1180.7754,102.84766 -4.7109,3.625 c 11.1623,14.50759 13.0267,34.10753 4.7988,50.45898 -8.2279,16.35145 -25.0788,26.53536 -43.3809,26.2168 -18.302,-0.31856 -34.7895,-11.08306 -42.4433,-27.71094 l -5.3985,2.48437 c 8.6028,18.68934 27.1672,30.80992 47.7383,31.16797 20.5711,0.35806 39.5451,-11.10769 48.793,-29.48632 9.2479,-18.37864 7.1497,-40.44967 -5.3965,-56.75586 z"
             id="path191" /><path
             style="baseline-shift:baseline;display:inline;overflow:visible;opacity:1;vector-effect:none;fill:#7fff2a;paint-order:stroke fill markers;enable-background:accumulate;stop-color:#000000;stop-opacity:1"
             d="m -1169.5,152.43164 c -2.722,8.64946 -7.4905,16.51398 -13.9023,22.92578 l 9.8476,9.84766 c 7.9963,-7.99629 13.9433,-17.80487 17.3379,-28.5918 z"
             id="path192" /><path
             style="baseline-shift:baseline;display:inline;overflow:visible;opacity:1;vector-effect:none;fill:#7fff2a;paint-order:stroke fill markers;enable-background:accumulate;stop-color:#000000;stop-opacity:1"
             d="m -1128.7891,147.5918 c -3.7693,29.4926 -21.0927,55.52437 -46.8418,70.39062 l 3.7344,6.4668 c 27.7628,-16.02886 46.4515,-44.11109 50.5156,-75.91016 z"
             id="path193" /><path
             style="baseline-shift:baseline;display:inline;overflow:visible;opacity:1;vector-effect:none;fill:#7fff2a;paint-order:stroke fill markers;enable-background:accumulate;stop-color:#000000;stop-opacity:1"
             d="m -1102.4141,196.1543 c -22.9634,45.7594 -69.6281,74.55273 -120.8261,74.55273 v 61.44531 c 74.3105,0 142.4142,-42.02274 175.7441,-108.43945 z"
             id="path194" /><path
             style="baseline-shift:baseline;display:inline;overflow:visible;opacity:1;vector-effect:none;fill:#7fff2a;paint-order:stroke fill markers;enable-background:accumulate;stop-color:#000000;stop-opacity:1"
             d="m -993.49219,218.05273 c -28.27151,78.69945 -94.80701,137.42106 -176.41011,155.69141 -81.6032,18.27036 -166.8264,-6.4728 -225.9571,-65.60352 l -21.5351,21.53516 c 66.4775,66.47752 162.4024,94.32945 254.1445,73.78906 91.7421,-20.54039 166.63573,-86.63763 198.41992,-175.11523 z"
             id="path195" /><path
             style="baseline-shift:baseline;display:inline;overflow:visible;opacity:1;vector-effect:none;fill:#7fff2a;paint-order:stroke fill markers;enable-background:accumulate;stop-color:#000000;stop-opacity:1"
             d="m -935.22266,155.74023 c -8.63742,123.02783 -94.16084,226.74569 -213.28904,258.66602 l 18.4707,68.93555 c 148.28889,-39.7339 255.25608,-169.4605 266.0078,-322.60352 z"
             id="path196" /><path
             style="baseline-shift:baseline;display:inline;overflow:visible;opacity:1;vector-effect:none;fill:#7fff2a;paint-order:stroke fill markers;enable-background:accumulate;stop-color:#000000;stop-opacity:1"
             d="m -793.91797,135.51953 c 0,206.27331 -146.44346,383.20544 -349.08203,421.75781 -202.6386,38.55238 -403.8223,-72.243 -479.5684,-264.10547 l -31.3183,12.36524 c 81.6051,206.70323 298.8668,326.35085 517.1797,284.81641 218.31285,-41.53445 376.45895,-232.60523 376.45895,-454.83399 z"
             id="path197" /><path
             style="baseline-shift:baseline;display:inline;overflow:visible;opacity:1;vector-effect:none;fill:#7fff2a;paint-order:stroke fill markers;enable-background:accumulate;stop-color:#000000;stop-opacity:1"
             d="m -880.08203,287.30078 c -39.27315,88.79136 -111.42628,158.8967 -201.31057,195.59961 -89.8842,36.70291 -190.485,37.13832 -280.6836,1.21484 l -8.248,20.71485 c 95.5509,38.05517 202.1433,37.59374 297.3613,-1.28711 95.21798,-38.88085 171.66789,-113.16245 213.27149,-207.22266 z"
             id="path198" /></g></g><g
         id="g217"
         style="opacity:0.2;fill:#7fff2a"
         transform="matrix(-0.02598881,-0.09699154,0.09699154,-0.02598881,-1.9183104,67.505801)"><g
           id="g207"
           transform="matrix(0.90780888,0,0,0.90780888,-637.32939,64.986238)"
           style="fill:#7fff2a"><path
             style="baseline-shift:baseline;display:inline;overflow:visible;opacity:1;vector-effect:none;fill:#7fff2a;paint-order:stroke fill markers;enable-background:accumulate;stop-color:#000000;stop-opacity:1"
             d="m -1189.0449,118.11719 -10.6856,5.4375 c 5.3103,10.43343 3.1384,23.04678 -5.3554,31.10351 -8.4938,8.05674 -21.2052,9.56057 -31.3438,3.70703 l -5.9941,10.38282 c 14.6912,8.48196 33.282,6.28384 45.5898,-5.39063 12.3078,-11.67446 15.4838,-30.12186 7.7891,-45.24023 z"
             id="path199" /><path
             style="baseline-shift:baseline;display:inline;overflow:visible;opacity:1;vector-effect:none;fill:#7fff2a;paint-order:stroke fill markers;enable-background:accumulate;stop-color:#000000;stop-opacity:1"
             d="m -1180.7754,102.84766 -4.7109,3.625 c 11.1623,14.50759 13.0267,34.10753 4.7988,50.45898 -8.2279,16.35145 -25.0788,26.53536 -43.3809,26.2168 -18.302,-0.31856 -34.7895,-11.08306 -42.4433,-27.71094 l -5.3985,2.48437 c 8.6028,18.68934 27.1672,30.80992 47.7383,31.16797 20.5711,0.35806 39.5451,-11.10769 48.793,-29.48632 9.2479,-18.37864 7.1497,-40.44967 -5.3965,-56.75586 z"
             id="path200" /><path
             style="baseline-shift:baseline;display:inline;overflow:visible;opacity:1;vector-effect:none;fill:#7fff2a;paint-order:stroke fill markers;enable-background:accumulate;stop-color:#000000;stop-opacity:1"
             d="m -1169.5,152.43164 c -2.722,8.64946 -7.4905,16.51398 -13.9023,22.92578 l 9.8476,9.84766 c 7.9963,-7.99629 13.9433,-17.80487 17.3379,-28.5918 z"
             id="path201" /><path
             style="baseline-shift:baseline;display:inline;overflow:visible;opacity:1;vector-effect:none;fill:#7fff2a;paint-order:stroke fill markers;enable-background:accumulate;stop-color:#000000;stop-opacity:1"
             d="m -1128.7891,147.5918 c -3.7693,29.4926 -21.0927,55.52437 -46.8418,70.39062 l 3.7344,6.4668 c 27.7628,-16.02886 46.4515,-44.11109 50.5156,-75.91016 z"
             id="path202" /><path
             style="baseline-shift:baseline;display:inline;overflow:visible;opacity:1;vector-effect:none;fill:#7fff2a;paint-order:stroke fill markers;enable-background:accumulate;stop-color:#000000;stop-opacity:1"
             d="m -1102.4141,196.1543 c -22.9634,45.7594 -69.6281,74.55273 -120.8261,74.55273 v 61.44531 c 74.3105,0 142.4142,-42.02274 175.7441,-108.43945 z"
             id="path203" /><path
             style="baseline-shift:baseline;display:inline;overflow:visible;opacity:1;vector-effect:none;fill:#7fff2a;paint-order:stroke fill markers;enable-background:accumulate;stop-color:#000000;stop-opacity:1"
             d="m -993.49219,218.05273 c -28.27151,78.69945 -94.80701,137.42106 -176.41011,155.69141 -81.6032,18.27036 -166.8264,-6.4728 -225.9571,-65.60352 l -21.5351,21.53516 c 66.4775,66.47752 162.4024,94.32945 254.1445,73.78906 91.7421,-20.54039 166.63573,-86.63763 198.41992,-175.11523 z"
             id="path204" /><path
             style="baseline-shift:baseline;display:inline;overflow:visible;opacity:1;vector-effect:none;fill:#7fff2a;paint-order:stroke fill markers;enable-background:accumulate;stop-color:#000000;stop-opacity:1"
             d="m -935.22266,155.74023 c -8.63742,123.02783 -94.16084,226.74569 -213.28904,258.66602 l 18.4707,68.93555 c 148.28889,-39.7339 255.25608,-169.4605 266.0078,-322.60352 z"
             id="path205" /><path
             style="baseline-shift:baseline;display:inline;overflow:visible;opacity:1;vector-effect:none;fill:#7fff2a;paint-order:stroke fill markers;enable-background:accumulate;stop-color:#000000;stop-opacity:1"
             d="m -793.91797,135.51953 c 0,206.27331 -146.44346,383.20544 -349.08203,421.75781 -202.6386,38.55238 -403.8223,-72.243 -479.5684,-264.10547 l -31.3183,12.36524 c 81.6051,206.70323 298.8668,326.35085 517.1797,284.81641 218.31285,-41.53445 376.45895,-232.60523 376.45895,-454.83399 z"
             id="path206" /><path
             style="baseline-shift:baseline;display:inline;overflow:visible;opacity:1;vector-effect:none;fill:#7fff2a;paint-order:stroke fill markers;enable-background:accumulate;stop-color:#000000;stop-opacity:1"
             d="m -880.08203,287.30078 c -39.27315,88.79136 -111.42628,158.8967 -201.31057,195.59961 -89.8842,36.70291 -190.485,37.13832 -280.6836,1.21484 l -8.248,20.71485 c 95.5509,38.05517 202.1433,37.59374 297.3613,-1.28711 95.21798,-38.88085 171.66789,-113.16245 213.27149,-207.22266 z"
             id="path207" /></g><g
           id="g216"
           transform="matrix(-0.90780888,0,0,-0.90780888,-2858.1271,310.55353)"
           style="fill:#7fff2a"><path
             style="baseline-shift:baseline;display:inline;overflow:visible;opacity:1;vector-effect:none;fill:#7fff2a;paint-order:stroke fill markers;enable-background:accumulate;stop-color:#000000;stop-opacity:1"
             d="m -1189.0449,118.11719 -10.6856,5.4375 c 5.3103,10.43343 3.1384,23.04678 -5.3554,31.10351 -8.4938,8.05674 -21.2052,9.56057 -31.3438,3.70703 l -5.9941,10.38282 c 14.6912,8.48196 33.282,6.28384 45.5898,-5.39063 12.3078,-11.67446 15.4838,-30.12186 7.7891,-45.24023 z"
             id="path208" /><path
             style="baseline-shift:baseline;display:inline;overflow:visible;opacity:1;vector-effect:none;fill:#7fff2a;paint-order:stroke fill markers;enable-background:accumulate;stop-color:#000000;stop-opacity:1"
             d="m -1180.7754,102.84766 -4.7109,3.625 c 11.1623,14.50759 13.0267,34.10753 4.7988,50.45898 -8.2279,16.35145 -25.0788,26.53536 -43.3809,26.2168 -18.302,-0.31856 -34.7895,-11.08306 -42.4433,-27.71094 l -5.3985,2.48437 c 8.6028,18.68934 27.1672,30.80992 47.7383,31.16797 20.5711,0.35806 39.5451,-11.10769 48.793,-29.48632 9.2479,-18.37864 7.1497,-40.44967 -5.3965,-56.75586 z"
             id="path209" /><path
             style="baseline-shift:baseline;display:inline;overflow:visible;opacity:1;vector-effect:none;fill:#7fff2a;paint-order:stroke fill markers;enable-background:accumulate;stop-color:#000000;stop-opacity:1"
             d="m -1169.5,152.43164 c -2.722,8.64946 -7.4905,16.51398 -13.9023,22.92578 l 9.8476,9.84766 c 7.9963,-7.99629 13.9433,-17.80487 17.3379,-28.5918 z"
             id="path210" /><path
             style="baseline-shift:baseline;display:inline;overflow:visible;opacity:1;vector-effect:none;fill:#7fff2a;paint-order:stroke fill markers;enable-background:accumulate;stop-color:#000000;stop-opacity:1"
             d="m -1128.7891,147.5918 c -3.7693,29.4926 -21.0927,55.52437 -46.8418,70.39062 l 3.7344,6.4668 c 27.7628,-16.02886 46.4515,-44.11109 50.5156,-75.91016 z"
             id="path211" /><path
             style="baseline-shift:baseline;display:inline;overflow:visible;opacity:1;vector-effect:none;fill:#7fff2a;paint-order:stroke fill markers;enable-background:accumulate;stop-color:#000000;stop-opacity:1"
             d="m -1102.4141,196.1543 c -22.9634,45.7594 -69.6281,74.55273 -120.8261,74.55273 v 61.44531 c 74.3105,0 142.4142,-42.02274 175.7441,-108.43945 z"
             id="path212" /><path
             style="baseline-shift:baseline;display:inline;overflow:visible;opacity:1;vector-effect:none;fill:#7fff2a;paint-order:stroke fill markers;enable-background:accumulate;stop-color:#000000;stop-opacity:1"
             d="m -993.49219,218.05273 c -28.27151,78.69945 -94.80701,137.42106 -176.41011,155.69141 -81.6032,18.27036 -166.8264,-6.4728 -225.9571,-65.60352 l -21.5351,21.53516 c 66.4775,66.47752 162.4024,94.32945 254.1445,73.78906 91.7421,-20.54039 166.63573,-86.63763 198.41992,-175.11523 z"
             id="path213" /><path
             style="baseline-shift:baseline;display:inline;overflow:visible;opacity:1;vector-effect:none;fill:#7fff2a;paint-order:stroke fill markers;enable-background:accumulate;stop-color:#000000;stop-opacity:1"
             d="m -935.22266,155.74023 c -8.63742,123.02783 -94.16084,226.74569 -213.28904,258.66602 l 18.4707,68.93555 c 148.28889,-39.7339 255.25608,-169.4605 266.0078,-322.60352 z"
             id="path214" /><path
             style="baseline-shift:baseline;display:inline;overflow:visible;opacity:1;vector-effect:none;fill:#7fff2a;paint-order:stroke fill markers;enable-background:accumulate;stop-color:#000000;stop-opacity:1"
             d="m -793.91797,135.51953 c 0,206.27331 -146.44346,383.20544 -349.08203,421.75781 -202.6386,38.55238 -403.8223,-72.243 -479.5684,-264.10547 l -31.3183,12.36524 c 81.6051,206.70323 298.8668,326.35085 517.1797,284.81641 218.31285,-41.53445 376.45895,-232.60523 376.45895,-454.83399 z"
             id="path215" /><path
             style="baseline-shift:baseline;display:inline;overflow:visible;opacity:1;vector-effect:none;fill:#7fff2a;paint-order:stroke fill markers;enable-background:accumulate;stop-color:#000000;stop-opacity:1"
             d="m -880.08203,287.30078 c -39.27315,88.79136 -111.42628,158.8967 -201.31057,195.59961 -89.8842,36.70291 -190.485,37.13832 -280.6836,1.21484 l -8.248,20.71485 c 95.5509,38.05517 202.1433,37.59374 297.3613,-1.28711 95.21798,-38.88085 171.66789,-113.16245 213.27149,-207.22266 z"
             id="path216" /></g></g></g></g></svg>
