<?xml version="1.0" encoding="UTF-8" standalone="no"?>
<!-- Created with Inkscape (http://www.inkscape.org/) -->

<svg
   width="120mm"
   height="120mm"
   viewBox="0 0 120 120"
   version="1.1"
   id="svg1"
   xml:space="preserve"
   inkscape:export-batch-path="/home/jacqueshauzeur/ownDev/daroga/images"
   inkscape:export-batch-name=""
   inkscape:version="1.4.2 (ebf0e940d0, 2025-05-08)"
   sodipodi:docname="main.svg"
   xmlns:inkscape="http://www.inkscape.org/namespaces/inkscape"
   xmlns:sodipodi="http://sodipodi.sourceforge.net/DTD/sodipodi-0.dtd"
   xmlns="http://www.w3.org/2000/svg"
   xmlns:svg="http://www.w3.org/2000/svg"><sodipodi:namedview
     id="namedview1"
     pagecolor="#505050"
     bordercolor="#eeeeee"
     borderopacity="1"
     inkscape:showpageshadow="0"
     inkscape:pageopacity="0"
     inkscape:pagecheckerboard="0"
     inkscape:deskcolor="#505050"
     inkscape:document-units="mm"
     inkscape:zoom="0.22951324"
     inkscape:cx="1455.2538"
     inkscape:cy="67.534232"
     inkscape:window-width="1600"
     inkscape:window-height="863"
     inkscape:window-x="0"
     inkscape:window-y="0"
     inkscape:window-maximized="1"
     inkscape:current-layer="layer1"
     showguides="true"><sodipodi:guide
       position="-209.47753,-0.58645873"
       orientation="0,-1"
       id="guide84"
       inkscape:locked="false" /><inkscape:page
       x="0"
       y="0"
       width="120"
       height="120"
       id="page1"
       margin="0"
       bleed="0" /></sodipodi:namedview><defs
     id="defs1" /><g
     inkscape:label="Layer 1"
     inkscape:groupmode="layer"
     id="layer1"
     transform="translate(-322.85267,343.93281)"><g
       id="daLines"
       transform="translate(121.92167,-2.302255)"><circle
         style="fill:#00ffcc;fill-opacity:1;stroke-width:0.243843;paint-order:stroke fill markers"
         id="path26"
         cx="260.931"
         cy="-281.63055"
         r="60" /><g
         id="g65"
         style="fill:#00d4aa"
         transform="matrix(0.06614028,0.11455833,-0.11455833,0.06614028,395.0383,-89.521173)"><g
           id="g48"
           transform="matrix(0.90780888,0,0,0.90780888,-637.32939,64.986238)"
           style="fill:#00d4aa"><path
             style="baseline-shift:baseline;display:inline;overflow:visible;opacity:1;vector-effect:none;fill:#00d4aa;paint-order:stroke fill markers;enable-background:accumulate;stop-color:#000000;stop-opacity:1"
             d="m -1189.0449,118.11719 -10.6856,5.4375 c 5.3103,10.43343 3.1384,23.04678 -5.3554,31.10351 -8.4938,8.05674 -21.2052,9.56057 -31.3438,3.70703 l -5.9941,10.38282 c 14.6912,8.48196 33.282,6.28384 45.5898,-5.39063 12.3078,-11.67446 15.4838,-30.12186 7.7891,-45.24023 z"
             id="path37" /><path
             style="baseline-shift:baseline;display:inline;overflow:visible;opacity:1;vector-effect:none;fill:#00d4aa;paint-order:stroke fill markers;enable-background:accumulate;stop-color:#000000;stop-opacity:1"
             d="m -1180.7754,102.84766 -4.7109,3.625 c 11.1623,14.50759 13.0267,34.10753 4.7988,50.45898 -8.2279,16.35145 -25.0788,26.53536 -43.3809,26.2168 -18.302,-0.31856 -34.7895,-11.08306 -42.4433,-27.71094 l -5.3985,2.48437 c 8.6028,18.68934 27.1672,30.80992 47.7383,31.16797 20.5711,0.35806 39.5451,-11.10769 48.793,-29.48632 9.2479,-18.37864 7.1497,-40.44967 -5.3965,-56.75586 z"
             id="circle37" /><path
             style="baseline-shift:baseline;display:inline;overflow:visible;opacity:1;vector-effect:none;fill:#00d4aa;paint-order:stroke fill markers;enable-background:accumulate;stop-color:#000000;stop-opacity:1"
             d="m -1169.5,152.43164 c -2.722,8.64946 -7.4905,16.51398 -13.9023,22.92578 l 9.8476,9.84766 c 7.9963,-7.99629 13.9433,-17.80487 17.3379,-28.5918 z"
             id="circle38" /><path
             style="baseline-shift:baseline;display:inline;overflow:visible;opacity:1;vector-effect:none;fill:#00d4aa;paint-order:stroke fill markers;enable-background:accumulate;stop-color:#000000;stop-opacity:1"
             d="m -1128.7891,147.5918 c -3.7693,29.4926 -21.0927,55.52437 -46.8418,70.39062 l 3.7344,6.4668 c 27.7628,-16.02886 46.4515,-44.11109 50.5156,-75.91016 z"
             id="circle39" /><path
             style="baseline-shift:baseline;display:inline;overflow:visible;opacity:1;vector-effect:none;fill:#00d4aa;paint-order:stroke fill markers;enable-background:accumulate;stop-color:#000000;stop-opacity:1"
             d="m -1102.4141,196.1543 c -22.9634,45.7594 -69.6281,74.55273 -120.8261,74.55273 v 61.44531 c 74.3105,0 142.4142,-42.02274 175.7441,-108.43945 z"
             id="path37-3" /><path
             style="baseline-shift:baseline;display:inline;overflow:visible;opacity:1;vector-effect:none;fill:#00d4aa;paint-order:stroke fill markers;enable-background:accumulate;stop-color:#000000;stop-opacity:1"
             d="m -993.49219,218.05273 c -28.27151,78.69945 -94.80701,137.42106 -176.41011,155.69141 -81.6032,18.27036 -166.8264,-6.4728 -225.9571,-65.60352 l -21.5351,21.53516 c 66.4775,66.47752 162.4024,94.32945 254.1445,73.78906 91.7421,-20.54039 166.63573,-86.63763 198.41992,-175.11523 z"
             id="circle37-7" /><path
             style="baseline-shift:baseline;display:inline;overflow:visible;opacity:1;vector-effect:none;fill:#00d4aa;paint-order:stroke fill markers;enable-background:accumulate;stop-color:#000000;stop-opacity:1"
             d="m -935.22266,155.74023 c -8.63742,123.02783 -94.16084,226.74569 -213.28904,258.66602 l 18.4707,68.93555 c 148.28889,-39.7339 255.25608,-169.4605 266.0078,-322.60352 z"
             id="circle38-4" /><path
             style="baseline-shift:baseline;display:inline;overflow:visible;opacity:1;vector-effect:none;fill:#00d4aa;paint-order:stroke fill markers;enable-background:accumulate;stop-color:#000000;stop-opacity:1"
             d="m -793.91797,135.51953 c 0,206.27331 -146.44346,383.20544 -349.08203,421.75781 -202.6386,38.55238 -403.8223,-72.243 -479.5684,-264.10547 l -31.3183,12.36524 c 81.6051,206.70323 298.8668,326.35085 517.1797,284.81641 218.31285,-41.53445 376.45895,-232.60523 376.45895,-454.83399 z"
             id="circle39-5" /><path
             style="baseline-shift:baseline;display:inline;overflow:visible;opacity:1;vector-effect:none;fill:#00d4aa;paint-order:stroke fill markers;enable-background:accumulate;stop-color:#000000;stop-opacity:1"
             d="m -880.08203,287.30078 c -39.27315,88.79136 -111.42628,158.8967 -201.31057,195.59961 -89.8842,36.70291 -190.485,37.13832 -280.6836,1.21484 l -8.248,20.71485 c 95.5509,38.05517 202.1433,37.59374 297.3613,-1.28711 95.21798,-38.88085 171.66789,-113.16245 213.27149,-207.22266 z"
             id="circle40" /></g><g
           id="g64"
           transform="matrix(-0.90780888,0,0,-0.90780888,-2858.1271,310.55353)"
           style="fill:#00d4aa"><path
             style="baseline-shift:baseline;display:inline;overflow:visible;opacity:1;vector-effect:none;fill:#00d4aa;paint-order:stroke fill markers;enable-background:accumulate;stop-color:#000000;stop-opacity:1"
             d="m -1189.0449,118.11719 -10.6856,5.4375 c 5.3103,10.43343 3.1384,23.04678 -5.3554,31.10351 -8.4938,8.05674 -21.2052,9.56057 -31.3438,3.70703 l -5.9941,10.38282 c 14.6912,8.48196 33.282,6.28384 45.5898,-5.39063 12.3078,-11.67446 15.4838,-30.12186 7.7891,-45.24023 z"
             id="path56" /><path
             style="baseline-shift:baseline;display:inline;overflow:visible;opacity:1;vector-effect:none;fill:#00d4aa;paint-order:stroke fill markers;enable-background:accumulate;stop-color:#000000;stop-opacity:1"
             d="m -1180.7754,102.84766 -4.7109,3.625 c 11.1623,14.50759 13.0267,34.10753 4.7988,50.45898 -8.2279,16.35145 -25.0788,26.53536 -43.3809,26.2168 -18.302,-0.31856 -34.7895,-11.08306 -42.4433,-27.71094 l -5.3985,2.48437 c 8.6028,18.68934 27.1672,30.80992 47.7383,31.16797 20.5711,0.35806 39.5451,-11.10769 48.793,-29.48632 9.2479,-18.37864 7.1497,-40.44967 -5.3965,-56.75586 z"
             id="path57" /><path
             style="baseline-shift:baseline;display:inline;overflow:visible;opacity:1;vector-effect:none;fill:#00d4aa;paint-order:stroke fill markers;enable-background:accumulate;stop-color:#000000;stop-opacity:1"
             d="m -1169.5,152.43164 c -2.722,8.64946 -7.4905,16.51398 -13.9023,22.92578 l 9.8476,9.84766 c 7.9963,-7.99629 13.9433,-17.80487 17.3379,-28.5918 z"
             id="path58" /><path
             style="baseline-shift:baseline;display:inline;overflow:visible;opacity:1;vector-effect:none;fill:#00d4aa;paint-order:stroke fill markers;enable-background:accumulate;stop-color:#000000;stop-opacity:1"
             d="m -1128.7891,147.5918 c -3.7693,29.4926 -21.0927,55.52437 -46.8418,70.39062 l 3.7344,6.4668 c 27.7628,-16.02886 46.4515,-44.11109 50.5156,-75.91016 z"
             id="path59" /><path
             style="baseline-shift:baseline;display:inline;overflow:visible;opacity:1;vector-effect:none;fill:#00d4aa;paint-order:stroke fill markers;enable-background:accumulate;stop-color:#000000;stop-opacity:1"
             d="m -1102.4141,196.1543 c -22.9634,45.7594 -69.6281,74.55273 -120.8261,74.55273 v 61.44531 c 74.3105,0 142.4142,-42.02274 175.7441,-108.43945 z"
             id="path60" /><path
             style="baseline-shift:baseline;display:inline;overflow:visible;opacity:1;vector-effect:none;fill:#00d4aa;paint-order:stroke fill markers;enable-background:accumulate;stop-color:#000000;stop-opacity:1"
             d="m -993.49219,218.05273 c -28.27151,78.69945 -94.80701,137.42106 -176.41011,155.69141 -81.6032,18.27036 -166.8264,-6.4728 -225.9571,-65.60352 l -21.5351,21.53516 c 66.4775,66.47752 162.4024,94.32945 254.1445,73.78906 91.7421,-20.54039 166.63573,-86.63763 198.41992,-175.11523 z"
             id="path61" /><path
             style="baseline-shift:baseline;display:inline;overflow:visible;opacity:1;vector-effect:none;fill:#00d4aa;paint-order:stroke fill markers;enable-background:accumulate;stop-color:#000000;stop-opacity:1"
             d="m -935.22266,155.74023 c -8.63742,123.02783 -94.16084,226.74569 -213.28904,258.66602 l 18.4707,68.93555 c 148.28889,-39.7339 255.25608,-169.4605 266.0078,-322.60352 z"
             id="path62" /><path
             style="baseline-shift:baseline;display:inline;overflow:visible;opacity:1;vector-effect:none;fill:#00d4aa;paint-order:stroke fill markers;enable-background:accumulate;stop-color:#000000;stop-opacity:1"
             d="m -793.91797,135.51953 c 0,206.27331 -146.44346,383.20544 -349.08203,421.75781 -202.6386,38.55238 -403.8223,-72.243 -479.5684,-264.10547 l -31.3183,12.36524 c 81.6051,206.70323 298.8668,326.35085 517.1797,284.81641 218.31285,-41.53445 376.45895,-232.60523 376.45895,-454.83399 z"
             id="path63" /><path
             style="baseline-shift:baseline;display:inline;overflow:visible;opacity:1;vector-effect:none;fill:#00d4aa;paint-order:stroke fill markers;enable-background:accumulate;stop-color:#000000;stop-opacity:1"
             d="m -880.08203,287.30078 c -39.27315,88.79136 -111.42628,158.8967 -201.31057,195.59961 -89.8842,36.70291 -190.485,37.13832 -280.6836,1.21484 l -8.248,20.71485 c 95.5509,38.05517 202.1433,37.59374 297.3613,-1.28711 95.21798,-38.88085 171.66789,-113.16245 213.27149,-207.22266 z"
             id="path64" /></g></g><path
         d="m 260.16437,-274.08746 q 0,4.73088 -3.36417,8.09505 -3.31161,3.31161 -7.98991,3.31161 h -34.64046 v -37.89952 h 34.64046 q 4.6783,0 7.98991,3.36417 3.36417,3.31161 3.36417,8.04248 z m -8.51556,0 v -15.08621 q 0,-1.209 -0.84105,-2.05004 -0.84104,-0.84105 -1.99747,-0.84105 h -26.1249 v 20.86839 h 26.1249 q 1.15643,0 1.99747,-0.84105 0.84105,-0.84104 0.84105,-2.05004 z m 56.04334,11.40666 h -9.82969 l -4.20521,-8.51558 h -22.02482 l -4.2052,8.51558 h -9.88226 l 19.86963,-37.89952 h 10.40791 z m -18.55551,-17.0837 q -2.78596,-5.25652 -3.57443,-6.88605 -1.94492,-3.94239 -2.94365,-7.20142 -1.15644,4.04751 -6.46552,14.08747 z"
         id="text27"
         style="font-size:58.1088px;line-height:1;font-family:'Sui Generis';-inkscape-font-specification:'Sui Generis';text-align:end;letter-spacing:-6.61458px;word-spacing:0px;text-anchor:end;fill:#333333;stroke-width:1.23199;paint-order:stroke fill markers"
         aria-label="DA" /></g></g></svg>
