<?xml version="1.0" encoding="UTF-8" standalone="no"?>
<!-- Created with Inkscape (http://www.inkscape.org/) -->

<svg
   width="120mm"
   height="120mm"
   viewBox="0 0 120 120"
   version="1.1"
   id="svg1"
   xml:space="preserve"
   inkscape:export-batch-path="/home/jacqueshauzeur/ownDev/daroga/images"
   inkscape:export-batch-name=""
   inkscape:version="1.4.2 (ebf0e940d0, 2025-05-08)"
   sodipodi:docname="main.svg"
   xmlns:inkscape="http://www.inkscape.org/namespaces/inkscape"
   xmlns:sodipodi="http://sodipodi.sourceforge.net/DTD/sodipodi-0.dtd"
   xmlns="http://www.w3.org/2000/svg"
   xmlns:svg="http://www.w3.org/2000/svg"><sodipodi:namedview
     id="namedview1"
     pagecolor="#505050"
     bordercolor="#eeeeee"
     borderopacity="1"
     inkscape:showpageshadow="0"
     inkscape:pageopacity="0"
     inkscape:pagecheckerboard="0"
     inkscape:deskcolor="#505050"
     inkscape:document-units="mm"
     inkscape:zoom="0.22951324"
     inkscape:cx="1455.2538"
     inkscape:cy="67.534232"
     inkscape:window-width="1600"
     inkscape:window-height="863"
     inkscape:window-x="0"
     inkscape:window-y="0"
     inkscape:window-maximized="1"
     inkscape:current-layer="layer1"
     showguides="true"><sodipodi:guide
       position="57.020447,-0.58644982"
       orientation="0,-1"
       id="guide84"
       inkscape:locked="false" /><inkscape:page
       x="0"
       y="0"
       width="120"
       height="120"
       id="page1"
       margin="0"
       bleed="0" /></sodipodi:namedview><defs
     id="defs1" /><g
     inkscape:label="Layer 1"
     inkscape:groupmode="layer"
     id="layer1"
     transform="translate(-56.354691,343.9328)"><g
       id="daroga"><circle
         style="fill:#00ffcc;fill-opacity:1;stroke-width:0.243843;paint-order:stroke fill markers"
         id="circle143"
         cx="116.35469"
         cy="-283.9328"
         r="60" /><path
         d="m 115.58806,-276.38971 q 0,4.73088 -3.36417,8.09505 -3.31161,3.31161 -7.98991,3.31161 H 69.59352 v -37.89952 h 34.64046 q 4.6783,0 7.98991,3.36417 3.36417,3.31161 3.36417,8.04248 z m -8.51556,0 v -15.08621 q 0,-1.209 -0.84105,-2.05004 -0.84104,-0.84105 -1.99747,-0.84105 h -26.1249 v 20.86839 h 26.1249 q 1.15643,0 1.99747,-0.84105 0.84105,-0.84104 0.84105,-2.05004 z m 56.04334,11.40666 h -9.82969 l -4.20521,-8.51558 h -22.02482 l -4.2052,8.51558 h -9.88226 l 19.86963,-37.89952 h 10.40791 z m -18.55551,-17.0837 q -2.78596,-5.25652 -3.57443,-6.88605 -1.94492,-3.94239 -2.94365,-7.20142 -1.15644,4.04751 -6.46552,14.08747 z"
         id="path161"
         style="font-size:58.1088px;line-height:1;font-family:'Sui Generis';-inkscape-font-specification:'Sui Generis';text-align:end;letter-spacing:-6.61458px;word-spacing:0px;text-anchor:end;fill:#333333;stroke-width:1.23199;paint-order:stroke fill markers"
         aria-label="DA" /></g></g></svg>
