<?xml version="1.0" encoding="UTF-8" standalone="no"?>
<!-- Created with Inkscape (http://www.inkscape.org/) -->

<svg
   width="120mm"
   height="120mm"
   viewBox="0 0 120 120"
   version="1.1"
   id="svg1"
   xml:space="preserve"
   inkscape:export-batch-path="/home/jacqueshauzeur/ownDev/daroga/images"
   inkscape:export-batch-name=""
   inkscape:version="1.4.2 (ebf0e940d0, 2025-05-08)"
   sodipodi:docname="main.svg"
   xmlns:inkscape="http://www.inkscape.org/namespaces/inkscape"
   xmlns:sodipodi="http://sodipodi.sourceforge.net/DTD/sodipodi-0.dtd"
   xmlns="http://www.w3.org/2000/svg"
   xmlns:svg="http://www.w3.org/2000/svg"><sodipodi:namedview
     id="namedview1"
     pagecolor="#505050"
     bordercolor="#eeeeee"
     borderopacity="1"
     inkscape:showpageshadow="0"
     inkscape:pageopacity="0"
     inkscape:pagecheckerboard="0"
     inkscape:deskcolor="#505050"
     inkscape:document-units="mm"
     inkscape:zoom="0.25197127"
     inkscape:cx="976.30178"
     inkscape:cy="992.1766"
     inkscape:window-width="1600"
     inkscape:window-height="863"
     inkscape:window-x="0"
     inkscape:window-y="0"
     inkscape:window-maximized="1"
     inkscape:current-layer="layer1"><inkscape:page
       x="0"
       y="0"
       width="120"
       height="120"
       id="page1"
       margin="0"
       bleed="0" /></sodipodi:namedview><defs
     id="defs1" /><g
     inkscape:label="Layer 1"
     inkscape:groupmode="layer"
     id="layer1"
     transform="translate(5.5807343,162.49358)"><g
       id="daroga"><circle
         style="fill:#00ffcc;fill-opacity:1;stroke-width:0.243843;paint-order:stroke fill markers"
         id="path26"
         cx="54.419266"
         cy="-102.49358"
         r="60" /><path
         d="m 53.571808,-94.155004 q 0,5.229792 -3.718963,8.948755 -3.660855,3.660854 -8.832538,3.660854 H 2.7266087 V -123.44184 H 41.020307 q 5.171683,0 8.832538,3.71896 3.718963,3.66086 3.718963,8.89065 z m -9.413626,0 v -16.677226 q 0,-1.3365 -0.92974,-2.26624 -0.929741,-0.92974 -2.208135,-0.92974 H 12.140234 v 23.06919 h 28.880073 q 1.278394,0 2.208135,-0.929741 0.92974,-0.929741 0.92974,-2.266243 z m 61.953778,12.609609 H 95.245613 L 90.596909,-90.95902 H 66.249322 l -4.648704,9.413625 H 50.676164 L 72.64129,-123.44184 H 84.146832 Z M 85.599552,-100.43075 q -3.079766,-5.81088 -3.951398,-7.61226 -2.150026,-4.35816 -3.254093,-7.9609 -1.278393,4.47437 -7.147382,15.57316 z"
         id="text27"
         style="font-size:58.1088px;line-height:1;font-family:'Sui Generis';-inkscape-font-specification:'Sui Generis';text-align:end;letter-spacing:-6.61458px;word-spacing:0px;text-anchor:end;fill:#666666;stroke-width:1.36192;paint-order:stroke fill markers"
         aria-label="DA" /></g></g></svg>
