<?xml version="1.0" encoding="UTF-8" standalone="no"?>
<!-- Created with Inkscape (http://www.inkscape.org/) -->

<svg
   width="120.00002mm"
   height="120mm"
   viewBox="0 0 120.00001 120"
   version="1.1"
   id="svg1"
   xml:space="preserve"
   inkscape:export-batch-path="/home/jacqueshauzeur/ownDev/daroga/images"
   inkscape:export-batch-name=""
   inkscape:version="1.4.2 (ebf0e940d0, 2025-05-08)"
   sodipodi:docname="main.svg"
   xmlns:inkscape="http://www.inkscape.org/namespaces/inkscape"
   xmlns:sodipodi="http://sodipodi.sourceforge.net/DTD/sodipodi-0.dtd"
   xmlns="http://www.w3.org/2000/svg"
   xmlns:svg="http://www.w3.org/2000/svg"><sodipodi:namedview
     id="namedview1"
     pagecolor="#505050"
     bordercolor="#eeeeee"
     borderopacity="1"
     inkscape:showpageshadow="0"
     inkscape:pageopacity="0"
     inkscape:pagecheckerboard="0"
     inkscape:deskcolor="#505050"
     inkscape:document-units="mm"
     inkscape:zoom="0.22951324"
     inkscape:cx="1455.2538"
     inkscape:cy="67.534232"
     inkscape:window-width="1600"
     inkscape:window-height="863"
     inkscape:window-x="0"
     inkscape:window-y="0"
     inkscape:window-maximized="1"
     inkscape:current-layer="layer1"
     showguides="true"><sodipodi:guide
       position="-475.97549,-0.58645988"
       orientation="0,-1"
       id="guide84"
       inkscape:locked="false" /><inkscape:page
       x="0"
       y="0"
       width="120.00001"
       height="120"
       id="page1"
       margin="0"
       bleed="0" /></sodipodi:namedview><defs
     id="defs1" /><g
     inkscape:label="Layer 1"
     inkscape:groupmode="layer"
     id="layer1"
     transform="translate(-589.35064,343.93281)"><g
       id="facebook"
       transform="translate(145.27738,-301.3704)"><circle
         style="fill:#ffffff;fill-opacity:1;stroke-width:0.234391;paint-order:stroke fill markers"
         id="circle23"
         cx="504.07327"
         cy="17.43759"
         r="60" /><path
         style="fill:#1875ef;stroke:none;stroke-width:0.63999"
         d="M 494.79889,77.437589 V 35.362237 h -11.15421 c -0.91871,0 -3.26481,0.41993 -3.9541,-0.27203 -0.74464,-0.74752 -0.27098,-3.47194 -0.27098,-4.47841 v -12.7244 h 15.37929 c 0,-9.5596402 -1.80113,-21.4901502 4.92978,-29.35081 6.04875,-7.06399 14.34826,-7.69439 22.95575,-7.30214 1.98346,0.0904 3.94522,0.39094 5.91512,0.637 0.63194,0.0789 1.61231,-0.0159 2.09506,0.48751 0.68731,0.71675 0.27098,3.03139 0.27098,3.97192 v 10.8581598 c -6.34685,0 -15.42666,-1.46982 -17.12579,6.78635 -0.42258,2.05331 -0.28154,4.19365 -0.28154,6.2773702 v 5.42908 c 0,0.53456 -0.20556,1.6523 0.27098,2.03119 0.81581,0.64865 3.44131,0.17437 4.46111,0.17437 h 11.99923 l -2.70405,17.47484 h -14.02727 v 42.075352 c 7.88458,-1.00119 15.77833,-4.12913 22.47743,-8.36734 6.73537,-4.26115 12.76307,-9.807612 17.29584,-16.402822 17.85292,-25.97617 13.15674,-62.5837002 -11.88774,-82.28198 -5.48496,-4.31409 -11.64634,-7.63214 -18.25235,-9.84268 -6.98888,-2.33867 -14.44112,-3.37071 -21.80141,-3.04718 -26.08379,1.14658 -49.19868,20.00347 -55.53869,45.4618498 -6.80693,27.3333102 6.4026,56.3057502 31.54023,68.9233022 5.27502,2.64775 11.46675,5.08556 17.40733,5.55685 z"
         id="path7" /></g></g></svg>
