<?xml version="1.0" encoding="UTF-8" standalone="no"?>
<!-- Created with Inkscape (http://www.inkscape.org/) -->

<svg
   width="119.61555mm"
   height="120mm"
   viewBox="0 0 119.61555 120"
   version="1.1"
   id="svg1"
   xml:space="preserve"
   inkscape:export-batch-path="/home/jacqueshauzeur/ownDev/daroga/images"
   inkscape:export-batch-name=""
   inkscape:version="1.4.2 (ebf0e940d0, 2025-05-08)"
   sodipodi:docname="main.svg"
   xmlns:inkscape="http://www.inkscape.org/namespaces/inkscape"
   xmlns:sodipodi="http://sodipodi.sourceforge.net/DTD/sodipodi-0.dtd"
   xmlns="http://www.w3.org/2000/svg"
   xmlns:svg="http://www.w3.org/2000/svg"><sodipodi:namedview
     id="namedview1"
     pagecolor="#505050"
     bordercolor="#eeeeee"
     borderopacity="1"
     inkscape:showpageshadow="0"
     inkscape:pageopacity="0"
     inkscape:pagecheckerboard="0"
     inkscape:deskcolor="#505050"
     inkscape:document-units="mm"
     inkscape:zoom="0.36214844"
     inkscape:cx="1064.4806"
     inkscape:cy="247.13623"
     inkscape:window-width="1600"
     inkscape:window-height="863"
     inkscape:window-x="0"
     inkscape:window-y="0"
     inkscape:window-maximized="1"
     inkscape:current-layer="layer1"><inkscape:page
       x="0"
       y="0"
       width="119.61555"
       height="120"
       id="page1"
       margin="0"
       bleed="0" /></sodipodi:namedview><defs
     id="defs1" /><g
     inkscape:label="Layer 1"
     inkscape:groupmode="layer"
     id="layer1"
     transform="translate(-521.01162,163.04535)"><g
       id="instagram"
       transform="matrix(0.96092811,0,0,0.96092811,548.46971,-52.980211)"><circle
         style="fill:#ffffff;fill-opacity:1;stroke-width:0.234391;paint-order:stroke fill markers"
         id="circle24"
         cx="33.665039"
         cy="-52.100822"
         r="60" /><path
         style="fill:#e05869;fill-opacity:1;stroke:none"
         d="m 28.045833,-114.18772 c -11.952516,1.57012 -22.499176,5.37746 -32.280184,12.56669 -5.884524,4.32524 -10.864025,10.03359 -14.778902,16.16061 -18.950451,29.65865 -8.749022,70.28347 21.922652,87.62301 6.023526,3.40529 12.537865,5.72544 19.315601,6.95573 6.042073,1.09675 12.117542,1.62388 18.25625,0.86011 9.578792,-1.19182 19.222002,-4.36064 27.252083,-9.8049 6.406037,-4.34318 12.233201,-9.72784 16.742648,-16.05241 15.808029,-22.17102 15.004026,-52.35923 -1.091391,-74.07926 -3.89088,-5.25057 -8.888346,-10.0362 -14.32834,-13.66462 -6.049227,-4.0348 -12.767115,-7.16955 -19.84375,-8.88641 -6.733455,-1.63361 -14.237681,-2.58877 -21.166667,-1.67855 m -2.38125,25.89242 c 5.037225,-0.59434 10.570963,-0.17975 15.610417,0.16536 8.173209,0.55972 16.735913,0.22028 22.131078,7.72049 4.894614,6.80435 4.062672,15.60059 4.062672,23.52403 0,12.25732 2.943926,30.49265 -10.847917,36.72563 -2.558435,1.15625 -5.428318,1.73129 -8.202083,2.09156 -4.525015,0.58774 -9.199778,0.34114 -13.758333,0.34114 -10.049096,0 -24.055347,2.00521 -31.878618,-5.82185 -3.336085,-3.3377 -4.188884,-7.4596 -5.02014,-11.90523 -1.030387,-5.51056 -0.672076,-10.85459 -0.672076,-16.40417 0,-5.81338 -0.32368,-11.42159 0.454446,-17.19791 0.649339,-4.82028 1.728197,-9.87417 5.366589,-13.4076 6.443204,-6.25732 14.690472,-4.88005 22.753965,-5.83145 m -2.38125,6.38675 c -5.06471,0.66499 -11.375242,-0.60359 -15.420352,3.38282 -3.027512,2.98358 -3.535694,7.28841 -3.938947,11.32156 -0.880987,8.81111 -0.262218,17.63348 -0.219666,26.45833 0.0191,3.95998 0.62015,9.42252 3.46715,12.4248 2.826354,2.98051 7.236113,3.38726 11.084732,3.7597 9.569668,0.92609 20.337712,1.38855 29.897917,0.14311 4.090302,-0.53285 8.189519,-1.9024 10.590067,-5.48071 2.373337,-3.53777 2.207762,-7.85895 2.384932,-11.90523 0.260013,-5.93807 0.403399,-11.79333 0.258043,-17.72708 -0.138331,-5.6474 0.09147,-12.48008 -3.298717,-17.34919 -2.089213,-3.00062 -5.433066,-4.06772 -8.875992,-4.63247 -4.870084,-0.79885 -9.895552,-0.50793 -14.816667,-0.50793 -3.640879,0 -7.501383,-0.36185 -11.1125,0.11229 m 26.988518,6.0603 c 5.588757,-1.00276 6.920976,7.37626 1.321899,8.1784 -5.038194,0.72179 -6.306091,-7.28411 -1.321899,-8.1784 m -19.051018,4.75087 c 9.863093,-1.1669 19.267219,7.91987 19.267219,17.65154 0,9.51611 -6.925256,17.28678 -16.356802,18.4451 -13.937489,1.7117 -23.920036,-13.52159 -18.126817,-25.85343 2.873161,-6.11599 8.722675,-9.47495 15.2164,-10.24321 m -0.529166,6.38777 c -11.635611,1.66688 -13.944837,18.99535 -2.38125,22.87808 1.886625,0.63348 4.125943,0.72456 6.085416,0.44322 14.754042,-2.11839 11.292399,-25.46967 -3.704166,-23.3213 M 0.264583,-0.26459 0,0 0.264583,-0.26459 m 8.113886,4.40973 -0.08819,0.17638 z"
         id="path15" /></g></g></svg>
