<?xml version="1.0" encoding="UTF-8" standalone="no"?>
<!-- Created with Inkscape (http://www.inkscape.org/) -->

<svg
   width="120mm"
   height="120.00001mm"
   viewBox="0 0 120 120.00001"
   version="1.1"
   id="svg1"
   xml:space="preserve"
   inkscape:export-batch-path="/home/jacqueshauzeur/ownDev/daroga/images"
   inkscape:export-batch-name=""
   inkscape:version="1.4.2 (ebf0e940d0, 2025-05-08)"
   sodipodi:docname="main.svg"
   xmlns:inkscape="http://www.inkscape.org/namespaces/inkscape"
   xmlns:sodipodi="http://sodipodi.sourceforge.net/DTD/sodipodi-0.dtd"
   xmlns="http://www.w3.org/2000/svg"
   xmlns:svg="http://www.w3.org/2000/svg"><sodipodi:namedview
     id="namedview1"
     pagecolor="#505050"
     bordercolor="#eeeeee"
     borderopacity="1"
     inkscape:showpageshadow="0"
     inkscape:pageopacity="0"
     inkscape:pagecheckerboard="0"
     inkscape:deskcolor="#505050"
     inkscape:document-units="mm"
     inkscape:zoom="0.49232167"
     inkscape:cx="1485.8172"
     inkscape:cy="226.47795"
     inkscape:window-width="1600"
     inkscape:window-height="863"
     inkscape:window-x="0"
     inkscape:window-y="0"
     inkscape:window-maximized="1"
     inkscape:current-layer="layer1"><inkscape:page
       x="0"
       y="0"
       width="120"
       height="120.00001"
       id="page1"
       margin="0"
       bleed="0" /></sodipodi:namedview><defs
     id="defs1" /><g
     inkscape:label="Layer 1"
     inkscape:groupmode="layer"
     id="layer1"
     transform="translate(-394.16623,162.49359)"><g
       id="linkedin"
       transform="matrix(1.0025063,0,0,1.0025063,-28.245685,-265.3457)"><circle
         style="fill:#ffffff;fill-opacity:1;stroke-width:0.214859;paint-order:stroke fill markers"
         id="path23"
         cx="481.20587"
         cy="162.44498"
         r="55" /><path
         style="fill:#0c67c3;stroke:none;stroke-width:0.669098"
         d="m 478.23751,102.84384 c -4.50541,0.58973 -8.87769,0.89614 -13.29819,2.12108 -12.63354,3.50078 -23.95306,11.21043 -31.83138,21.66594 -20.38076,27.04782 -13.53788,67.27835 14.987,85.8425 5.54585,3.60926 11.65576,6.3464 18.08553,7.94882 7.2738,1.8128 14.89687,2.35306 22.34097,1.42975 28.40664,-3.52338 51.21958,-27.71893 52.47653,-56.3348 1.21305,-27.61669 -16.7488,-52.47449 -43.25646,-60.40098 -5.96668,-1.78419 -13.2683,-3.08852 -19.504,-2.27231 m -21.80903,28.78732 c 7.19323,-0.93369 10.82352,8.73299 5.13499,12.97559 -1.07406,0.80107 -2.39576,1.24712 -3.71653,1.41611 -9.00514,1.15216 -10.41213,-13.22429 -1.41846,-14.3917 m 53.72467,60.2226 h -11.70241 v -12.72642 c 0,-4.12695 0.97704,-9.81206 -1.43708,-13.43345 -3.74791,-5.6222 -12.20934,-3.98575 -14.44234,2.12107 -0.70718,1.93399 -0.43302,4.1638 -0.43302,6.18645 v 11.31237 4.41891 c 0,0.51442 0.16166,1.40482 -0.18223,1.83766 -0.44979,0.56613 -2.01065,0.28341 -2.65471,0.28341 h -6.0285 c -0.73669,0 -1.92878,0.22419 -2.60328,-0.10665 -0.67813,-0.33264 -0.41099,-1.7544 -0.41099,-2.36792 v -7.24701 -30.22525 h 11.87971 v 5.30268 c 6.59825,-8.16009 22.17347,-8.43561 26.87316,2.12107 1.62446,3.64896 1.14169,7.77614 1.14169,11.66589 v 20.85719 m -46.80962,-39.94683 v 28.28095 7.95401 c 0,0.9101 0.30172,2.47416 -0.10699,3.30217 -0.34501,0.69898 -1.91352,0.4097 -2.55265,0.4097 h -6.56044 c -0.66157,0 -2.00389,0.2516 -2.55264,-0.18167 -0.54639,-0.43139 -0.2843,-1.8553 -0.2843,-2.46967 v -7.42373 -29.87176 z"
         id="path6" /></g></g></svg>
